<svg width="573.067" height="323.618" viewBox="99.0421 118.741 429.8 242.713" xmlns="http://www.w3.org/2000/svg" xmlns:xlink="http://www.w3.org/1999/xlink" overflow="hidden"><g transform="matrix(1 0 0 -1 0 841)"><g stroke="#000000" stroke-linecap="round" stroke-linejoin="round" stroke-miterlimit="3" fill="none" fill-rule="evenodd" font-weight="400" baseline-shift="0"><g transform="matrix(0.75 0 0 0.75 0 841.65)"><g font-family="CalibriUnicode" font-size="10" transform="scale(0.957871 -0.959633)"><path d="M195 187C195 182 195 182 200 182L343 182C348 182 348 182 348 187L348 260C348 265 348 265 343 265L200 265C195 265 195 265 195 260L195 187" stroke="none" fill="#DFDFDF"/><path d="M192 184C192 179 192 179 197 179L340 179C345 179 345 179 345 184L345 257C345 262 345 262 340 262L197 262C192 262 192 262 192 257L192 184" stroke="none" fill="#CCFFFF"/><path d="M192 184C192 179 192 179 197 179L340 179C345 179 345 179 345 184L345 257C345 262 345 262 340 262L197 262C192 262 192 262 192 257L192 184M192 184C192 179 192 179 197 179L340 179C345 179 345 179 345 184L345 257C345 262 345 262 340 262L197 262C192 262 192 262 192 257L192 184"/><text stroke="none" fill="#000000" transform="translate(242 185)"><tspan x="0" y="9" dx="0">«</tspan><tspan x="5.33333" y="9" dx="0">O</tspan><tspan x="12" y="9" dx="0">b</tspan><tspan x="17.3333" y="9" dx="0">j</tspan><tspan x="19.6667" y="9" dx="0">e</tspan><tspan x="24.6667" y="9" dx="0">c</tspan><tspan x="29" y="9" dx="0 0">tt</tspan><tspan x="35.6667" y="9" dx="0">y</tspan><tspan x="40.3333" y="9" dx="0">p</tspan><tspan x="45.6667" y="9" dx="0">e</tspan><tspan x="50.6667" y="9" dx="0">»</tspan></text><text stroke="none" fill="#000000" font-weight="700" transform="translate(232 198)"><tspan x="0" y="9" dx="0">S</tspan><tspan x="5.33333" y="9" dx="0">y</tspan><tspan x="10.6667" y="9" dx="0">m</tspan><tspan x="19" y="9" dx="0">b</tspan><tspan x="24.6667" y="9" dx="0">o</tspan><tspan x="30" y="9" dx="0">l</tspan><tspan x="32.3333" y="9" dx="0">i</tspan><tspan x="34.6667" y="9" dx="0">s</tspan><tspan x="38.3333" y="9" dx="0">a</tspan><tspan x="43.3333" y="9" dx="0 0">ti</tspan><tspan x="49" y="9" dx="0">e</tspan><tspan x="54" y="9" dx="0">I</tspan><tspan x="56.6667" y="9" dx="0">t</tspan><tspan x="60" y="9" dx="0">e</tspan><tspan x="65" y="9" dx="0">m</tspan></text><path d="M192 216 345 216"/><text stroke="none" fill="#000000" transform="translate(204 224)"><tspan x="0" y="9" dx="0">«</tspan><tspan x="5" y="9" dx="0">A</tspan><tspan x="10.6667" y="9" dx="0 0">tt</tspan><tspan x="17.3333" y="9" dx="0">r</tspan><tspan x="20.6667" y="9" dx="0">i</tspan><tspan x="23" y="9" dx="0">b</tspan><tspan x="28" y="9" dx="0">u</tspan><tspan x="33" y="9" dx="0">u</tspan><tspan x="38.3333" y="9" dx="0">t</tspan><tspan x="41.6667" y="9" dx="0">s</tspan><tspan x="45.3333" y="9" dx="0">o</tspan><tspan x="50.6667" y="9" dx="0">o</tspan><tspan x="56" y="9" dx="0">r</tspan><tspan x="59.3333" y="9" dx="0">t</tspan><tspan x="62.6667" y="9" dx="0">»</tspan></text><text stroke="none" fill="#2F4F4F" transform="translate(197 237)"><tspan x="0" y="9" dx="0">+</tspan></text><text stroke="none" fill="#2F4F4F" transform="translate(214 237)"><tspan x="0" y="9" dx="0">symboolcode: CharacterString</tspan></text><path d="M585 185C585 180 585 180 590 180L719 180C724 180 724 180 724 185L724 263C724 268 724 268 719 268L590 268C585 268 585 268 585 263L585 185" stroke="none" fill="#DFDFDF"/><path d="M582 182C582 177 582 177 587 177L716 177C721 177 721 177 721 182L721 260C721 265 721 265 716 265L587 265C582 265 582 265 582 260L582 182" stroke="none" fill="#CCFFCC"/><path d="M582 182C582 177 582 177 587 177L716 177C721 177 721 177 721 182L721 260C721 265 721 265 716 265L587 265C582 265 582 265 582 260L582 182M582 182C582 177 582 177 587 177L716 177C721 177 721 177 721 182L721 260C721 265 721 265 716 265L587 265C582 265 582 265 582 260L582 182" stroke="#C0C0C0"/><text stroke="none" fill="#000000" transform="translate(625 183)"><tspan x="0" y="9" dx="0">«</tspan><tspan x="5.33333" y="9" dx="0">O</tspan><tspan x="12" y="9" dx="0">b</tspan><tspan x="17.3333" y="9" dx="0">j</tspan><tspan x="19.6667" y="9" dx="0">e</tspan><tspan x="24.6667" y="9" dx="0">c</tspan><tspan x="29" y="9" dx="0 0">tt</tspan><tspan x="35.6667" y="9" dx="0">y</tspan><tspan x="40.3333" y="9" dx="0">p</tspan><tspan x="45.6667" y="9" dx="0">e</tspan><tspan x="50.6667" y="9" dx="0">»</tspan></text><text stroke="none" fill="#000000" font-style="italic" font-weight="700" transform="translate(609 196)"><tspan x="0" y="9" dx="0">GebiedsAanwijzing::</tspan><tspan x="4" y="22" dx="0">Gebiedsaanwijzing</tspan></text><path d="M582 227 721 227" stroke="#C0C0C0"/><text stroke="none" fill="#000000" transform="translate(594 235)"><tspan x="0" y="9" dx="0">«</tspan><tspan x="5" y="9" dx="0">A</tspan><tspan x="10.6667" y="9" dx="0 0">tt</tspan><tspan x="17.3333" y="9" dx="0">r</tspan><tspan x="20.6667" y="9" dx="0">i</tspan><tspan x="23" y="9" dx="0">b</tspan><tspan x="28" y="9" dx="0">u</tspan><tspan x="33" y="9" dx="0">u</tspan><tspan x="38.3333" y="9" dx="0">t</tspan><tspan x="41.6667" y="9" dx="0">s</tspan><tspan x="45.3333" y="9" dx="0">o</tspan><tspan x="50.6667" y="9" dx="0">o</tspan><tspan x="56" y="9" dx="0">r</tspan><tspan x="59.3333" y="9" dx="0">t</tspan><tspan x="62.6667" y="9" dx="0">»</tspan></text><text stroke="none" fill="#2F4F4F" transform="translate(587 248)"><tspan x="0" y="9" dx="0">+</tspan></text><text stroke="none" fill="#2F4F4F" transform="translate(604 248)"><tspan x="0" y="9" dx="0">i</tspan><tspan x="2.33333" y="9" dx="0">d</tspan><tspan x="7.33333" y="9" dx="0">e</tspan><tspan x="12.3333" y="9" dx="0">n</tspan><tspan x="17.6667" y="9" dx="0 0">ti</tspan><tspan x="23.3333" y="9" dx="0 0">fi</tspan><tspan x="28.6667" y="9" dx="0">c</tspan><tspan x="33" y="9" dx="0">a</tspan><tspan x="38" y="9" dx="0 0">ti</tspan><tspan x="43.6667" y="9" dx="0">e</tspan><tspan x="48.6667" y="9" dx="0">:</tspan><tspan x="51.3333" y="9" dx="0"> </tspan><tspan x="53.3333" y="9" dx="0">I</tspan><tspan x="55.6667" y="9" dx="0">d</tspan><tspan x="61" y="9" dx="0">e</tspan><tspan x="66" y="9" dx="0">n</tspan><tspan x="71.3333" y="9" dx="0 0">ti</tspan><tspan x="77" y="9" dx="0 0">fi</tspan><tspan x="82.3333" y="9" dx="0">c</tspan><tspan x="86.6667" y="9" dx="0">a</tspan><tspan x="91.6667" y="9" dx="0 0">ti</tspan><tspan x="97.3333" y="9" dx="0">e</tspan><tspan x="102.333" y="9" dx="0"> </tspan><tspan x="104.333" y="9" dx="0">{</tspan><tspan x="107.333" y="9" dx="0">i</tspan><tspan x="109.667" y="9" dx="0">d</tspan><tspan x="115" y="9" dx="0">}</tspan></text><path d="M493 388C493 383 493 383 498 383L718 383C723 383 723 383 723 388L723 483C723 488 723 488 718 488L498 488C493 488 493 488 493 483L493 388" stroke="none" fill="#DFDFDF"/><path d="M490 385C490 380 490 380 495 380L715 380C720 380 720 380 720 385L720 480C720 485 720 485 715 485L495 485C490 485 490 485 490 480L490 385" stroke="none" fill="#CCFFCC"/><path d="M490 385C490 380 490 380 495 380L715 380C720 380 720 380 720 385L720 480C720 485 720 485 715 485L495 485C490 485 490 485 490 480L490 385M490 385C490 380 490 380 495 380L715 380C720 380 720 380 720 385L720 480C720 485 720 485 715 485L495 485C490 485 490 485 490 480L490 385"/><text stroke="none" fill="#000000" transform="translate(560 386)"><tspan x="0" y="9" dx="0">«Gegevensgroeptype»</tspan></text><text stroke="none" fill="#000000" font-weight="700" transform="translate(534 399)"><tspan x="0" y="9" dx="0">R</tspan><tspan x="6" y="9" dx="0">e</tspan><tspan x="11" y="9" dx="0">g</tspan><tspan x="16" y="9" dx="0">e</tspan><tspan x="21" y="9" dx="0">l</tspan><tspan x="23.3333" y="9" dx="0">:</tspan><tspan x="26" y="9" dx="0">:</tspan><tspan x="28.6667" y="9" dx="0">A</tspan><tspan x="34.6667" y="9" dx="0">c</tspan><tspan x="39" y="9" dx="0 0">ti</tspan><tspan x="44.6667" y="9" dx="0">v</tspan><tspan x="49.6667" y="9" dx="0">i</tspan><tspan x="52" y="9" dx="0">t</tspan><tspan x="55.3333" y="9" dx="0">e</tspan><tspan x="60.3333" y="9" dx="0">i</tspan><tspan x="62.6667" y="9" dx="0">t</tspan><tspan x="66" y="9" dx="0">L</tspan><tspan x="70.3333" y="9" dx="0">o</tspan><tspan x="75.6667" y="9" dx="0">c</tspan><tspan x="80" y="9" dx="0">a</tspan><tspan x="85" y="9" dx="0 0">ti</tspan><tspan x="90.6667" y="9" dx="0">e</tspan><tspan x="95.6667" y="9" dx="0">a</tspan><tspan x="100.667" y="9" dx="0">a</tspan><tspan x="105.667" y="9" dx="0">n</tspan><tspan x="111" y="9" dx="0">d</tspan><tspan x="116.333" y="9" dx="0">u</tspan><tspan x="121.667" y="9" dx="0">i</tspan><tspan x="124" y="9" dx="0">d</tspan><tspan x="129.333" y="9" dx="0">i</tspan><tspan x="131.667" y="9" dx="0">n</tspan><tspan x="137" y="9" dx="0">g</tspan></text><path d="M490 417 720 417"/><text stroke="none" fill="#000000" transform="translate(502 425)"><tspan x="0" y="9" dx="0">«</tspan><tspan x="5" y="9" dx="0">A</tspan><tspan x="10.6667" y="9" dx="0 0">tt</tspan><tspan x="17.3333" y="9" dx="0">r</tspan><tspan x="20.6667" y="9" dx="0">i</tspan><tspan x="23" y="9" dx="0">b</tspan><tspan x="28" y="9" dx="0">u</tspan><tspan x="33" y="9" dx="0">u</tspan><tspan x="38.3333" y="9" dx="0">t</tspan><tspan x="41.6667" y="9" dx="0">s</tspan><tspan x="45.3333" y="9" dx="0">o</tspan><tspan x="50.6667" y="9" dx="0">o</tspan><tspan x="56" y="9" dx="0">r</tspan><tspan x="59.3333" y="9" dx="0">t</tspan><tspan x="62.6667" y="9" dx="0">»</tspan></text><text stroke="none" fill="#2F4F4F" transform="translate(495 438)"><tspan x="0" y="9" dx="0">+</tspan></text><text stroke="none" fill="#2F4F4F" transform="translate(512 438)"><tspan x="0" y="9" dx="0">i</tspan><tspan x="2.33333" y="9" dx="0">d</tspan><tspan x="7.33333" y="9" dx="0">e</tspan><tspan x="12" y="9" dx="0">n</tspan><tspan x="17.3333" y="9" dx="0 0">ti</tspan><tspan x="23" y="9" dx="0 0">fi</tspan><tspan x="28.3333" y="9" dx="0">c</tspan><tspan x="32.6667" y="9" dx="0">a</tspan><tspan x="37.6667" y="9" dx="0 0">ti</tspan><tspan x="43.3333" y="9" dx="0">e</tspan><tspan x="48.3333" y="9" dx="0">:</tspan><tspan x="51" y="9" dx="0"> </tspan><tspan x="53" y="9" dx="0">I</tspan><tspan x="55.3333" y="9" dx="0">d</tspan><tspan x="60.6667" y="9" dx="0">e</tspan><tspan x="65.6667" y="9" dx="0">n</tspan><tspan x="71" y="9" dx="0 0">ti</tspan><tspan x="76.6667" y="9" dx="0 0">fi</tspan><tspan x="82" y="9" dx="0">c</tspan><tspan x="86.3333" y="9" dx="0">a</tspan><tspan x="91.3333" y="9" dx="0 0">ti</tspan><tspan x="97" y="9" dx="0">e</tspan></text><text stroke="none" fill="#000000" transform="translate(502 455)"><tspan x="0" y="9" dx="0">«Gegevensgroep»</tspan></text><text stroke="none" fill="#2F4F4F" transform="translate(495 468)"><tspan x="0" y="9" dx="0">+</tspan></text><text stroke="none" fill="#2F4F4F" transform="translate(512 468)"><tspan x="0" y="9" dx="0">a</tspan><tspan x="5" y="9" dx="0">c</tspan><tspan x="9.33333" y="9" dx="0 0">ti</tspan><tspan x="15" y="9" dx="0">v</tspan><tspan x="19.6667" y="9" dx="0">i</tspan><tspan x="22" y="9" dx="0">t</tspan><tspan x="25.3333" y="9" dx="0">e</tspan><tspan x="30.3333" y="9" dx="0">i</tspan><tspan x="32.6667" y="9" dx="0">t</tspan><tspan x="36" y="9" dx="0">r</tspan><tspan x="39.3333" y="9" dx="0">e</tspan><tspan x="44.3333" y="9" dx="0">g</tspan><tspan x="49.3333" y="9" dx="0">e</tspan><tspan x="54.3333" y="9" dx="0">l</tspan><tspan x="56.6667" y="9" dx="0">k</tspan><tspan x="61.3333" y="9" dx="0">w</tspan><tspan x="68.6667" y="9" dx="0">a</tspan><tspan x="73.6667" y="9" dx="0">l</tspan><tspan x="76" y="9" dx="0">i</tspan><tspan x="78.3333" y="9" dx="0 0">fi</tspan><tspan x="83.6667" y="9" dx="0">c</tspan><tspan x="88" y="9" dx="0">a</tspan><tspan x="93" y="9" dx="0 0">ti</tspan><tspan x="98.6667" y="9" dx="0">e</tspan><tspan x="103.667" y="9" dx="0">:</tspan><tspan x="106.333" y="9" dx="0"> </tspan><tspan x="108.333" y="9" dx="0">A</tspan><tspan x="114.333" y="9" dx="0">c</tspan><tspan x="118.667" y="9" dx="0 0">ti</tspan><tspan x="124.333" y="9" dx="0">v</tspan><tspan x="129" y="9" dx="0">i</tspan><tspan x="131.333" y="9" dx="0">t</tspan><tspan x="134.667" y="9" dx="0">e</tspan><tspan x="139.667" y="9" dx="0">i</tspan><tspan x="142" y="9" dx="0">t</tspan><tspan x="145.333" y="9" dx="0">r</tspan><tspan x="148.667" y="9" dx="0">e</tspan><tspan x="153.667" y="9" dx="0">g</tspan><tspan x="158.667" y="9" dx="0">e</tspan><tspan x="163.667" y="9" dx="0">l</tspan><tspan x="166" y="9" dx="0">k</tspan><tspan x="170.667" y="9" dx="0">w</tspan><tspan x="178" y="9" dx="0">a</tspan><tspan x="183" y="9" dx="0">l</tspan><tspan x="185.333" y="9" dx="0">i</tspan><tspan x="187.667" y="9" dx="0 0">fi</tspan><tspan x="193" y="9" dx="0">c</tspan><tspan x="197.333" y="9" dx="0">a</tspan><tspan x="202.333" y="9" dx="0 0">ti</tspan><tspan x="208" y="9" dx="0">e</tspan></text><path d="M173 383C173 378 173 378 178 378L365 378C370 378 370 378 370 383L370 487C370 492 370 492 365 492L178 492C173 492 173 492 173 487L173 383" stroke="none" fill="#DFDFDF"/><path d="M170 380C170 375 170 375 175 375L362 375C367 375 367 375 367 380L367 484C367 489 367 489 362 489L175 489C170 489 170 489 170 484L170 380" stroke="none" fill="#CCFFCC"/><path d="M170 380C170 375 170 375 175 375L362 375C367 375 367 375 367 380L367 484C367 489 367 489 362 489L175 489C170 489 170 489 170 484L170 380M170 380C170 375 170 375 175 375L362 375C367 375 367 375 367 380L367 484C367 489 367 489 362 489L175 489C170 489 170 489 170 484L170 380" stroke="#C0C0C0"/><text stroke="none" fill="#000000" transform="translate(223 381)"><tspan x="0" y="9" dx="0">«Gegevensgroeptype»</tspan></text><text stroke="none" fill="#000000" font-weight="700" transform="translate(202 394)"><tspan x="0" y="9" dx="0">R</tspan><tspan x="6" y="9" dx="0">e</tspan><tspan x="11.3333" y="9" dx="0">g</tspan><tspan x="16.6667" y="9" dx="0">e</tspan><tspan x="22" y="9" dx="0">l</tspan><tspan x="24.3333" y="9" dx="0">s</tspan><tspan x="28" y="9" dx="0">O</tspan><tspan x="35" y="9" dx="0">p</tspan><tspan x="40.6667" y="9" dx="0">L</tspan><tspan x="45" y="9" dx="0">o</tspan><tspan x="50.6667" y="9" dx="0">c</tspan><tspan x="55" y="9" dx="0">a</tspan><tspan x="60.3333" y="9" dx="0 0">ti</tspan><tspan x="66" y="9" dx="0">e</tspan><tspan x="71.3333" y="9" dx="0">:</tspan><tspan x="74" y="9" dx="0">:</tspan><tspan x="76.6667" y="9" dx="0">N</tspan><tspan x="83.6667" y="9" dx="0">o</tspan><tspan x="89.3333" y="9" dx="0">r</tspan><tspan x="92.6667" y="9" dx="0">m</tspan><tspan x="101" y="9" dx="0">w</tspan><tspan x="108.667" y="9" dx="0">a</tspan><tspan x="114" y="9" dx="0">a</tspan><tspan x="119.333" y="9" dx="0">r</tspan><tspan x="122.667" y="9" dx="0">d</tspan><tspan x="128" y="9" dx="0">e</tspan></text><path d="M170 412 367 412" stroke="#C0C0C0"/><text stroke="none" fill="#000000" transform="translate(182 420)"><tspan x="0" y="9" dx="0">«</tspan><tspan x="5" y="9" dx="0">A</tspan><tspan x="10.6667" y="9" dx="0 0">tt</tspan><tspan x="17.3333" y="9" dx="0">r</tspan><tspan x="20.6667" y="9" dx="0">i</tspan><tspan x="23" y="9" dx="0">b</tspan><tspan x="28" y="9" dx="0">u</tspan><tspan x="33" y="9" dx="0">u</tspan><tspan x="38.3333" y="9" dx="0">t</tspan><tspan x="41.6667" y="9" dx="0">s</tspan><tspan x="45.3333" y="9" dx="0">o</tspan><tspan x="50.6667" y="9" dx="0">o</tspan><tspan x="56" y="9" dx="0">r</tspan><tspan x="59.3333" y="9" dx="0">t</tspan><tspan x="62.6667" y="9" dx="0">»</tspan></text><text stroke="none" fill="#2F4F4F" transform="translate(175 433)"><tspan x="0" y="9" dx="0">+</tspan></text><text stroke="none" fill="#2F4F4F" transform="translate(192 433)"><tspan x="0" y="9" dx="0">i</tspan><tspan x="2.33333" y="9" dx="0">d</tspan><tspan x="7.33333" y="9" dx="0">e</tspan><tspan x="12" y="9" dx="0">n</tspan><tspan x="17.3333" y="9" dx="0 0">ti</tspan><tspan x="23" y="9" dx="0 0">fi</tspan><tspan x="28.3333" y="9" dx="0">c</tspan><tspan x="32.6667" y="9" dx="0">a</tspan><tspan x="37.6667" y="9" dx="0 0">ti</tspan><tspan x="43.3333" y="9" dx="0">e</tspan><tspan x="48.3333" y="9" dx="0">:</tspan><tspan x="51" y="9" dx="0"> </tspan><tspan x="53" y="9" dx="0">I</tspan><tspan x="55.3333" y="9" dx="0">d</tspan><tspan x="60.6667" y="9" dx="0">e</tspan><tspan x="65.6667" y="9" dx="0">n</tspan><tspan x="71" y="9" dx="0 0">ti</tspan><tspan x="76.6667" y="9" dx="0 0">fi</tspan><tspan x="82" y="9" dx="0">c</tspan><tspan x="86.3333" y="9" dx="0">a</tspan><tspan x="91.3333" y="9" dx="0 0">ti</tspan><tspan x="97" y="9" dx="0">e</tspan></text><text stroke="none" fill="#2F4F4F" transform="translate(175 446)"><tspan x="0" y="9" dx="0">+</tspan></text><text stroke="none" fill="#2F4F4F" transform="translate(192 446)"><tspan x="0" y="9" dx="0">k</tspan><tspan x="5" y="9" dx="0">w</tspan><tspan x="12.6667" y="9" dx="0">a</tspan><tspan x="18" y="9" dx="0">l</tspan><tspan x="20.3333" y="9" dx="0">i</tspan><tspan x="22.6667" y="9" dx="0">t</tspan><tspan x="26" y="9" dx="0">a</tspan><tspan x="31.3333" y="9" dx="0 0">ti</tspan><tspan x="37" y="9" dx="0">e</tspan><tspan x="42.3333" y="9" dx="0">v</tspan><tspan x="47.3333" y="9" dx="0">e</tspan><tspan x="52.6667" y="9" dx="0">W</tspan><tspan x="62" y="9" dx="0">a</tspan><tspan x="67.3333" y="9" dx="0">a</tspan><tspan x="72.3333" y="9" dx="0">r</tspan><tspan x="75.6667" y="9" dx="0">d</tspan><tspan x="81" y="9" dx="0">e</tspan><tspan x="86" y="9" dx="0">:</tspan><tspan x="88.6667" y="9" dx="0"> </tspan><tspan x="90.6667" y="9" dx="0">C</tspan><tspan x="96" y="9" dx="0">h</tspan><tspan x="101.333" y="9" dx="0">a</tspan><tspan x="106.333" y="9" dx="0">r</tspan><tspan x="109.667" y="9" dx="0">a</tspan><tspan x="114.667" y="9" dx="0">c</tspan><tspan x="119" y="9" dx="0">t</tspan><tspan x="122.333" y="9" dx="0">e</tspan><tspan x="127.333" y="9" dx="0">r</tspan><tspan x="130.667" y="9" dx="0">S</tspan><tspan x="135.333" y="9" dx="0">t</tspan><tspan x="138.667" y="9" dx="0">r</tspan><tspan x="142" y="9" dx="0">i</tspan><tspan x="144.333" y="9" dx="0">n</tspan><tspan x="149.667" y="9" dx="0">g</tspan><tspan x="154.667" y="9" dx="0"> </tspan><tspan x="156.667" y="9" dx="0">[</tspan><tspan x="159.667" y="9" dx="0">0</tspan><tspan x="165" y="9" dx="0">.</tspan><tspan x="167.333" y="9" dx="0">.</tspan><tspan x="169.667" y="9" dx="0">1</tspan><tspan x="175" y="9" dx="0">]</tspan></text><text stroke="none" fill="#2F4F4F" transform="translate(175 459)"><tspan x="0" y="9" dx="0">+</tspan></text><text stroke="none" fill="#2F4F4F" transform="translate(192 459)"><tspan x="0" y="9" dx="0">k</tspan><tspan x="5" y="9" dx="0">w</tspan><tspan x="12.6667" y="9" dx="0">a</tspan><tspan x="18" y="9" dx="0">n</tspan><tspan x="23.6667" y="9" dx="0 0">ti</tspan><tspan x="29.3333" y="9" dx="0">t</tspan><tspan x="32.6667" y="9" dx="0">a</tspan><tspan x="38" y="9" dx="0 0">ti</tspan><tspan x="43.6667" y="9" dx="0">e</tspan><tspan x="49" y="9" dx="0">v</tspan><tspan x="54" y="9" dx="0">e</tspan><tspan x="59.3333" y="9" dx="0">W</tspan><tspan x="68.6667" y="9" dx="0">a</tspan><tspan x="74" y="9" dx="0">a</tspan><tspan x="79.3333" y="9" dx="0">r</tspan><tspan x="82.6667" y="9" dx="0">d</tspan><tspan x="88" y="9" dx="0">e</tspan><tspan x="93" y="9" dx="0">:</tspan><tspan x="95.6667" y="9" dx="0"> </tspan><tspan x="97.6667" y="9" dx="0">R</tspan><tspan x="103.333" y="9" dx="0">e</tspan><tspan x="108.333" y="9" dx="0">a</tspan><tspan x="113.333" y="9" dx="0">l</tspan><tspan x="115.667" y="9" dx="0"> </tspan><tspan x="117.667" y="9" dx="0">[</tspan><tspan x="120.667" y="9" dx="0">0</tspan><tspan x="126" y="9" dx="0">.</tspan><tspan x="128.333" y="9" dx="0">.</tspan><tspan x="130.667" y="9" dx="0">1</tspan><tspan x="136" y="9" dx="0">]</tspan></text><text stroke="none" fill="#2F4F4F" transform="translate(175 472)"><tspan x="0" y="9" dx="0">+</tspan></text><text stroke="none" fill="#2F4F4F" transform="translate(192 472)"><tspan x="0" y="9" dx="0">waardeInRegeltekst: CharacterString [0..1]</tspan></text><path d="M346 221 582 221M582 221 567 227M582 221 567 215"/><path d="M335 263 521 380M521 380 505 377M521 380 511 367"/><path d="M270 263 270 375M270 375 264 360M270 375 276 360"/><g transform="matrix(1 0 0 -1 278 268)"><rect x="0" y="-13" width="17" height="13" stroke="none" fill="#FFFFFF"/></g><text stroke="none" fill="#000000" transform="translate(278 268)"><tspan x="0" y="9" dx="0">0..1</tspan></text><g transform="matrix(1 0 0 -1 219 305)"><rect x="0" y="-13" width="107" height="13" stroke="none" fill="#FFFFFF"/></g><text stroke="none" fill="#000000" transform="translate(219 305)"><tspan x="0" y="9" dx="0">symboliseertNormwaarde</tspan></text><g transform="matrix(1 0 0 -1 242 322)"><rect x="0" y="-13" width="59" height="13" stroke="none" fill="#FFFFFF"/></g><text stroke="none" fill="#000000" transform="translate(242 322)"><tspan x="0" y="9" dx="0">«</tspan><tspan x="5" y="9" dx="0">R</tspan><tspan x="10.3333" y="9" dx="0">e</tspan><tspan x="15" y="9" dx="0">l</tspan><tspan x="17.3333" y="9" dx="0">a</tspan><tspan x="22" y="9" dx="0 0">ti</tspan><tspan x="27.6667" y="9" dx="0">e</tspan><tspan x="32.6667" y="9" dx="0">s</tspan><tspan x="36.3333" y="9" dx="0">o</tspan><tspan x="41.6667" y="9" dx="0">o</tspan><tspan x="47" y="9" dx="0">r</tspan><tspan x="50.3333" y="9" dx="0">t</tspan><tspan x="53.6667" y="9" dx="0">»</tspan></text><g transform="matrix(1 0 0 -1 149 337)"><rect x="0" y="-13" width="112" height="13" stroke="none" fill="#FFFFFF"/></g><text stroke="none" fill="#000000" transform="translate(149 337)"><tspan x="0" y="9" dx="0">+</tspan><tspan x="5.33333" y="9" dx="0">n</tspan><tspan x="11" y="9" dx="0">o</tspan><tspan x="16.6667" y="9" dx="0">r</tspan><tspan x="20" y="9" dx="0">m</tspan><tspan x="28.3333" y="9" dx="0">w</tspan><tspan x="36" y="9" dx="0">a</tspan><tspan x="41.3333" y="9" dx="0">a</tspan><tspan x="46.3333" y="9" dx="0">r</tspan><tspan x="49.6667" y="9" dx="0">d</tspan><tspan x="55" y="9" dx="0">e</tspan><tspan x="60" y="9" dx="0">S</tspan><tspan x="64.6667" y="9" dx="0">y</tspan><tspan x="69.3333" y="9" dx="0">m</tspan><tspan x="77.3333" y="9" dx="0">b</tspan><tspan x="82.6667" y="9" dx="0">o</tspan><tspan x="88" y="9" dx="0">l</tspan><tspan x="90.3333" y="9" dx="0">i</tspan><tspan x="92.6667" y="9" dx="0">s</tspan><tspan x="96.3333" y="9" dx="0">a</tspan><tspan x="101.333" y="9" dx="0 0">ti</tspan><tspan x="107" y="9" dx="0">e</tspan></text><g transform="matrix(1 0 0 -1 178 350)"><rect x="0" y="-13" width="49" height="13" stroke="none" fill="#FFFFFF"/></g><text stroke="none" fill="#000000" transform="translate(178 350)"><tspan x="0" y="9" dx="0">«</tspan><tspan x="5" y="9" dx="0">R</tspan><tspan x="10.3333" y="9" dx="0">e</tspan><tspan x="15" y="9" dx="0">l</tspan><tspan x="17.3333" y="9" dx="0">a</tspan><tspan x="22" y="9" dx="0 0">ti</tspan><tspan x="27.6667" y="9" dx="0">e</tspan><tspan x="32.6667" y="9" dx="0">r</tspan><tspan x="36" y="9" dx="0">o</tspan><tspan x="41.3333" y="9" dx="0">l</tspan><tspan x="43.6667" y="9" dx="0">»</tspan></text><g transform="matrix(1 0 0 -1 278 357)"><rect x="0" y="-13" width="17" height="13" stroke="none" fill="#FFFFFF"/></g><text stroke="none" fill="#000000" transform="translate(278 357)"><tspan x="0" y="9" dx="0">0..*</tspan></text><g transform="matrix(1 0 0 -1 343 268)"><rect x="0" y="-13" width="17" height="13" stroke="none" fill="#FFFFFF"/></g><text stroke="none" fill="#000000" transform="translate(343 268)"><tspan x="0" y="9" dx="0">0..1</tspan></text><g transform="matrix(1 0 0 -1 385 307)"><rect x="0" y="-13" width="90" height="13" stroke="none" fill="#FFFFFF"/></g><text stroke="none" fill="#000000" transform="translate(385 307)"><tspan x="0" y="9" dx="0">s</tspan><tspan x="3.66667" y="9" dx="0">y</tspan><tspan x="8.66667" y="9" dx="0">m</tspan><tspan x="17" y="9" dx="0">b</tspan><tspan x="22.6667" y="9" dx="0">o</tspan><tspan x="28" y="9" dx="0">l</tspan><tspan x="30.3333" y="9" dx="0">i</tspan><tspan x="32.6667" y="9" dx="0">s</tspan><tspan x="36.3333" y="9" dx="0">e</tspan><tspan x="41.3333" y="9" dx="0">e</tspan><tspan x="46.3333" y="9" dx="0">r</tspan><tspan x="49.6667" y="9" dx="0">t</tspan><tspan x="53" y="9" dx="0">A</tspan><tspan x="59" y="9" dx="0">c</tspan><tspan x="63.3333" y="9" dx="0 0">ti</tspan><tspan x="69" y="9" dx="0">v</tspan><tspan x="73.6667" y="9" dx="0">i</tspan><tspan x="76" y="9" dx="0">t</tspan><tspan x="79.3333" y="9" dx="0">e</tspan><tspan x="84.3333" y="9" dx="0">i</tspan><tspan x="86.6667" y="9" dx="0">t</tspan></text><g transform="matrix(1 0 0 -1 400 324)"><rect x="0" y="-13" width="59" height="13" stroke="none" fill="#FFFFFF"/></g><text stroke="none" fill="#000000" transform="translate(400 324)"><tspan x="0" y="9" dx="0">«</tspan><tspan x="5" y="9" dx="0">R</tspan><tspan x="10.3333" y="9" dx="0">e</tspan><tspan x="15" y="9" dx="0">l</tspan><tspan x="17.3333" y="9" dx="0">a</tspan><tspan x="22" y="9" dx="0 0">ti</tspan><tspan x="27.6667" y="9" dx="0">e</tspan><tspan x="32.6667" y="9" dx="0">s</tspan><tspan x="36.3333" y="9" dx="0">o</tspan><tspan x="41.6667" y="9" dx="0">o</tspan><tspan x="47" y="9" dx="0">r</tspan><tspan x="50.3333" y="9" dx="0">t</tspan><tspan x="53.6667" y="9" dx="0">»</tspan></text><g transform="matrix(1 0 0 -1 494 336)"><rect x="0" y="-13" width="169" height="13" stroke="none" fill="#FFFFFF"/></g><text stroke="none" fill="#000000" transform="translate(494 336)"><tspan x="0" y="9" dx="0">+</tspan><tspan x="5" y="9" dx="0">a</tspan><tspan x="10" y="9" dx="0">c</tspan><tspan x="14.3333" y="9" dx="0 0">ti</tspan><tspan x="20" y="9" dx="0">v</tspan><tspan x="24.6667" y="9" dx="0">i</tspan><tspan x="27" y="9" dx="0">t</tspan><tspan x="30.3333" y="9" dx="0">e</tspan><tspan x="35.3333" y="9" dx="0">i</tspan><tspan x="37.6667" y="9" dx="0">t</tspan><tspan x="41" y="9" dx="0">L</tspan><tspan x="45.3333" y="9" dx="0">o</tspan><tspan x="50.6667" y="9" dx="0">c</tspan><tspan x="55" y="9" dx="0">a</tspan><tspan x="60" y="9" dx="0 0">ti</tspan><tspan x="65.6667" y="9" dx="0">e</tspan><tspan x="70.6667" y="9" dx="0">a</tspan><tspan x="75.6667" y="9" dx="0">a</tspan><tspan x="80.6667" y="9" dx="0">n</tspan><tspan x="86" y="9" dx="0">d</tspan><tspan x="91.3333" y="9" dx="0">u</tspan><tspan x="96.6667" y="9" dx="0">i</tspan><tspan x="99" y="9" dx="0">d</tspan><tspan x="104.333" y="9" dx="0">i</tspan><tspan x="106.667" y="9" dx="0">n</tspan><tspan x="112" y="9" dx="0">g</tspan><tspan x="117" y="9" dx="0">S</tspan><tspan x="121.667" y="9" dx="0">y</tspan><tspan x="126.333" y="9" dx="0">m</tspan><tspan x="134.333" y="9" dx="0">b</tspan><tspan x="139.667" y="9" dx="0">o</tspan><tspan x="145" y="9" dx="0">l</tspan><tspan x="147.333" y="9" dx="0">i</tspan><tspan x="149.667" y="9" dx="0">s</tspan><tspan x="153.333" y="9" dx="0">a</tspan><tspan x="158.333" y="9" dx="0 0">ti</tspan><tspan x="164" y="9" dx="0">e</tspan></text><g transform="matrix(1 0 0 -1 494 349)"><rect x="0" y="-13" width="49" height="13" stroke="none" fill="#FFFFFF"/></g><text stroke="none" fill="#000000" transform="translate(494 349)"><tspan x="0" y="9" dx="0">«</tspan><tspan x="5" y="9" dx="0">R</tspan><tspan x="10.3333" y="9" dx="0">e</tspan><tspan x="15" y="9" dx="0">l</tspan><tspan x="17.3333" y="9" dx="0">a</tspan><tspan x="22" y="9" dx="0 0">ti</tspan><tspan x="27.6667" y="9" dx="0">e</tspan><tspan x="32.6667" y="9" dx="0">r</tspan><tspan x="36" y="9" dx="0">o</tspan><tspan x="41.3333" y="9" dx="0">l</tspan><tspan x="43.6667" y="9" dx="0">»</tspan></text><g transform="matrix(1 0 0 -1 529 362)"><rect x="0" y="-13" width="17" height="13" stroke="none" fill="#FFFFFF"/></g><text stroke="none" fill="#000000" transform="translate(529 362)"><tspan x="0" y="9" dx="0">0..*</tspan></text><g transform="matrix(1 0 0 -1 349 226)"><rect x="0" y="-13" width="17" height="13" stroke="none" fill="#FFFFFF"/></g><text stroke="none" fill="#000000" transform="translate(349 226)"><tspan x="0" y="9" dx="0">0..1</tspan></text><g transform="matrix(1 0 0 -1 402 207)"><rect x="0" y="-13" width="130" height="13" stroke="none" fill="#FFFFFF"/></g><text stroke="none" fill="#000000" transform="translate(402 207)"><tspan x="0" y="9" dx="0">symboliseertGebiedsaanwijzing</tspan></text><g transform="matrix(1 0 0 -1 436 224)"><rect x="0" y="-13" width="59" height="13" stroke="none" fill="#FFFFFF"/></g><text stroke="none" fill="#000000" transform="translate(436 224)"><tspan x="0" y="9" dx="0">«</tspan><tspan x="5" y="9" dx="0">R</tspan><tspan x="10.3333" y="9" dx="0">e</tspan><tspan x="15" y="9" dx="0">l</tspan><tspan x="17.3333" y="9" dx="0">a</tspan><tspan x="22" y="9" dx="0 0">ti</tspan><tspan x="27.6667" y="9" dx="0">e</tspan><tspan x="32.6667" y="9" dx="0">s</tspan><tspan x="36.3333" y="9" dx="0">o</tspan><tspan x="41.6667" y="9" dx="0">o</tspan><tspan x="47" y="9" dx="0">r</tspan><tspan x="50.3333" y="9" dx="0">t</tspan><tspan x="53.6667" y="9" dx="0">»</tspan></text><g transform="matrix(1 0 0 -1 437 236)"><rect x="0" y="-13" width="135" height="13" stroke="none" fill="#FFFFFF"/></g><text stroke="none" fill="#000000" transform="translate(437 236)"><tspan x="0" y="9" dx="0">+</tspan><tspan x="5.33333" y="9" dx="0">g</tspan><tspan x="10.6667" y="9" dx="0">e</tspan><tspan x="16" y="9" dx="0">b</tspan><tspan x="21.6667" y="9" dx="0">i</tspan><tspan x="24" y="9" dx="0">e</tspan><tspan x="29.3333" y="9" dx="0">d</tspan><tspan x="35" y="9" dx="0">s</tspan><tspan x="38.6667" y="9" dx="0">a</tspan><tspan x="44" y="9" dx="0">a</tspan><tspan x="49.3333" y="9" dx="0">n</tspan><tspan x="54.6667" y="9" dx="0">w</tspan><tspan x="62" y="9" dx="0">i</tspan><tspan x="64.3333" y="9" dx="0">j</tspan><tspan x="66.6667" y="9" dx="0">z</tspan><tspan x="70.3333" y="9" dx="0">i</tspan><tspan x="72.6667" y="9" dx="0">n</tspan><tspan x="78" y="9" dx="0">g</tspan><tspan x="83" y="9" dx="0">S</tspan><tspan x="87.6667" y="9" dx="0">y</tspan><tspan x="92.3333" y="9" dx="0">m</tspan><tspan x="100.333" y="9" dx="0">b</tspan><tspan x="105.667" y="9" dx="0">o</tspan><tspan x="111" y="9" dx="0">l</tspan><tspan x="113.333" y="9" dx="0">i</tspan><tspan x="115.667" y="9" dx="0">s</tspan><tspan x="119.333" y="9" dx="0">a</tspan><tspan x="124.333" y="9" dx="0 0">ti</tspan><tspan x="130" y="9" dx="0">e</tspan></text><g transform="matrix(1 0 0 -1 523 249)"><rect x="0" y="-13" width="49" height="13" stroke="none" fill="#FFFFFF"/></g><text stroke="none" fill="#000000" transform="translate(523 249)"><tspan x="0" y="9" dx="0">«</tspan><tspan x="5" y="9" dx="0">R</tspan><tspan x="10.3333" y="9" dx="0">e</tspan><tspan x="15" y="9" dx="0">l</tspan><tspan x="17.3333" y="9" dx="0">a</tspan><tspan x="22" y="9" dx="0 0">ti</tspan><tspan x="27.6667" y="9" dx="0">e</tspan><tspan x="32.6667" y="9" dx="0">r</tspan><tspan x="36" y="9" dx="0">o</tspan><tspan x="41.3333" y="9" dx="0">l</tspan><tspan x="43.6667" y="9" dx="0">»</tspan></text><g transform="matrix(1 0 0 -1 563 226)"><rect x="0" y="-13" width="17" height="13" stroke="none" fill="#FFFFFF"/></g><text stroke="none" fill="#000000" transform="translate(563 226)"><tspan x="0" y="9" dx="0">0..*</tspan></text></g></g></g></g></svg>