<svg width="1169.84" height="916.327" viewBox="71.6737 34.4434 877.378 687.245" xmlns="http://www.w3.org/2000/svg" xmlns:xlink="http://www.w3.org/1999/xlink" overflow="hidden"><g transform="matrix(1 0 0 -1 0 816)"><g stroke="#000000" stroke-linecap="round" stroke-linejoin="round" stroke-miterlimit="3" fill="none" fill-rule="evenodd" font-weight="400" baseline-shift="0"><g transform="matrix(0.75 0 0 0.75 0 816.45)"><g font-family="CalibriUnicode" font-size="14" transform="scale(1.00218 -1.00336)"><rect x="106" y="57" width="1146" height="892" stroke="#9A8484"/><rect x="546" y="343" width="306" height="164" stroke="none" fill="#D0D0D0"/><rect x="543" y="340" width="305" height="163" stroke="none" stroke-width="2" fill="#CCFFFF"/><rect x="543" y="340" width="305" height="164" stroke="#9A8484" stroke-width="2"/><rect x="543" y="340" width="305" height="163" stroke="#9A8484" stroke-width="2"/><text stroke="none" fill="#000000" transform="translate(658 346)"><tspan x="0" y="13" dx="0">«</tspan><tspan x="7" y="13" dx="0">O</tspan><tspan x="17" y="13" dx="0">b</tspan><tspan x="24" y="13" dx="0">j</tspan><tspan x="28" y="13" dx="0">e</tspan><tspan x="34" y="13" dx="0">c</tspan><tspan x="41" y="13" dx="0 0">tt</tspan><tspan x="49" y="13" dx="0">y</tspan><tspan x="55" y="13" dx="0">p</tspan><tspan x="63" y="13" dx="0">e</tspan><tspan x="69" y="13" dx="0">»</tspan></text><text stroke="none" fill="#000000" font-weight="700" transform="translate(652 363)"><tspan x="0" y="13" dx="0">Juridische regel</tspan></text><path d="M543 385 848 385" stroke="#9A8484" stroke-width="2"/><text stroke="none" fill="#000000" transform="translate(557 393)"><tspan x="0" y="13" dx="0">«</tspan><tspan x="7" y="13" dx="0">A</tspan><tspan x="15" y="13" dx="0 0">tt</tspan><tspan x="23" y="13" dx="0">r</tspan><tspan x="28" y="13" dx="0">i</tspan><tspan x="32" y="13" dx="0">b</tspan><tspan x="40" y="13" dx="0">u</tspan><tspan x="47" y="13" dx="0">u</tspan><tspan x="54" y="13" dx="0">t</tspan><tspan x="58" y="13" dx="0">s</tspan><tspan x="65" y="13" dx="0">o</tspan><tspan x="72" y="13" dx="0">o</tspan><tspan x="79" y="13" dx="0">r</tspan><tspan x="84" y="13" dx="0">t</tspan><tspan x="89" y="13" dx="0">»</tspan></text><text stroke="none" fill="#66413F" transform="translate(548 410)"><tspan x="0" y="13" dx="0">+</tspan></text><text stroke="none" fill="#66413F" transform="translate(572 410)"><tspan x="0" y="13" dx="0">i</tspan><tspan x="4" y="13" dx="0">d</tspan><tspan x="11" y="13" dx="0">e</tspan><tspan x="18" y="13" dx="0">n</tspan><tspan x="25" y="13" dx="0 0">ti</tspan><tspan x="33" y="13" dx="0 0">fi</tspan><tspan x="42" y="13" dx="0">c</tspan><tspan x="48" y="13" dx="0">a</tspan><tspan x="55" y="13" dx="0 0">ti</tspan><tspan x="64" y="13" dx="0">e</tspan><tspan x="70" y="13" dx="0">:</tspan><tspan x="73" y="13" dx="0"> </tspan><tspan x="76" y="13" dx="0">I</tspan><tspan x="80" y="13" dx="0">d</tspan><tspan x="88" y="13" dx="0">e</tspan><tspan x="94" y="13" dx="0">n</tspan><tspan x="101" y="13" dx="0 0">ti</tspan><tspan x="109" y="13" dx="0 0">fi</tspan><tspan x="118" y="13" dx="0">c</tspan><tspan x="124" y="13" dx="0">a</tspan><tspan x="131" y="13" dx="0 0">ti</tspan><tspan x="140" y="13" dx="0">e</tspan></text><text stroke="none" fill="#66413F" transform="translate(548 427)"><tspan x="0" y="13" dx="0">+</tspan></text><text stroke="none" fill="#66413F" transform="translate(572 427)"><tspan x="0" y="13" dx="0">i</tspan><tspan x="4" y="13" dx="0">d</tspan><tspan x="11" y="13" dx="0">e</tspan><tspan x="18" y="13" dx="0">a</tspan><tspan x="25" y="13" dx="0">l</tspan><tspan x="29" y="13" dx="0">i</tspan><tspan x="33" y="13" dx="0">s</tspan><tspan x="40" y="13" dx="0">a</tspan><tspan x="47" y="13" dx="0 0">ti</tspan><tspan x="55" y="13" dx="0">e</tspan><tspan x="62" y="13" dx="0">:</tspan><tspan x="65" y="13" dx="0"> </tspan><tspan x="68" y="13" dx="0">I</tspan><tspan x="72" y="13" dx="0">d</tspan><tspan x="79" y="13" dx="0">e</tspan><tspan x="86" y="13" dx="0">a</tspan><tspan x="93" y="13" dx="0">l</tspan><tspan x="97" y="13" dx="0">i</tspan><tspan x="101" y="13" dx="0">s</tspan><tspan x="107" y="13" dx="0">a</tspan><tspan x="115" y="13" dx="0 0">ti</tspan><tspan x="123" y="13" dx="0">e</tspan></text><text stroke="none" fill="#66413F" transform="translate(548 444)"><tspan x="0" y="13" dx="0">+</tspan></text><text stroke="none" fill="#66413F" transform="translate(572 444)"><tspan x="0" y="13" dx="0">omschrijving: CharacterString</tspan></text><text stroke="none" fill="#66413F" transform="translate(548 461)"><tspan x="0" y="13" dx="0">+</tspan></text><text stroke="none" fill="#66413F" transform="translate(572 461)"><tspan x="0" y="13" dx="0">thema: Thema [0..*]</tspan></text><rect x="498" y="83" width="401" height="209" stroke="none" fill="#D0D0D0"/><rect x="495" y="80" width="400" height="208" stroke="none" fill="#99CCFF"/><rect x="495" y="80" width="400" height="209"/><rect x="495" y="80" width="400" height="208"/><text stroke="none" fill="#000000" transform="translate(657 86)"><tspan x="0" y="13" dx="0">«</tspan><tspan x="7" y="13" dx="0">O</tspan><tspan x="17" y="13" dx="0">b</tspan><tspan x="24" y="13" dx="0">j</tspan><tspan x="28" y="13" dx="0">e</tspan><tspan x="34" y="13" dx="0">c</tspan><tspan x="41" y="13" dx="0 0">tt</tspan><tspan x="49" y="13" dx="0">y</tspan><tspan x="55" y="13" dx="0">p</tspan><tspan x="63" y="13" dx="0">e</tspan><tspan x="69" y="13" dx="0">»</tspan></text><text stroke="none" fill="#000000" font-weight="700" transform="translate(665 103)"><tspan x="0" y="13" dx="0">Regeltekst</tspan></text><path d="M495 125 895 125"/><text stroke="none" fill="#000000" transform="translate(509 133)"><tspan x="0" y="13" dx="0">«</tspan><tspan x="7" y="13" dx="0">A</tspan><tspan x="15" y="13" dx="0 0">tt</tspan><tspan x="23" y="13" dx="0">r</tspan><tspan x="28" y="13" dx="0">i</tspan><tspan x="32" y="13" dx="0">b</tspan><tspan x="40" y="13" dx="0">u</tspan><tspan x="47" y="13" dx="0">u</tspan><tspan x="54" y="13" dx="0">t</tspan><tspan x="58" y="13" dx="0">s</tspan><tspan x="65" y="13" dx="0">o</tspan><tspan x="72" y="13" dx="0">o</tspan><tspan x="79" y="13" dx="0">r</tspan><tspan x="84" y="13" dx="0">t</tspan><tspan x="89" y="13" dx="0">»</tspan></text><text stroke="none" fill="#66413F" transform="translate(500 150)"><tspan x="0" y="13" dx="0">+</tspan></text><text stroke="none" fill="#66413F" transform="translate(524 150)"><tspan x="0" y="13" dx="0">i</tspan><tspan x="4" y="13" dx="0">d</tspan><tspan x="11" y="13" dx="0">e</tspan><tspan x="18" y="13" dx="0">n</tspan><tspan x="25" y="13" dx="0 0">ti</tspan><tspan x="33" y="13" dx="0 0">fi</tspan><tspan x="42" y="13" dx="0">c</tspan><tspan x="48" y="13" dx="0">a</tspan><tspan x="55" y="13" dx="0 0">ti</tspan><tspan x="64" y="13" dx="0">e</tspan><tspan x="70" y="13" dx="0">:</tspan><tspan x="73" y="13" dx="0"> </tspan><tspan x="76" y="13" dx="0">I</tspan><tspan x="80" y="13" dx="0">d</tspan><tspan x="88" y="13" dx="0">e</tspan><tspan x="94" y="13" dx="0">n</tspan><tspan x="101" y="13" dx="0 0">ti</tspan><tspan x="109" y="13" dx="0 0">fi</tspan><tspan x="118" y="13" dx="0">c</tspan><tspan x="124" y="13" dx="0">a</tspan><tspan x="131" y="13" dx="0 0">ti</tspan><tspan x="140" y="13" dx="0">e</tspan><tspan x="146" y="13" dx="0"> </tspan><tspan x="149" y="13" dx="0">{</tspan><tspan x="153" y="13" dx="0">i</tspan><tspan x="157" y="13" dx="0">d</tspan><tspan x="165" y="13" dx="0">}</tspan></text><text stroke="none" fill="#66413F" transform="translate(500 167)"><tspan x="0" y="13" dx="0">+</tspan></text><text stroke="none" fill="#66413F" transform="translate(524 167)"><tspan x="0" y="13" dx="0">omschrijving: CharacterString</tspan></text><text stroke="none" fill="#66413F" transform="translate(500 184)"><tspan x="0" y="13" dx="0">+</tspan></text><text stroke="none" fill="#66413F" transform="translate(524 184)"><tspan x="0" y="13" dx="0">thema: Thema [0..*]</tspan></text><path d="M495 205 895 205"/><text stroke="none" fill="#000000" font-style="italic" transform="translate(664 209)"><tspan x="0" y="13" dx="0">constraints</tspan></text><text stroke="none" fill="#000000" transform="translate(500 226)"><tspan x="0" y="13" dx="0">{één type Juridische regel per Regeltekst}</tspan></text><text stroke="none" fill="#000000" transform="translate(500 243)"><tspan x="0" y="13" dx="0">{</tspan><tspan x="4" y="13" dx="0">i</tspan><tspan x="8" y="13" dx="0">n</tspan><tspan x="16" y="13" dx="0">d</tspan><tspan x="23" y="13" dx="0">i</tspan><tspan x="27" y="13" dx="0">e</tspan><tspan x="33" y="13" dx="0">n</tspan><tspan x="41" y="13" dx="0"> </tspan><tspan x="44" y="13" dx="0">A</tspan><tspan x="51" y="13" dx="0">r</tspan><tspan x="56" y="13" dx="0 0">ti</tspan><tspan x="65" y="13" dx="0">k</tspan><tspan x="71" y="13" dx="0">e</tspan><tspan x="77" y="13" dx="0">l</tspan><tspan x="81" y="13" dx="0"> </tspan><tspan x="84" y="13" dx="0">i</tspan><tspan x="89" y="13" dx="0">s</tspan><tspan x="95" y="13" dx="0"> </tspan><tspan x="98" y="13" dx="0">o</tspan><tspan x="105" y="13" dx="0">n</tspan><tspan x="113" y="13" dx="0">d</tspan><tspan x="120" y="13" dx="0">e</tspan><tspan x="126" y="13" dx="0">r</tspan><tspan x="131" y="13" dx="0">v</tspan><tspan x="138" y="13" dx="0">e</tspan><tspan x="144" y="13" dx="0">r</tspan><tspan x="149" y="13" dx="0">d</tspan><tspan x="156" y="13" dx="0">e</tspan><tspan x="163" y="13" dx="0">e</tspan><tspan x="169" y="13" dx="0">l</tspan><tspan x="173" y="13" dx="0">d</tspan><tspan x="180" y="13" dx="0"> </tspan><tspan x="184" y="13" dx="0">i</tspan><tspan x="188" y="13" dx="0">n</tspan><tspan x="195" y="13" dx="0"> </tspan><tspan x="198" y="13" dx="0">L</tspan><tspan x="203" y="13" dx="0">e</tspan><tspan x="210" y="13" dx="0">d</tspan><tspan x="217" y="13" dx="0">e</tspan><tspan x="223" y="13" dx="0">n</tspan><tspan x="230" y="13" dx="0">,</tspan><tspan x="234" y="13" dx="0"> </tspan><tspan x="237" y="13" dx="0">a</tspan><tspan x="244" y="13" dx="0">n</tspan><tspan x="251" y="13" dx="0">n</tspan><tspan x="259" y="13" dx="0">o</tspan><tspan x="266" y="13" dx="0">t</tspan><tspan x="270" y="13" dx="0">a</tspan><tspan x="277" y="13" dx="0 0">ti</tspan><tspan x="286" y="13" dx="0">e</tspan><tspan x="292" y="13" dx="0">s</tspan><tspan x="298" y="13" dx="0"> </tspan><tspan x="301" y="13" dx="0">a</tspan><tspan x="309" y="13" dx="0">l</tspan><tspan x="313" y="13" dx="0">l</tspan><tspan x="317" y="13" dx="0">e</tspan><tspan x="323" y="13" dx="0">e</tspan><tspan x="330" y="13" dx="0">n</tspan><tspan x="337" y="13" dx="0"> </tspan><tspan x="340" y="13" dx="0">o</tspan><tspan x="347" y="13" dx="0">p</tspan><tspan x="355" y="13" dx="0"> </tspan><tspan x="358" y="13" dx="0">L</tspan><tspan x="363" y="13" dx="0">e</tspan></text><text stroke="none" fill="#000000" transform="translate(869 243)"><tspan x="0" y="13" dx="0">den}</tspan></text><rect x="651" y="826" width="147" height="90" stroke="none" fill="#D0D0D0"/><rect x="648" y="823" width="146" height="89" stroke="none" stroke-width="2" fill="#FFE4E1"/><rect x="648" y="823" width="146" height="90" stroke="#C0C0C0" stroke-width="2"/><rect x="648" y="823" width="146" height="89" stroke="#C0C0C0" stroke-width="2"/><text stroke="none" fill="#000000" transform="translate(683 829)"><tspan x="0" y="13" dx="0">«</tspan><tspan x="7" y="13" dx="0">O</tspan><tspan x="17" y="13" dx="0">b</tspan><tspan x="24" y="13" dx="0">j</tspan><tspan x="28" y="13" dx="0">e</tspan><tspan x="34" y="13" dx="0">c</tspan><tspan x="41" y="13" dx="0 0">tt</tspan><tspan x="49" y="13" dx="0">y</tspan><tspan x="55" y="13" dx="0">p</tspan><tspan x="63" y="13" dx="0">e</tspan><tspan x="69" y="13" dx="0">»</tspan></text><text stroke="none" fill="#000000" font-style="italic" font-weight="700" transform="translate(701 846)"><tspan x="0" y="13" dx="0">L</tspan><tspan x="6" y="13" dx="0">o</tspan><tspan x="14" y="13" dx="0">c</tspan><tspan x="19" y="13" dx="0">a</tspan><tspan x="26" y="13" dx="0 0">ti</tspan><tspan x="34" y="13" dx="0">e</tspan></text><rect x="526" y="587" width="353" height="156" stroke="none" fill="#D0D0D0"/><rect x="523" y="584" width="352" height="155" stroke="none" fill="#CCFFFF"/><rect x="523" y="584" width="352" height="156"/><rect x="523" y="584" width="352" height="155"/><text stroke="none" fill="#000000" transform="translate(661 590)"><tspan x="0" y="13" dx="0">«</tspan><tspan x="7" y="13" dx="0">O</tspan><tspan x="17" y="13" dx="0">b</tspan><tspan x="24" y="13" dx="0">j</tspan><tspan x="28" y="13" dx="0">e</tspan><tspan x="34" y="13" dx="0">c</tspan><tspan x="41" y="13" dx="0 0">tt</tspan><tspan x="49" y="13" dx="0">y</tspan><tspan x="55" y="13" dx="0">p</tspan><tspan x="63" y="13" dx="0">e</tspan><tspan x="69" y="13" dx="0">»</tspan></text><text stroke="none" fill="#000000" font-weight="700" transform="translate(658 607)"><tspan x="0" y="13" dx="0">I</tspan><tspan x="3" y="13" dx="0">n</tspan><tspan x="10" y="13" dx="0">s</tspan><tspan x="16" y="13" dx="0">t</tspan><tspan x="21" y="13" dx="0">r</tspan><tspan x="26" y="13" dx="0">u</tspan><tspan x="33" y="13" dx="0">c</tspan><tspan x="39" y="13" dx="0 0">ti</tspan><tspan x="47" y="13" dx="0">e</tspan><tspan x="54" y="13" dx="0">r</tspan><tspan x="59" y="13" dx="0">e</tspan><tspan x="67" y="13" dx="0">g</tspan><tspan x="73" y="13" dx="0">e</tspan><tspan x="80" y="13" dx="0">l</tspan></text><path d="M523 629 875 629"/><text stroke="none" fill="#000000" transform="translate(537 637)"><tspan x="0" y="13" dx="0">«</tspan><tspan x="7" y="13" dx="0">A</tspan><tspan x="15" y="13" dx="0 0">tt</tspan><tspan x="23" y="13" dx="0">r</tspan><tspan x="28" y="13" dx="0">i</tspan><tspan x="32" y="13" dx="0">b</tspan><tspan x="40" y="13" dx="0">u</tspan><tspan x="47" y="13" dx="0">u</tspan><tspan x="54" y="13" dx="0">t</tspan><tspan x="58" y="13" dx="0">s</tspan><tspan x="65" y="13" dx="0">o</tspan><tspan x="72" y="13" dx="0">o</tspan><tspan x="79" y="13" dx="0">r</tspan><tspan x="84" y="13" dx="0">t</tspan><tspan x="89" y="13" dx="0">»</tspan></text><text stroke="none" fill="#66413F" transform="translate(528 654)"><tspan x="0" y="13" dx="0">+</tspan></text><text stroke="none" fill="#66413F" transform="translate(552 654)"><tspan x="0" y="13" dx="0">i</tspan><tspan x="4" y="13" dx="0">n</tspan><tspan x="11" y="13" dx="0">s</tspan><tspan x="18" y="13" dx="0">t</tspan><tspan x="22" y="13" dx="0">r</tspan><tspan x="27" y="13" dx="0">u</tspan><tspan x="34" y="13" dx="0">c</tspan><tspan x="41" y="13" dx="0 0">ti</tspan><tspan x="49" y="13" dx="0">e</tspan><tspan x="55" y="13" dx="0">r</tspan><tspan x="60" y="13" dx="0">e</tspan><tspan x="67" y="13" dx="0">g</tspan><tspan x="73" y="13" dx="0">e</tspan><tspan x="79" y="13" dx="0">l</tspan><tspan x="83" y="13" dx="0">I</tspan><tspan x="88" y="13" dx="0">n</tspan><tspan x="95" y="13" dx="0">s</tspan><tspan x="101" y="13" dx="0">t</tspan><tspan x="105" y="13" dx="0">r</tspan><tspan x="111" y="13" dx="0">u</tspan><tspan x="118" y="13" dx="0">m</tspan><tspan x="128" y="13" dx="0">e</tspan><tspan x="135" y="13" dx="0">n</tspan><tspan x="142" y="13" dx="0">t</tspan><tspan x="146" y="13" dx="0">:</tspan><tspan x="149" y="13" dx="0"> </tspan><tspan x="152" y="13" dx="0">I</tspan><tspan x="156" y="13" dx="0">n</tspan><tspan x="164" y="13" dx="0">s</tspan><tspan x="170" y="13" dx="0">t</tspan><tspan x="174" y="13" dx="0">r</tspan><tspan x="179" y="13" dx="0">u</tspan><tspan x="187" y="13" dx="0">m</tspan><tspan x="197" y="13" dx="0">e</tspan><tspan x="203" y="13" dx="0">n</tspan><tspan x="211" y="13" dx="0">t</tspan><tspan x="215" y="13" dx="0"> </tspan><tspan x="218" y="13" dx="0">[</tspan><tspan x="222" y="13" dx="0">0</tspan><tspan x="229" y="13" dx="0">.</tspan><tspan x="233" y="13" dx="0">.</tspan><tspan x="236" y="13" dx="0">*</tspan><tspan x="242" y="13" dx="0">]</tspan></text><text stroke="none" fill="#66413F" transform="translate(528 671)"><tspan x="0" y="13" dx="0">+</tspan></text><text stroke="none" fill="#66413F" transform="translate(552 671)"><tspan x="0" y="13" dx="0">i</tspan><tspan x="4" y="13" dx="0">n</tspan><tspan x="11" y="13" dx="0">s</tspan><tspan x="18" y="13" dx="0">t</tspan><tspan x="22" y="13" dx="0">r</tspan><tspan x="27" y="13" dx="0">u</tspan><tspan x="34" y="13" dx="0">c</tspan><tspan x="41" y="13" dx="0 0">ti</tspan><tspan x="49" y="13" dx="0">e</tspan><tspan x="55" y="13" dx="0">r</tspan><tspan x="60" y="13" dx="0">e</tspan><tspan x="67" y="13" dx="0">g</tspan><tspan x="73" y="13" dx="0">e</tspan><tspan x="79" y="13" dx="0">l</tspan><tspan x="83" y="13" dx="0">T</tspan><tspan x="90" y="13" dx="0">a</tspan><tspan x="97" y="13" dx="0">a</tspan><tspan x="104" y="13" dx="0">k</tspan><tspan x="111" y="13" dx="0">u</tspan><tspan x="118" y="13" dx="0">i</tspan><tspan x="122" y="13" dx="0">t</tspan><tspan x="126" y="13" dx="0">o</tspan><tspan x="133" y="13" dx="0">e</tspan><tspan x="140" y="13" dx="0">f</tspan><tspan x="144" y="13" dx="0">e</tspan><tspan x="150" y="13" dx="0">n</tspan><tspan x="157" y="13" dx="0">i</tspan><tspan x="162" y="13" dx="0">n</tspan><tspan x="169" y="13" dx="0">g</tspan><tspan x="175" y="13" dx="0">:</tspan><tspan x="178" y="13" dx="0"> </tspan><tspan x="181" y="13" dx="0">A</tspan><tspan x="189" y="13" dx="0">d</tspan><tspan x="196" y="13" dx="0">r</tspan><tspan x="201" y="13" dx="0">e</tspan><tspan x="208" y="13" dx="0">s</tspan><tspan x="214" y="13" dx="0">s</tspan><tspan x="220" y="13" dx="0">a</tspan><tspan x="227" y="13" dx="0">a</tspan><tspan x="235" y="13" dx="0">t</tspan><tspan x="239" y="13" dx="0"> </tspan><tspan x="242" y="13" dx="0">[</tspan><tspan x="246" y="13" dx="0">0</tspan><tspan x="253" y="13" dx="0">.</tspan><tspan x="257" y="13" dx="0">.</tspan><tspan x="260" y="13" dx="0">*</tspan><tspan x="266" y="13" dx="0">]</tspan></text><path d="M523 692 875 692"/><text stroke="none" fill="#000000" font-style="italic" transform="translate(668 696)"><tspan x="0" y="13" dx="0">constraints</tspan></text><text stroke="none" fill="#000000" transform="translate(528 713)"><tspan x="0" y="13" dx="0">{</tspan><tspan x="4" y="13" dx="0">i</tspan><tspan x="8" y="13" dx="0">n</tspan><tspan x="16" y="13" dx="0">s</tspan><tspan x="22" y="13" dx="0">t</tspan><tspan x="26" y="13" dx="0">r</tspan><tspan x="31" y="13" dx="0">u</tspan><tspan x="39" y="13" dx="0">c</tspan><tspan x="45" y="13" dx="0 0">ti</tspan><tspan x="53" y="13" dx="0">e</tspan><tspan x="59" y="13" dx="0">r</tspan><tspan x="65" y="13" dx="0">e</tspan><tspan x="71" y="13" dx="0">g</tspan><tspan x="77" y="13" dx="0">e</tspan><tspan x="83" y="13" dx="0">l</tspan><tspan x="88" y="13" dx="0">I</tspan><tspan x="92" y="13" dx="0">n</tspan><tspan x="99" y="13" dx="0">s</tspan><tspan x="105" y="13" dx="0">t</tspan><tspan x="109" y="13" dx="0">r</tspan><tspan x="115" y="13" dx="0">u</tspan><tspan x="122" y="13" dx="0">m</tspan><tspan x="132" y="13" dx="0">e</tspan><tspan x="139" y="13" dx="0">n</tspan><tspan x="146" y="13" dx="0">t</tspan><tspan x="150" y="13" dx="0"> </tspan><tspan x="153" y="13" dx="0">o</tspan><tspan x="161" y="13" dx="0">f</tspan><tspan x="165" y="13" dx="0"> </tspan><tspan x="168" y="13" dx="0">i</tspan><tspan x="172" y="13" dx="0">n</tspan><tspan x="179" y="13" dx="0">s</tspan><tspan x="186" y="13" dx="0">t</tspan><tspan x="190" y="13" dx="0">r</tspan><tspan x="195" y="13" dx="0">u</tspan><tspan x="202" y="13" dx="0">c</tspan><tspan x="209" y="13" dx="0 0">ti</tspan><tspan x="217" y="13" dx="0">e</tspan><tspan x="223" y="13" dx="0">r</tspan><tspan x="228" y="13" dx="0">e</tspan><tspan x="235" y="13" dx="0">g</tspan><tspan x="241" y="13" dx="0">e</tspan><tspan x="247" y="13" dx="0">l</tspan><tspan x="251" y="13" dx="0">T</tspan><tspan x="258" y="13" dx="0">a</tspan><tspan x="265" y="13" dx="0">a</tspan><tspan x="272" y="13" dx="0">k</tspan><tspan x="278" y="13" dx="0">u</tspan><tspan x="286" y="13" dx="0">i</tspan><tspan x="290" y="13" dx="0">t</tspan><tspan x="294" y="13" dx="0">o</tspan><tspan x="301" y="13" dx="0">e</tspan><tspan x="308" y="13" dx="0">f</tspan></text><text stroke="none" fill="#000000" transform="translate(840 713)"><tspan x="0" y="13" dx="0">ening}</tspan></text><rect x="135" y="586" width="354" height="97" stroke="none" fill="#D0D0D0"/><rect x="132" y="583" width="353" height="96" stroke="none" fill="#CCFFFF"/><rect x="132" y="583" width="353" height="97"/><rect x="132" y="583" width="353" height="96"/><text stroke="none" fill="#000000" transform="translate(271 589)"><tspan x="0" y="13" dx="0">«</tspan><tspan x="7" y="13" dx="0">O</tspan><tspan x="17" y="13" dx="0">b</tspan><tspan x="24" y="13" dx="0">j</tspan><tspan x="28" y="13" dx="0">e</tspan><tspan x="34" y="13" dx="0">c</tspan><tspan x="41" y="13" dx="0 0">tt</tspan><tspan x="49" y="13" dx="0">y</tspan><tspan x="55" y="13" dx="0">p</tspan><tspan x="63" y="13" dx="0">e</tspan><tspan x="69" y="13" dx="0">»</tspan></text><text stroke="none" fill="#000000" font-weight="700" transform="translate(251 606)"><tspan x="0" y="13" dx="0">Regel voor iedereen</tspan></text><path d="M132 628 485 628"/><text stroke="none" fill="#000000" transform="translate(146 636)"><tspan x="0" y="13" dx="0">«Gegevensgroep»</tspan></text><text stroke="none" fill="#66413F" transform="translate(137 653)"><tspan x="0" y="13" dx="0">+</tspan></text><text stroke="none" fill="#66413F" transform="translate(161 653)"><tspan x="0" y="13" dx="0">n</tspan><tspan x="7" y="13" dx="0">o</tspan><tspan x="15" y="13" dx="0">r</tspan><tspan x="20" y="13" dx="0">m</tspan><tspan x="30" y="13" dx="0">e</tspan><tspan x="36" y="13" dx="0">e</tspan><tspan x="43" y="13" dx="0">r</tspan><tspan x="48" y="13" dx="0">t</tspan><tspan x="52" y="13" dx="0">E</tspan><tspan x="58" y="13" dx="0">e</tspan><tspan x="65" y="13" dx="0">n</tspan><tspan x="72" y="13" dx="0">A</tspan><tspan x="79" y="13" dx="0">c</tspan><tspan x="86" y="13" dx="0 0">ti</tspan><tspan x="94" y="13" dx="0">v</tspan><tspan x="100" y="13" dx="0">i</tspan><tspan x="104" y="13" dx="0">t</tspan><tspan x="108" y="13" dx="0">e</tspan><tspan x="115" y="13" dx="0">i</tspan><tspan x="119" y="13" dx="0">t</tspan><tspan x="123" y="13" dx="0">:</tspan><tspan x="126" y="13" dx="0"> </tspan><tspan x="129" y="13" dx="0">A</tspan><tspan x="137" y="13" dx="0">c</tspan><tspan x="143" y="13" dx="0 0">ti</tspan><tspan x="151" y="13" dx="0">v</tspan><tspan x="157" y="13" dx="0">i</tspan><tspan x="162" y="13" dx="0">t</tspan><tspan x="166" y="13" dx="0">e</tspan><tspan x="172" y="13" dx="0">i</tspan><tspan x="176" y="13" dx="0">t</tspan><tspan x="180" y="13" dx="0">L</tspan><tspan x="186" y="13" dx="0">o</tspan><tspan x="193" y="13" dx="0">c</tspan><tspan x="199" y="13" dx="0">a</tspan><tspan x="206" y="13" dx="0 0">ti</tspan><tspan x="215" y="13" dx="0">e</tspan><tspan x="221" y="13" dx="0">a</tspan><tspan x="228" y="13" dx="0">a</tspan><tspan x="236" y="13" dx="0">n</tspan><tspan x="243" y="13" dx="0">d</tspan><tspan x="250" y="13" dx="0">u</tspan><tspan x="258" y="13" dx="0">i</tspan><tspan x="262" y="13" dx="0">d</tspan><tspan x="269" y="13" dx="0">i</tspan><tspan x="273" y="13" dx="0">n</tspan><tspan x="281" y="13" dx="0">g</tspan><tspan x="287" y="13" dx="0"> </tspan><tspan x="290" y="13" dx="0">[</tspan><tspan x="294" y="13" dx="0">0</tspan><tspan x="301" y="13" dx="0">.</tspan><tspan x="304" y="13" dx="0">.</tspan><tspan x="308" y="13" dx="0">*</tspan><tspan x="314" y="13" dx="0">]</tspan></text><rect x="927" y="586" width="194" height="89" stroke="none" fill="#D0D0D0"/><rect x="924" y="583" width="193" height="88" stroke="none" fill="#CCFFFF"/><rect x="924" y="583" width="193" height="89"/><rect x="924" y="583" width="193" height="88"/><text stroke="none" fill="#000000" transform="translate(983 589)"><tspan x="0" y="13" dx="0">«</tspan><tspan x="7" y="13" dx="0">O</tspan><tspan x="17" y="13" dx="0">b</tspan><tspan x="24" y="13" dx="0">j</tspan><tspan x="28" y="13" dx="0">e</tspan><tspan x="34" y="13" dx="0">c</tspan><tspan x="41" y="13" dx="0 0">tt</tspan><tspan x="49" y="13" dx="0">y</tspan><tspan x="55" y="13" dx="0">p</tspan><tspan x="63" y="13" dx="0">e</tspan><tspan x="69" y="13" dx="0">»</tspan></text><text stroke="none" fill="#000000" font-weight="700" transform="translate(953 606)"><tspan x="0" y="13" dx="0">Omgevingswaarderegel</tspan></text><rect x="161" y="786" width="328" height="130" stroke="none" fill="#D0D0D0"/><rect x="158" y="783" width="327" height="129" stroke="none" fill="#CCFFFF"/><rect x="158" y="783" width="327" height="130"/><rect x="158" y="783" width="327" height="129"/><text stroke="none" fill="#000000" transform="translate(260 789)"><tspan x="0" y="13" dx="0">«Gegevensgroeptype»</tspan></text><text stroke="none" fill="#000000" font-weight="700" transform="translate(245 806)"><tspan x="0" y="13" dx="0">A</tspan><tspan x="8" y="13" dx="0">c</tspan><tspan x="14" y="13" dx="0 0">ti</tspan><tspan x="22" y="13" dx="0">v</tspan><tspan x="28" y="13" dx="0">i</tspan><tspan x="31" y="13" dx="0">t</tspan><tspan x="36" y="13" dx="0">e</tspan><tspan x="44" y="13" dx="0">i</tspan><tspan x="47" y="13" dx="0">t</tspan><tspan x="52" y="13" dx="0">L</tspan><tspan x="58" y="13" dx="0">o</tspan><tspan x="66" y="13" dx="0">c</tspan><tspan x="71" y="13" dx="0">a</tspan><tspan x="77" y="13" dx="0 0">ti</tspan><tspan x="86" y="13" dx="0">e</tspan><tspan x="93" y="13" dx="0">a</tspan><tspan x="99" y="13" dx="0">a</tspan><tspan x="105" y="13" dx="0">n</tspan><tspan x="113" y="13" dx="0">d</tspan><tspan x="120" y="13" dx="0">u</tspan><tspan x="127" y="13" dx="0">i</tspan><tspan x="130" y="13" dx="0">d</tspan><tspan x="138" y="13" dx="0">i</tspan><tspan x="141" y="13" dx="0">n</tspan><tspan x="148" y="13" dx="0">g</tspan></text><path d="M158 828 485 828"/><text stroke="none" fill="#000000" transform="translate(172 836)"><tspan x="0" y="13" dx="0">«</tspan><tspan x="7" y="13" dx="0">A</tspan><tspan x="15" y="13" dx="0 0">tt</tspan><tspan x="23" y="13" dx="0">r</tspan><tspan x="28" y="13" dx="0">i</tspan><tspan x="32" y="13" dx="0">b</tspan><tspan x="40" y="13" dx="0">u</tspan><tspan x="47" y="13" dx="0">u</tspan><tspan x="54" y="13" dx="0">t</tspan><tspan x="58" y="13" dx="0">s</tspan><tspan x="65" y="13" dx="0">o</tspan><tspan x="72" y="13" dx="0">o</tspan><tspan x="79" y="13" dx="0">r</tspan><tspan x="84" y="13" dx="0">t</tspan><tspan x="89" y="13" dx="0">»</tspan></text><text stroke="none" fill="#66413F" transform="translate(163 853)"><tspan x="0" y="13" dx="0">+</tspan></text><text stroke="none" fill="#66413F" transform="translate(187 853)"><tspan x="0" y="13" dx="0">i</tspan><tspan x="4" y="13" dx="0">d</tspan><tspan x="11" y="13" dx="0">e</tspan><tspan x="18" y="13" dx="0">n</tspan><tspan x="25" y="13" dx="0 0">ti</tspan><tspan x="33" y="13" dx="0 0">fi</tspan><tspan x="42" y="13" dx="0">c</tspan><tspan x="48" y="13" dx="0">a</tspan><tspan x="55" y="13" dx="0 0">ti</tspan><tspan x="64" y="13" dx="0">e</tspan><tspan x="70" y="13" dx="0">:</tspan><tspan x="73" y="13" dx="0"> </tspan><tspan x="76" y="13" dx="0">I</tspan><tspan x="80" y="13" dx="0">d</tspan><tspan x="88" y="13" dx="0">e</tspan><tspan x="94" y="13" dx="0">n</tspan><tspan x="101" y="13" dx="0 0">ti</tspan><tspan x="109" y="13" dx="0 0">fi</tspan><tspan x="118" y="13" dx="0">c</tspan><tspan x="124" y="13" dx="0">a</tspan><tspan x="131" y="13" dx="0 0">ti</tspan><tspan x="140" y="13" dx="0">e</tspan></text><text stroke="none" fill="#66413F" transform="translate(163 870)"><tspan x="0" y="13" dx="0">+</tspan></text><text stroke="none" fill="#66413F" transform="translate(187 870)"><tspan x="0" y="13" dx="0">a</tspan><tspan x="7" y="13" dx="0">c</tspan><tspan x="14" y="13" dx="0 0">ti</tspan><tspan x="22" y="13" dx="0">v</tspan><tspan x="28" y="13" dx="0">i</tspan><tspan x="32" y="13" dx="0">t</tspan><tspan x="36" y="13" dx="0">e</tspan><tspan x="43" y="13" dx="0">i</tspan><tspan x="47" y="13" dx="0">t</tspan><tspan x="51" y="13" dx="0">r</tspan><tspan x="56" y="13" dx="0">e</tspan><tspan x="63" y="13" dx="0">g</tspan><tspan x="69" y="13" dx="0">e</tspan><tspan x="75" y="13" dx="0">l</tspan><tspan x="79" y="13" dx="0">k</tspan><tspan x="86" y="13" dx="0">w</tspan><tspan x="95" y="13" dx="0">a</tspan><tspan x="102" y="13" dx="0">l</tspan><tspan x="106" y="13" dx="0">i</tspan><tspan x="111" y="13" dx="0 0">fi</tspan><tspan x="119" y="13" dx="0">c</tspan><tspan x="125" y="13" dx="0">a</tspan><tspan x="132" y="13" dx="0 0">ti</tspan><tspan x="141" y="13" dx="0">e</tspan><tspan x="147" y="13" dx="0">:</tspan><tspan x="150" y="13" dx="0"> </tspan><tspan x="153" y="13" dx="0">A</tspan><tspan x="161" y="13" dx="0">c</tspan><tspan x="167" y="13" dx="0 0">ti</tspan><tspan x="175" y="13" dx="0">v</tspan><tspan x="181" y="13" dx="0">i</tspan><tspan x="186" y="13" dx="0">t</tspan><tspan x="190" y="13" dx="0">e</tspan><tspan x="196" y="13" dx="0">i</tspan><tspan x="200" y="13" dx="0">t</tspan><tspan x="204" y="13" dx="0">r</tspan><tspan x="210" y="13" dx="0">e</tspan><tspan x="216" y="13" dx="0">g</tspan><tspan x="222" y="13" dx="0">e</tspan><tspan x="228" y="13" dx="0">l</tspan><tspan x="233" y="13" dx="0">k</tspan></text><text stroke="none" fill="#66413F" transform="translate(426 870)"><tspan x="0" y="13" dx="0">w</tspan><tspan x="9" y="13" dx="0">a</tspan><tspan x="15" y="13" dx="0">l</tspan><tspan x="19" y="13" dx="0">i</tspan><tspan x="23" y="13" dx="0 0">fi</tspan><tspan x="30" y="13" dx="0">c</tspan><tspan x="35" y="13" dx="0">a</tspan><tspan x="41" y="13" dx="0 0">ti</tspan><tspan x="49" y="13" dx="0">e</tspan></text><path d="M773 504 773 535M773 535 1131 535M1131 535 1131 758M1131 758 726 758M726 758 726 823M726 823 720 808M726 823 732 808" stroke="#69738C" stroke-width="2"/><path d="M896 180 1150 180M1150 180 1150 790M1150 790 762 790M762 790 762 823M762 823 756 808M762 823 768 808" stroke="#69738C" stroke-width="2"/><path d="M486 867 647 867M647 867 632 873M647 867 632 861" stroke="#69738C" stroke-width="2"/><path d="M1021 583 1021 554M1021 554 696 554M696 554 696 505" stroke="#69738C" stroke-width="2"/><path d="M702 521 690 521 696 505 702 521" stroke="#69738C" stroke-width="2" fill="#FAF1EC"/><path d="M696 584 696 554" stroke="#69738C" stroke-width="2"/><path d="M309 583 309 554M309 554 696 554" stroke="#69738C" stroke-width="2"/><path d="M696 340 696 289M696 289 702 304M696 289 690 304" stroke="#69738C" stroke-width="2"/><g transform="matrix(1 0 0 -1 313 565)"><rect x="0" y="-13" width="65" height="13" stroke="none" fill="#FFFFFF"/></g><text stroke="none" fill="#595959" font-size="10" transform="translate(313 565)"><tspan x="0" y="10" dx="0">«</tspan><tspan x="5.3333" y="10" dx="0">G</tspan><tspan x="12" y="10" dx="0">e</tspan><tspan x="17.3333" y="10" dx="0">n</tspan><tspan x="23" y="10" dx="0">e</tspan><tspan x="28" y="10" dx="0">r</tspan><tspan x="31.3333" y="10" dx="0">a</tspan><tspan x="36" y="10" dx="0">l</tspan><tspan x="38.3333" y="10" dx="0">i</tspan><tspan x="40.6667" y="10" dx="0">s</tspan><tspan x="44.6667" y="10" dx="0">a</tspan><tspan x="49.3333" y="10" dx="0 0">ti</tspan><tspan x="55" y="10" dx="0">e</tspan><tspan x="60" y="10" dx="0">»</tspan></text><g transform="matrix(1 0 0 -1 699 556)"><rect x="0" y="-13" width="65" height="13" stroke="none" fill="#FFFFFF"/></g><text stroke="none" fill="#595959" font-size="10" transform="translate(699 556)"><tspan x="0" y="10" dx="0">«</tspan><tspan x="5.3333" y="10" dx="0">G</tspan><tspan x="12" y="10" dx="0">e</tspan><tspan x="17.3333" y="10" dx="0">n</tspan><tspan x="23" y="10" dx="0">e</tspan><tspan x="28" y="10" dx="0">r</tspan><tspan x="31.3333" y="10" dx="0">a</tspan><tspan x="36" y="10" dx="0">l</tspan><tspan x="38.3333" y="10" dx="0">i</tspan><tspan x="40.6667" y="10" dx="0">s</tspan><tspan x="44.6667" y="10" dx="0">a</tspan><tspan x="49.3333" y="10" dx="0 0">ti</tspan><tspan x="55" y="10" dx="0">e</tspan><tspan x="60" y="10" dx="0">»</tspan></text><g transform="matrix(1 0 0 -1 781 509)"><rect x="0" y="-13" width="17" height="13" stroke="none" fill="#FFFFFF"/></g><text stroke="none" fill="#595959" font-size="10" transform="translate(781 509)"><tspan x="0" y="10" dx="0">0..*</tspan></text><g transform="matrix(1 0 0 -1 897 752)"><rect x="0" y="-13" width="40" height="13" stroke="none" fill="#FFFFFF"/></g><text stroke="none" fill="#595959" font-size="10" transform="translate(897 752)"><tspan x="0" y="10" dx="0">d</tspan><tspan x="5.3333" y="10" dx="0">e</tspan><tspan x="10.3333" y="10" dx="0 0">fi</tspan><tspan x="15.6667" y="10" dx="0">n</tspan><tspan x="21" y="10" dx="0">i</tspan><tspan x="23.3333" y="10" dx="0">e</tspan><tspan x="28.3333" y="10" dx="0">e</tspan><tspan x="33.3333" y="10" dx="0">r</tspan><tspan x="36.6667" y="10" dx="0">t</tspan></text><g transform="matrix(1 0 0 -1 734 805)"><rect x="0" y="-13" width="17" height="13" stroke="none" fill="#FFFFFF"/></g><text stroke="none" fill="#595959" font-size="10" transform="translate(734 805)"><tspan x="0" y="10" dx="0">1..*</tspan></text><g transform="matrix(1 0 0 -1 489 872)"><rect x="0" y="-13" width="17" height="13" stroke="none" fill="#FFFFFF"/></g><text stroke="none" fill="#595959" font-size="10" transform="translate(489 872)"><tspan x="0" y="10" dx="0">0..*</tspan></text><g transform="matrix(1 0 0 -1 543 853)"><rect x="0" y="-13" width="48" height="13" stroke="none" fill="#FFFFFF"/></g><text stroke="none" fill="#595959" font-size="10" transform="translate(543 853)"><tspan x="0" y="10" dx="0">k</tspan><tspan x="5" y="10" dx="0">w</tspan><tspan x="12.3333" y="10" dx="0">a</tspan><tspan x="17" y="10" dx="0">l</tspan><tspan x="19.3333" y="10" dx="0">i</tspan><tspan x="21.6667" y="10" dx="0 0">fi</tspan><tspan x="27" y="10" dx="0">c</tspan><tspan x="31.3333" y="10" dx="0">e</tspan><tspan x="36.3333" y="10" dx="0">e</tspan><tspan x="41.3333" y="10" dx="0">r</tspan><tspan x="44.6667" y="10" dx="0">t</tspan></text><g transform="matrix(1 0 0 -1 538 870)"><rect x="0" y="-13" width="59" height="13" stroke="none" fill="#FFFFFF"/></g><text stroke="none" fill="#595959" font-size="10" transform="translate(538 870)"><tspan x="0" y="10" dx="0">«</tspan><tspan x="4.6667" y="10" dx="0">R</tspan><tspan x="10" y="10" dx="0">e</tspan><tspan x="15" y="10" dx="0">l</tspan><tspan x="17.3333" y="10" dx="0">a</tspan><tspan x="22" y="10" dx="0 0">ti</tspan><tspan x="27.6667" y="10" dx="0">e</tspan><tspan x="32.6667" y="10" dx="0">s</tspan><tspan x="36.6667" y="10" dx="0">o</tspan><tspan x="42" y="10" dx="0">o</tspan><tspan x="47.3333" y="10" dx="0">r</tspan><tspan x="50.6667" y="10" dx="0">t</tspan><tspan x="54" y="10" dx="0">»</tspan></text><g transform="matrix(1 0 0 -1 530 810)"><rect x="0" y="-13" width="78" height="13" stroke="none" fill="#FFFFFF"/></g><text stroke="none" fill="#595959" font-size="10" transform="translate(530 810)"><tspan x="0" y="10" dx="0">+</tspan><tspan x="5.3333" y="10" dx="0">l</tspan><tspan x="7.6667" y="10" dx="0">o</tspan><tspan x="13" y="10" dx="0">c</tspan><tspan x="17.3333" y="10" dx="0">a</tspan><tspan x="22" y="10" dx="0 0">ti</tspan><tspan x="27.6667" y="10" dx="0">e</tspan><tspan x="32.6667" y="10" dx="0">a</tspan><tspan x="37.3333" y="10" dx="0">a</tspan><tspan x="42" y="10" dx="0">n</tspan><tspan x="47.3333" y="10" dx="0">d</tspan><tspan x="52.6667" y="10" dx="0">u</tspan><tspan x="58" y="10" dx="0">i</tspan><tspan x="60.3333" y="10" dx="0">d</tspan><tspan x="65.6667" y="10" dx="0">i</tspan><tspan x="68" y="10" dx="0">n</tspan><tspan x="73.3333" y="10" dx="0">g</tspan></text><g transform="matrix(1 0 0 -1 543 823)"><rect x="0" y="-13" width="49" height="13" stroke="none" fill="#FFFFFF"/></g><text stroke="none" fill="#595959" font-size="10" transform="translate(543 823)"><tspan x="0" y="10" dx="0">«</tspan><tspan x="5" y="10" dx="0">R</tspan><tspan x="10.3333" y="10" dx="0">e</tspan><tspan x="15.3333" y="10" dx="0">l</tspan><tspan x="17.6667" y="10" dx="0">a</tspan><tspan x="22.3333" y="10" dx="0 0">ti</tspan><tspan x="28" y="10" dx="0">e</tspan><tspan x="33" y="10" dx="0">r</tspan><tspan x="36.3333" y="10" dx="0">o</tspan><tspan x="41.6667" y="10" dx="0">l</tspan><tspan x="44" y="10" dx="0">»</tspan></text><g transform="matrix(1 0 0 -1 621 883)"><rect x="0" y="-13" width="17" height="13" stroke="none" fill="#FFFFFF"/></g><text stroke="none" fill="#595959" font-size="10" transform="translate(621 883)"><tspan x="0" y="10" dx="0">1..*</tspan></text><g transform="matrix(1 0 0 -1 899 185)"><rect x="0" y="-13" width="17" height="13" stroke="none" fill="#FFFFFF"/></g><text stroke="none" fill="#595959" font-size="10" transform="translate(899 185)"><tspan x="0" y="10" dx="0">0..*</tspan></text><g transform="matrix(1 0 0 -1 994 786)"><rect x="0" y="-13" width="67" height="13" stroke="none" fill="#FFFFFF"/></g><text stroke="none" fill="#595959" font-size="10" transform="translate(994 786)"><tspan x="0" y="10" dx="0">h</tspan><tspan x="5.6667" y="10" dx="0">e</tspan><tspan x="11" y="10" dx="0">e</tspan><tspan x="16" y="10" dx="0 0">ft</tspan><tspan x="22.3333" y="10" dx="0"> </tspan><tspan x="24.6667" y="10" dx="0">w</tspan><tspan x="31.6667" y="10" dx="0">e</tspan><tspan x="36.6667" y="10" dx="0">r</tspan><tspan x="40" y="10" dx="0">k</tspan><tspan x="44.6667" y="10" dx="0">i</tspan><tspan x="47" y="10" dx="0">n</tspan><tspan x="52.3333" y="10" dx="0">g</tspan><tspan x="57" y="10" dx="0"> </tspan><tspan x="59.3333" y="10" dx="0">i</tspan><tspan x="61.6667" y="10" dx="0">n</tspan></text><g transform="matrix(1 0 0 -1 992 771)"><rect x="0" y="-13" width="59" height="13" stroke="none" fill="#FFFFFF"/></g><text stroke="none" fill="#595959" font-size="10" transform="translate(992 771)"><tspan x="0" y="10" dx="0">«</tspan><tspan x="4.6667" y="10" dx="0">R</tspan><tspan x="10" y="10" dx="0">e</tspan><tspan x="15" y="10" dx="0">l</tspan><tspan x="17.3333" y="10" dx="0">a</tspan><tspan x="22" y="10" dx="0 0">ti</tspan><tspan x="27.6667" y="10" dx="0">e</tspan><tspan x="32.6667" y="10" dx="0">s</tspan><tspan x="36.6667" y="10" dx="0">o</tspan><tspan x="42" y="10" dx="0">o</tspan><tspan x="47.3333" y="10" dx="0">r</tspan><tspan x="50.6667" y="10" dx="0">t</tspan><tspan x="54" y="10" dx="0">»</tspan></text><g transform="matrix(1 0 0 -1 703 323)"><rect x="0" y="-13" width="17" height="13" stroke="none" fill="#FFFFFF"/></g><text stroke="none" fill="#595959" font-size="10" transform="translate(703 323)"><tspan x="0" y="10" dx="0">1..*</tspan></text><g transform="matrix(1 0 0 -1 656 298)"><rect x="0" y="-13" width="68" height="13" stroke="none" fill="#FFFFFF"/></g><text stroke="none" fill="#595959" font-size="10" transform="translate(656 298)"><tspan x="0" y="10" dx="0">is opgenomen in</tspan></text><g transform="matrix(1 0 0 -1 665 321)"><rect x="0" y="-13" width="59" height="13" stroke="none" fill="#FFFFFF"/></g><text stroke="none" fill="#595959" font-size="10" transform="translate(665 321)"><tspan x="0" y="10" dx="0">«</tspan><tspan x="4.6667" y="10" dx="0">R</tspan><tspan x="10" y="10" dx="0">e</tspan><tspan x="15" y="10" dx="0">l</tspan><tspan x="17.3333" y="10" dx="0">a</tspan><tspan x="22" y="10" dx="0 0">ti</tspan><tspan x="27.6667" y="10" dx="0">e</tspan><tspan x="32.6667" y="10" dx="0">s</tspan><tspan x="36.6667" y="10" dx="0">o</tspan><tspan x="42" y="10" dx="0">o</tspan><tspan x="47.3333" y="10" dx="0">r</tspan><tspan x="50.6667" y="10" dx="0">t</tspan><tspan x="54" y="10" dx="0">»</tspan></text><g transform="matrix(1 0 0 -1 705 295)"><rect x="0" y="-13" width="5" height="13" stroke="none" fill="#FFFFFF"/></g><text stroke="none" fill="#595959" font-size="10" transform="translate(705 295)"><tspan x="0" y="10" dx="0">1</tspan></text><g transform="matrix(1 0 0 -1 1076 533)"><rect x="0" y="-13" width="65" height="13" stroke="none" fill="#FFFFFF"/></g><text stroke="none" fill="#595959" font-size="10" transform="translate(1076 533)"><tspan x="0" y="10" dx="0">«</tspan><tspan x="5.3333" y="10" dx="0">G</tspan><tspan x="12" y="10" dx="0">e</tspan><tspan x="17.3333" y="10" dx="0">n</tspan><tspan x="23" y="10" dx="0">e</tspan><tspan x="28" y="10" dx="0">r</tspan><tspan x="31.3333" y="10" dx="0">a</tspan><tspan x="36" y="10" dx="0">l</tspan><tspan x="38.3333" y="10" dx="0">i</tspan><tspan x="40.6667" y="10" dx="0">s</tspan><tspan x="44.6667" y="10" dx="0">a</tspan><tspan x="49.3333" y="10" dx="0 0">ti</tspan><tspan x="55" y="10" dx="0">e</tspan><tspan x="60" y="10" dx="0">»</tspan></text></g></g></g></g></svg>