<svg width="436.846" height="111.522" viewBox="130.184 127.352 327.634 83.6415" xmlns="http://www.w3.org/2000/svg" xmlns:xlink="http://www.w3.org/1999/xlink" overflow="hidden"><g transform="matrix(1 0 0 -1 0 841)"><g stroke="#000000" stroke-linecap="round" stroke-linejoin="round" stroke-miterlimit="3" fill="none" fill-rule="evenodd" font-weight="400" baseline-shift="0"><g transform="matrix(0.6 0 0 0.6 0 841.65)"><g font-family="CalibriUnicode" font-size="8" transform="scale(1.19952 -1.19932)"><path d="M195 197C195 192 195 192 200 192L328 192C333 192 333 192 333 197L333 278C333 283 333 283 328 283L200 283C195 283 195 283 195 278L195 197" stroke="none" fill="#DFDFDF"/><path d="M192 194C192 189 192 189 197 189L325 189C330 189 330 189 330 194L330 275C330 280 330 280 325 280L197 280C192 280 192 280 192 275L192 194" stroke="none" fill="#CCFFFF"/><path d="M192 194C192 189 192 189 197 189L325 189C330 189 330 189 330 194L330 275C330 280 330 280 325 280L197 280C192 280 192 280 192 275L192 194M192 194C192 189 192 189 197 189L325 189C330 189 330 189 330 194L330 275C330 280 330 280 325 280L197 280C192 280 192 280 192 275L192 194"/><text stroke="none" fill="#000000" transform="translate(239 195)"><tspan x="0" y="8" dx="0">«</tspan><tspan x="4.5" y="8" dx="0">O</tspan><tspan x="10" y="8" dx="0">b</tspan><tspan x="14.25" y="8" dx="0">j</tspan><tspan x="16.25" y="8" dx="0">e</tspan><tspan x="20.25" y="8" dx="0">c</tspan><tspan x="23.5" y="8" dx="0 0">tt</tspan><tspan x="29" y="8" dx="0">y</tspan><tspan x="32.5" y="8" dx="0">p</tspan><tspan x="36.75" y="8" dx="0">e</tspan><tspan x="40.75" y="8" dx="0">»</tspan></text><text stroke="none" fill="#000000" font-weight="700" transform="translate(253 205)"><tspan x="0" y="8" dx="0">Pons</tspan></text><path d="M192 220 330 220"/><text stroke="none" fill="#000000" transform="translate(203 228)"><tspan x="0" y="8" dx="0">«</tspan><tspan x="4" y="8" dx="0">A</tspan><tspan x="8.25" y="8" dx="0 0">tt</tspan><tspan x="13.75" y="8" dx="0">r</tspan><tspan x="16.5" y="8" dx="0">i</tspan><tspan x="18.5" y="8" dx="0">b</tspan><tspan x="22.5" y="8" dx="0">u</tspan><tspan x="26.5" y="8" dx="0">u</tspan><tspan x="30.5" y="8" dx="0">t</tspan><tspan x="33.25" y="8" dx="0">s</tspan><tspan x="36.5" y="8" dx="0">o</tspan><tspan x="40.5" y="8" dx="0">o</tspan><tspan x="44.5" y="8" dx="0">r</tspan><tspan x="47.25" y="8" dx="0">t</tspan><tspan x="50" y="8" dx="0">»</tspan></text><text stroke="none" fill="#2F4F4F" transform="translate(197 238)"><tspan x="0" y="8" dx="0">+</tspan></text><text stroke="none" fill="#2F4F4F" transform="translate(211 238)"><tspan x="0" y="8" dx="0">i</tspan><tspan x="2" y="8" dx="0">d</tspan><tspan x="6" y="8" dx="0">e</tspan><tspan x="9.75" y="8" dx="0">n</tspan><tspan x="13.75" y="8" dx="0 0">ti</tspan><tspan x="18.5" y="8" dx="0 0">fi</tspan><tspan x="23" y="8" dx="0">c</tspan><tspan x="26" y="8" dx="0">a</tspan><tspan x="29.5" y="8" dx="0 0">ti</tspan><tspan x="34.25" y="8" dx="0">e</tspan><tspan x="38" y="8" dx="0">:</tspan><tspan x="40" y="8" dx="0"> </tspan><tspan x="41.75" y="8" dx="0">I</tspan><tspan x="43.75" y="8" dx="0">d</tspan><tspan x="47.75" y="8" dx="0">e</tspan><tspan x="51.5" y="8" dx="0">n</tspan><tspan x="55.75" y="8" dx="0 0">ti</tspan><tspan x="60.5" y="8" dx="0 0">fi</tspan><tspan x="65" y="8" dx="0">c</tspan><tspan x="68.25" y="8" dx="0">a</tspan><tspan x="72" y="8" dx="0 0">ti</tspan><tspan x="76.75" y="8" dx="0">e</tspan><tspan x="80.75" y="8" dx="0"> </tspan><tspan x="82.75" y="8" dx="0">{</tspan><tspan x="85.25" y="8" dx="0">i</tspan><tspan x="87.25" y="8" dx="0">d</tspan><tspan x="91.5" y="8" dx="0">}</tspan></text><path d="M479 198C479 193 479 193 484 193L620 193C625 193 625 193 625 198L625 276C625 281 625 281 620 281L484 281C479 281 479 281 479 276L479 198" stroke="none" fill="#DFDFDF"/><path d="M476 195C476 190 476 190 481 190L617 190C622 190 622 190 622 195L622 273C622 278 622 278 617 278L481 278C476 278 476 278 476 273L476 195" stroke="none" fill="#FFE4E1"/><path d="M476 195C476 190 476 190 481 190L617 190C622 190 622 190 622 195L622 273C622 278 622 278 617 278L481 278C476 278 476 278 476 273L476 195M476 195C476 190 476 190 481 190L617 190C622 190 622 190 622 195L622 273C622 278 622 278 617 278L481 278C476 278 476 278 476 273L476 195" stroke="#C0C0C0"/><text stroke="none" fill="#000000" transform="translate(527 196)"><tspan x="0" y="8" dx="0">«</tspan><tspan x="4.5" y="8" dx="0">O</tspan><tspan x="10" y="8" dx="0">b</tspan><tspan x="14.25" y="8" dx="0">j</tspan><tspan x="16.25" y="8" dx="0">e</tspan><tspan x="20.25" y="8" dx="0">c</tspan><tspan x="23.5" y="8" dx="0 0">tt</tspan><tspan x="29" y="8" dx="0">y</tspan><tspan x="32.5" y="8" dx="0">p</tspan><tspan x="36.75" y="8" dx="0">e</tspan><tspan x="40.75" y="8" dx="0">»</tspan></text><text stroke="none" fill="#000000" font-style="italic" font-weight="700" transform="translate(523 206)"><tspan x="0" y="8" dx="0">L</tspan><tspan x="3.25" y="8" dx="0">o</tspan><tspan x="7.5" y="8" dx="0">c</tspan><tspan x="10.75" y="8" dx="0">a</tspan><tspan x="15" y="8" dx="0 0">ti</tspan><tspan x="19.75" y="8" dx="0">e</tspan><tspan x="23.75" y="8" dx="0">:</tspan><tspan x="26" y="8" dx="0">:</tspan><tspan x="28.25" y="8" dx="0">L</tspan><tspan x="31.5" y="8" dx="0">o</tspan><tspan x="35.75" y="8" dx="0">c</tspan><tspan x="39" y="8" dx="0">a</tspan><tspan x="43.25" y="8" dx="0 0">ti</tspan><tspan x="48" y="8" dx="0">e</tspan></text><path d="M476 221 622 221" stroke="#C0C0C0"/><text stroke="none" fill="#000000" transform="translate(487 229)"><tspan x="0" y="8" dx="0">«</tspan><tspan x="4" y="8" dx="0">A</tspan><tspan x="8.25" y="8" dx="0 0">tt</tspan><tspan x="13.75" y="8" dx="0">r</tspan><tspan x="16.5" y="8" dx="0">i</tspan><tspan x="18.5" y="8" dx="0">b</tspan><tspan x="22.5" y="8" dx="0">u</tspan><tspan x="26.5" y="8" dx="0">u</tspan><tspan x="30.5" y="8" dx="0">t</tspan><tspan x="33.25" y="8" dx="0">s</tspan><tspan x="36.5" y="8" dx="0">o</tspan><tspan x="40.5" y="8" dx="0">o</tspan><tspan x="44.5" y="8" dx="0">r</tspan><tspan x="47.25" y="8" dx="0">t</tspan><tspan x="50" y="8" dx="0">»</tspan></text><text stroke="none" fill="#2F4F4F" transform="translate(481 239)"><tspan x="0" y="8" dx="0">+</tspan></text><text stroke="none" fill="#2F4F4F" transform="translate(495 239)"><tspan x="0" y="8" dx="0">i</tspan><tspan x="2" y="8" dx="0">d</tspan><tspan x="6" y="8" dx="0">e</tspan><tspan x="9.75" y="8" dx="0">n</tspan><tspan x="13.75" y="8" dx="0 0">ti</tspan><tspan x="18.5" y="8" dx="0 0">fi</tspan><tspan x="23" y="8" dx="0">c</tspan><tspan x="26" y="8" dx="0">a</tspan><tspan x="29.5" y="8" dx="0 0">ti</tspan><tspan x="34.25" y="8" dx="0">e</tspan><tspan x="38" y="8" dx="0">:</tspan><tspan x="40" y="8" dx="0"> </tspan><tspan x="41.75" y="8" dx="0">I</tspan><tspan x="43.75" y="8" dx="0">d</tspan><tspan x="47.75" y="8" dx="0">e</tspan><tspan x="51.5" y="8" dx="0">n</tspan><tspan x="55.75" y="8" dx="0 0">ti</tspan><tspan x="60.5" y="8" dx="0 0">fi</tspan><tspan x="65" y="8" dx="0">c</tspan><tspan x="68.25" y="8" dx="0">a</tspan><tspan x="72" y="8" dx="0 0">ti</tspan><tspan x="76.75" y="8" dx="0">e</tspan><tspan x="80.75" y="8" dx="0"> </tspan><tspan x="82.75" y="8" dx="0">{</tspan><tspan x="85.25" y="8" dx="0">i</tspan><tspan x="87.25" y="8" dx="0">d</tspan><tspan x="91.5" y="8" dx="0">}</tspan></text><text stroke="none" fill="#2F4F4F" transform="translate(481 249)"><tspan x="0" y="8" dx="0">+</tspan></text><text stroke="none" fill="#2F4F4F" transform="translate(495 249)"><tspan x="0" y="8" dx="0">noemer: Characterstring [0..1]</tspan></text><path d="M331 240 476 240M476 240 461 246M476 240 461 234"/><g transform="matrix(1 0 0 -1 394 229)"><rect x="0" y="-10" width="19" height="10" stroke="none" fill="#FFFFFF"/></g><text stroke="none" fill="#000000" transform="translate(394 229)"><tspan x="0" y="8" dx="0">bevat</tspan></text><g transform="matrix(1 0 0 -1 396 249)"><rect x="0" y="-10" width="63" height="10" stroke="none" fill="#FFFFFF"/></g><text stroke="none" fill="#000000" transform="translate(396 249)"><tspan x="0" y="8" dx="0">+</tspan><tspan x="4.25" y="8" dx="0">l</tspan><tspan x="6.25" y="8" dx="0">o</tspan><tspan x="10.75" y="8" dx="0">c</tspan><tspan x="14" y="8" dx="0">a</tspan><tspan x="17.75" y="8" dx="0 0">ti</tspan><tspan x="22.5" y="8" dx="0">e</tspan><tspan x="26.5" y="8" dx="0">a</tspan><tspan x="30.25" y="8" dx="0">a</tspan><tspan x="34" y="8" dx="0">n</tspan><tspan x="38.25" y="8" dx="0">d</tspan><tspan x="42.5" y="8" dx="0">u</tspan><tspan x="46.75" y="8" dx="0">i</tspan><tspan x="48.75" y="8" dx="0">d</tspan><tspan x="53" y="8" dx="0">i</tspan><tspan x="55" y="8" dx="0">n</tspan><tspan x="59.25" y="8" dx="0">g</tspan></text><g transform="matrix(1 0 0 -1 407 259)"><rect x="0" y="-10" width="39" height="10" stroke="none" fill="#FFFFFF"/></g><text stroke="none" fill="#000000" transform="translate(407 259)"><tspan x="0" y="8" dx="0">«</tspan><tspan x="4" y="8" dx="0">R</tspan><tspan x="8.25" y="8" dx="0">e</tspan><tspan x="12" y="8" dx="0">l</tspan><tspan x="14" y="8" dx="0">a</tspan><tspan x="17.5" y="8" dx="0 0">ti</tspan><tspan x="22.25" y="8" dx="0">e</tspan><tspan x="26" y="8" dx="0">r</tspan><tspan x="28.75" y="8" dx="0">o</tspan><tspan x="32.75" y="8" dx="0">l</tspan><tspan x="34.75" y="8" dx="0">»</tspan></text><g transform="matrix(1 0 0 -1 469 245)"><rect x="0" y="-10" width="4" height="10" stroke="none" fill="#FFFFFF"/></g><text stroke="none" fill="#000000" transform="translate(469 245)"><tspan x="0" y="8" dx="0">1</tspan></text></g></g></g></g></svg>