<svg width="1244.66" height="700.605" viewBox="27.3172 12.6204 933.496 525.454" xmlns="http://www.w3.org/2000/svg" xmlns:xlink="http://www.w3.org/1999/xlink" overflow="hidden"><g transform="matrix(1 0 0 -1 0 816)"><g stroke="#000000" stroke-linecap="round" stroke-linejoin="round" stroke-miterlimit="3" fill="none" fill-rule="evenodd" font-weight="400" baseline-shift="0"><g transform="matrix(0.75 0 0 0.75 0 816.45)"><g font-family="CalibriUnicode" font-size="13" transform="scale(1.00191 -1.00335)"><rect x="47" y="28" width="1221" height="677" stroke="#9A8484"/><rect x="621" y="69" width="201" height="99" stroke="none" fill="#D0D0D0"/><rect x="618" y="66" width="200" height="98" stroke="none" fill="#FFE4E1"/><rect x="618" y="66" width="200" height="99" stroke="#C0C0C0"/><rect x="618" y="66" width="200" height="98" stroke="#C0C0C0"/><text stroke="none" fill="#000000" transform="translate(682 72)"><tspan x="0" y="12" dx="0">«</tspan><tspan x="6" y="12" dx="0">O</tspan><tspan x="15" y="12" dx="0">b</tspan><tspan x="22" y="12" dx="0">j</tspan><tspan x="25" y="12" dx="0">e</tspan><tspan x="32" y="12" dx="0">c</tspan><tspan x="38" y="12" dx="0 0">tt</tspan><tspan x="46" y="12" dx="0">y</tspan><tspan x="51" y="12" dx="0">p</tspan><tspan x="58" y="12" dx="0">e</tspan><tspan x="66" y="12" dx="0">»</tspan></text><text stroke="none" fill="#000000" font-style="italic" font-weight="700" transform="translate(700 87)"><tspan x="0" y="12" dx="0">L</tspan><tspan x="5" y="12" dx="0">o</tspan><tspan x="11" y="12" dx="0">c</tspan><tspan x="17" y="12" dx="0">a</tspan><tspan x="23" y="12" dx="0 0">ti</tspan><tspan x="30" y="12" dx="0">e</tspan></text><path d="M618 107 818 107" stroke="#C0C0C0"/><text stroke="none" fill="#000000" transform="translate(631 115)"><tspan x="0" y="12" dx="0">«</tspan><tspan x="6" y="12" dx="0">A</tspan><tspan x="14" y="12" dx="0 0">tt</tspan><tspan x="22" y="12" dx="0">r</tspan><tspan x="26" y="12" dx="0">i</tspan><tspan x="30" y="12" dx="0">b</tspan><tspan x="38" y="12" dx="0">u</tspan><tspan x="45" y="12" dx="0">u</tspan><tspan x="52" y="12" dx="0">t</tspan><tspan x="56" y="12" dx="0">s</tspan><tspan x="63" y="12" dx="0">o</tspan><tspan x="70" y="12" dx="0">o</tspan><tspan x="77" y="12" dx="0">r</tspan><tspan x="81" y="12" dx="0">t</tspan><tspan x="86" y="12" dx="0">»</tspan></text><text stroke="none" fill="#66413F" transform="translate(623 130)"><tspan x="0" y="12" dx="0">+</tspan></text><text stroke="none" fill="#66413F" transform="translate(644 130)"><tspan x="0" y="12" dx="0">i</tspan><tspan x="4" y="12" dx="0">d</tspan><tspan x="11" y="12" dx="0">e</tspan><tspan x="19" y="12" dx="0">n</tspan><tspan x="26" y="12" dx="0 0">ti</tspan><tspan x="34" y="12" dx="0 0">fi</tspan><tspan x="43" y="12" dx="0">c</tspan><tspan x="48" y="12" dx="0">a</tspan><tspan x="55" y="12" dx="0 0">ti</tspan><tspan x="64" y="12" dx="0">e</tspan><tspan x="71" y="12" dx="0">:</tspan><tspan x="74" y="12" dx="0"> </tspan><tspan x="77" y="12" dx="0">I</tspan><tspan x="81" y="12" dx="0">d</tspan><tspan x="89" y="12" dx="0">e</tspan><tspan x="96" y="12" dx="0">n</tspan><tspan x="103" y="12" dx="0 0">ti</tspan><tspan x="112" y="12" dx="0 0">fi</tspan><tspan x="120" y="12" dx="0">c</tspan><tspan x="125" y="12" dx="0">a</tspan><tspan x="132" y="12" dx="0 0">ti</tspan><tspan x="141" y="12" dx="0">e</tspan><tspan x="148" y="12" dx="0"> </tspan><tspan x="151" y="12" dx="0">{</tspan><tspan x="155" y="12" dx="0">i</tspan><tspan x="160" y="12" dx="0">d</tspan><tspan x="167" y="12" dx="0">}</tspan></text><text stroke="none" fill="#66413F" transform="translate(623 145)"><tspan x="0" y="12" dx="0">+</tspan></text><text stroke="none" fill="#66413F" transform="translate(644 145)"><tspan x="0" y="12" dx="0">noemer: Characterstring [0..1]</tspan></text><rect x="985" y="397" width="197" height="115" stroke="none" fill="#D0D0D0"/><rect x="982" y="394" width="196" height="114" stroke="none" fill="#FFE4E1"/><rect x="982" y="394" width="196" height="115"/><rect x="982" y="394" width="196" height="114"/><text stroke="none" fill="#000000" transform="translate(1044 400)"><tspan x="0" y="12" dx="0">«</tspan><tspan x="6" y="12" dx="0">O</tspan><tspan x="15" y="12" dx="0">b</tspan><tspan x="22" y="12" dx="0">j</tspan><tspan x="25" y="12" dx="0">e</tspan><tspan x="32" y="12" dx="0">c</tspan><tspan x="38" y="12" dx="0 0">tt</tspan><tspan x="46" y="12" dx="0">y</tspan><tspan x="51" y="12" dx="0">p</tspan><tspan x="58" y="12" dx="0">e</tspan><tspan x="66" y="12" dx="0">»</tspan></text><text stroke="none" fill="#000000" font-weight="700" transform="translate(1062 415)"><tspan x="0" y="12" dx="0">Gebied</tspan></text><path d="M982 435 1178 435"/><text stroke="none" fill="#000000" transform="translate(995 443)"><tspan x="0" y="12" dx="0">«</tspan><tspan x="6" y="12" dx="0">A</tspan><tspan x="14" y="12" dx="0 0">tt</tspan><tspan x="22" y="12" dx="0">r</tspan><tspan x="26" y="12" dx="0">i</tspan><tspan x="30" y="12" dx="0">b</tspan><tspan x="38" y="12" dx="0">u</tspan><tspan x="45" y="12" dx="0">u</tspan><tspan x="52" y="12" dx="0">t</tspan><tspan x="56" y="12" dx="0">s</tspan><tspan x="63" y="12" dx="0">o</tspan><tspan x="70" y="12" dx="0">o</tspan><tspan x="77" y="12" dx="0">r</tspan><tspan x="81" y="12" dx="0">t</tspan><tspan x="86" y="12" dx="0">»</tspan></text><text stroke="none" fill="#66413F" transform="translate(987 458)"><tspan x="0" y="12" dx="0">+</tspan></text><text stroke="none" fill="#66413F" transform="translate(1008 458)"><tspan x="0" y="12" dx="0">g</tspan><tspan x="6" y="12" dx="0">e</tspan><tspan x="14" y="12" dx="0">o</tspan><tspan x="21" y="12" dx="0">m</tspan><tspan x="31" y="12" dx="0">e</tspan><tspan x="39" y="12" dx="0">t</tspan><tspan x="43" y="12" dx="0">r</tspan><tspan x="47" y="12" dx="0">i</tspan><tspan x="51" y="12" dx="0">e</tspan><tspan x="58" y="12" dx="0">:</tspan><tspan x="62" y="12" dx="0"> </tspan><tspan x="65" y="12" dx="0">V</tspan><tspan x="72" y="12" dx="0">l</tspan><tspan x="76" y="12" dx="0">a</tspan><tspan x="83" y="12" dx="0">k</tspan><tspan x="90" y="12" dx="0">O</tspan><tspan x="98" y="12" dx="0">f</tspan><tspan x="102" y="12" dx="0">M</tspan><tspan x="113" y="12" dx="0">u</tspan><tspan x="120" y="12" dx="0">l</tspan><tspan x="124" y="12" dx="0 0">ti</tspan><tspan x="132" y="12" dx="0">v</tspan><tspan x="138" y="12" dx="0">l</tspan><tspan x="142" y="12" dx="0">a</tspan><tspan x="149" y="12" dx="0">k</tspan></text><text stroke="none" fill="#66413F" transform="translate(987 473)"><tspan x="0" y="12" dx="0">+</tspan></text><text stroke="none" fill="#66413F" transform="translate(1008 473)"><tspan x="0" y="12" dx="0">hoogte: WaardeEenheid [0..1]</tspan></text><text stroke="none" fill="#66413F" transform="translate(987 488)"><tspan x="0" y="12" dx="0">+</tspan></text><text stroke="none" fill="#66413F" transform="translate(1008 488)"><tspan x="0" y="12" dx="0">bron: Bron [0..1]</tspan></text><rect x="1037" y="229" width="121" height="71" stroke="none" fill="#D0D0D0"/><rect x="1034" y="226" width="120" height="70" stroke="none" fill="#FFE4E1"/><rect x="1034" y="226" width="120" height="71"/><rect x="1034" y="226" width="120" height="70"/><text stroke="none" fill="#000000" transform="translate(1058 232)"><tspan x="0" y="12" dx="0">«</tspan><tspan x="6" y="12" dx="0">O</tspan><tspan x="15" y="12" dx="0">b</tspan><tspan x="22" y="12" dx="0">j</tspan><tspan x="25" y="12" dx="0">e</tspan><tspan x="32" y="12" dx="0">c</tspan><tspan x="38" y="12" dx="0 0">tt</tspan><tspan x="46" y="12" dx="0">y</tspan><tspan x="51" y="12" dx="0">p</tspan><tspan x="58" y="12" dx="0">e</tspan><tspan x="66" y="12" dx="0">»</tspan></text><text stroke="none" fill="#000000" font-weight="700" transform="translate(1055 247)"><tspan x="0" y="12" dx="0">Gebiedengroep</tspan></text><rect x="488" y="397" width="197" height="115" stroke="none" fill="#D0D0D0"/><rect x="485" y="394" width="196" height="114" stroke="none" fill="#FFE4E1"/><rect x="485" y="394" width="196" height="115"/><rect x="485" y="394" width="196" height="114"/><text stroke="none" fill="#000000" transform="translate(547 400)"><tspan x="0" y="12" dx="0">«</tspan><tspan x="6" y="12" dx="0">O</tspan><tspan x="15" y="12" dx="0">b</tspan><tspan x="22" y="12" dx="0">j</tspan><tspan x="25" y="12" dx="0">e</tspan><tspan x="32" y="12" dx="0">c</tspan><tspan x="38" y="12" dx="0 0">tt</tspan><tspan x="46" y="12" dx="0">y</tspan><tspan x="51" y="12" dx="0">p</tspan><tspan x="58" y="12" dx="0">e</tspan><tspan x="66" y="12" dx="0">»</tspan></text><text stroke="none" fill="#000000" font-weight="700" transform="translate(572 415)"><tspan x="0" y="12" dx="0">Punt</tspan></text><path d="M485 435 681 435"/><text stroke="none" fill="#000000" transform="translate(498 443)"><tspan x="0" y="12" dx="0">«</tspan><tspan x="6" y="12" dx="0">A</tspan><tspan x="14" y="12" dx="0 0">tt</tspan><tspan x="22" y="12" dx="0">r</tspan><tspan x="26" y="12" dx="0">i</tspan><tspan x="30" y="12" dx="0">b</tspan><tspan x="38" y="12" dx="0">u</tspan><tspan x="45" y="12" dx="0">u</tspan><tspan x="52" y="12" dx="0">t</tspan><tspan x="56" y="12" dx="0">s</tspan><tspan x="63" y="12" dx="0">o</tspan><tspan x="70" y="12" dx="0">o</tspan><tspan x="77" y="12" dx="0">r</tspan><tspan x="81" y="12" dx="0">t</tspan><tspan x="86" y="12" dx="0">»</tspan></text><text stroke="none" fill="#66413F" transform="translate(490 458)"><tspan x="0" y="12" dx="0">+</tspan></text><text stroke="none" fill="#66413F" transform="translate(511 458)"><tspan x="0" y="12" dx="0">geometrie: GM_Point</tspan></text><text stroke="none" fill="#66413F" transform="translate(490 473)"><tspan x="0" y="12" dx="0">+</tspan></text><text stroke="none" fill="#66413F" transform="translate(511 473)"><tspan x="0" y="12" dx="0">hoogte: WaardeEenheid [0..1]</tspan></text><text stroke="none" fill="#66413F" transform="translate(490 488)"><tspan x="0" y="12" dx="0">+</tspan></text><text stroke="none" fill="#66413F" transform="translate(511 488)"><tspan x="0" y="12" dx="0">bron: Bron [0..1]</tspan></text><rect x="748" y="397" width="197" height="115" stroke="none" fill="#D0D0D0"/><rect x="745" y="394" width="196" height="114" stroke="none" fill="#FFE4E1"/><rect x="745" y="394" width="196" height="115"/><rect x="745" y="394" width="196" height="114"/><text stroke="none" fill="#000000" transform="translate(807 400)"><tspan x="0" y="12" dx="0">«</tspan><tspan x="6" y="12" dx="0">O</tspan><tspan x="15" y="12" dx="0">b</tspan><tspan x="22" y="12" dx="0">j</tspan><tspan x="25" y="12" dx="0">e</tspan><tspan x="32" y="12" dx="0">c</tspan><tspan x="38" y="12" dx="0 0">tt</tspan><tspan x="46" y="12" dx="0">y</tspan><tspan x="51" y="12" dx="0">p</tspan><tspan x="58" y="12" dx="0">e</tspan><tspan x="66" y="12" dx="0">»</tspan></text><text stroke="none" fill="#000000" font-weight="700" transform="translate(834 415)"><tspan x="0" y="12" dx="0">Lijn</tspan></text><path d="M745 435 941 435"/><text stroke="none" fill="#000000" transform="translate(758 443)"><tspan x="0" y="12" dx="0">«</tspan><tspan x="6" y="12" dx="0">A</tspan><tspan x="14" y="12" dx="0 0">tt</tspan><tspan x="22" y="12" dx="0">r</tspan><tspan x="26" y="12" dx="0">i</tspan><tspan x="30" y="12" dx="0">b</tspan><tspan x="38" y="12" dx="0">u</tspan><tspan x="45" y="12" dx="0">u</tspan><tspan x="52" y="12" dx="0">t</tspan><tspan x="56" y="12" dx="0">s</tspan><tspan x="63" y="12" dx="0">o</tspan><tspan x="70" y="12" dx="0">o</tspan><tspan x="77" y="12" dx="0">r</tspan><tspan x="81" y="12" dx="0">t</tspan><tspan x="86" y="12" dx="0">»</tspan></text><text stroke="none" fill="#66413F" transform="translate(750 458)"><tspan x="0" y="12" dx="0">+</tspan></text><text stroke="none" fill="#66413F" transform="translate(771 458)"><tspan x="0" y="12" dx="0">geome</tspan></text><text stroke="none" fill="#66413F" transform="translate(810 458)"><tspan x="0" y="12" dx="0">trie: GM_LineString [0..1]</tspan></text><text stroke="none" fill="#66413F" transform="translate(750 473)"><tspan x="0" y="12" dx="0">+</tspan></text><text stroke="none" fill="#66413F" transform="translate(771 473)"><tspan x="0" y="12" dx="0">hoogte: WaardeEenheid [0..1]</tspan></text><text stroke="none" fill="#66413F" transform="translate(750 488)"><tspan x="0" y="12" dx="0">+</tspan></text><text stroke="none" fill="#66413F" transform="translate(771 488)"><tspan x="0" y="12" dx="0">bron: Bron [0..1]</tspan></text><rect x="562" y="229" width="121" height="71" stroke="none" fill="#D0D0D0"/><rect x="559" y="226" width="120" height="70" stroke="none" fill="#FFE4E1"/><rect x="559" y="226" width="120" height="71"/><rect x="559" y="226" width="120" height="70"/><text stroke="none" fill="#000000" transform="translate(583 232)"><tspan x="0" y="12" dx="0">«</tspan><tspan x="6" y="12" dx="0">O</tspan><tspan x="15" y="12" dx="0">b</tspan><tspan x="22" y="12" dx="0">j</tspan><tspan x="25" y="12" dx="0">e</tspan><tspan x="32" y="12" dx="0">c</tspan><tspan x="38" y="12" dx="0 0">tt</tspan><tspan x="46" y="12" dx="0">y</tspan><tspan x="51" y="12" dx="0">p</tspan><tspan x="58" y="12" dx="0">e</tspan><tspan x="66" y="12" dx="0">»</tspan></text><text stroke="none" fill="#000000" font-weight="700" transform="translate(587 247)"><tspan x="0" y="12" dx="0">Puntengroep</tspan></text><rect x="796" y="229" width="121" height="71" stroke="none" fill="#D0D0D0"/><rect x="793" y="226" width="120" height="70" stroke="none" fill="#FFE4E1"/><rect x="793" y="226" width="120" height="71"/><rect x="793" y="226" width="120" height="70"/><text stroke="none" fill="#000000" transform="translate(817 232)"><tspan x="0" y="12" dx="0">«</tspan><tspan x="6" y="12" dx="0">O</tspan><tspan x="15" y="12" dx="0">b</tspan><tspan x="22" y="12" dx="0">j</tspan><tspan x="25" y="12" dx="0">e</tspan><tspan x="32" y="12" dx="0">c</tspan><tspan x="38" y="12" dx="0 0">tt</tspan><tspan x="46" y="12" dx="0">y</tspan><tspan x="51" y="12" dx="0">p</tspan><tspan x="58" y="12" dx="0">e</tspan><tspan x="66" y="12" dx="0">»</tspan></text><text stroke="none" fill="#000000" font-weight="700" transform="translate(824 247)"><tspan x="0" y="12" dx="0">Lijnengroep</tspan></text><rect x="596" y="545" width="166" height="99" stroke="none" fill="#D0D0D0"/><rect x="593" y="542" width="165" height="98" stroke="none" fill="#FBF9C6"/><rect x="593" y="542" width="165" height="99" stroke="#9A8484"/><rect x="593" y="542" width="165" height="98" stroke="#9A8484"/><text stroke="none" fill="#595959" transform="translate(608 548)"><tspan x="0" y="12" dx="0">«Gestructureerd dataty...</tspan></text><text stroke="none" fill="#595959" font-weight="700" transform="translate(635 563)"><tspan x="0" y="12" dx="0">WaardeEenheid</tspan></text><path d="M593 583 758 583" stroke="#9A8484"/><text stroke="none" fill="#595959" transform="translate(606 591)"><tspan x="0" y="12" dx="0">«Data element»</tspan></text><text stroke="none" fill="#66413F" transform="translate(598 606)"><tspan x="0" y="12" dx="0">+</tspan></text><text stroke="none" fill="#66413F" transform="translate(619 606)"><tspan x="0" y="12" dx="0">waarde: Real</tspan></text><text stroke="none" fill="#66413F" transform="translate(598 621)"><tspan x="0" y="12" dx="0">+</tspan></text><text stroke="none" fill="#66413F" transform="translate(619 621)"><tspan x="0" y="12" dx="0">eenheid: Characte</tspan></text><text stroke="none" fill="#66413F" transform="translate(722 621)"><tspan x="0" y="12" dx="0">rString</tspan></text><rect x="75" y="397" width="371" height="118" stroke="none" fill="#D0D0D0"/><rect x="72" y="394" width="370" height="117" stroke="none" fill="#FFE4E1"/><rect x="72" y="394" width="370" height="118"/><rect x="72" y="394" width="370" height="117"/><text stroke="none" fill="#000000" transform="translate(221 400)"><tspan x="0" y="12" dx="0">«</tspan><tspan x="6" y="12" dx="0">O</tspan><tspan x="15" y="12" dx="0">b</tspan><tspan x="22" y="12" dx="0">j</tspan><tspan x="25" y="12" dx="0">e</tspan><tspan x="32" y="12" dx="0">c</tspan><tspan x="38" y="12" dx="0 0">tt</tspan><tspan x="46" y="12" dx="0">y</tspan><tspan x="51" y="12" dx="0">p</tspan><tspan x="58" y="12" dx="0">e</tspan><tspan x="66" y="12" dx="0">»</tspan></text><text stroke="none" fill="#000000" font-weight="700" transform="translate(223 415)"><tspan x="0" y="12" dx="0">Ambtsgebied</tspan></text><path d="M72 435 442 435"/><text stroke="none" fill="#000000" transform="translate(85 443)"><tspan x="0" y="12" dx="0">«Gegevensgroep»</tspan></text><text stroke="none" fill="#66413F" transform="translate(77 458)"><tspan x="0" y="12" dx="0">+</tspan></text><text stroke="none" fill="#66413F" transform="translate(98 458)"><tspan x="0" y="12" dx="0">bestuurlijkeGrenzenVerwijzing: Bestuurlijke</tspan></text><text stroke="none" fill="#66413F" transform="translate(347 458)"><tspan x="0" y="12" dx="0">GrenzenVerwijzing</tspan></text><text stroke="none" fill="#000000" transform="translate(85 477)"><tspan x="0" y="12" dx="0">«</tspan><tspan x="6" y="12" dx="0">A</tspan><tspan x="14" y="12" dx="0 0">tt</tspan><tspan x="22" y="12" dx="0">r</tspan><tspan x="26" y="12" dx="0">i</tspan><tspan x="30" y="12" dx="0">b</tspan><tspan x="38" y="12" dx="0">u</tspan><tspan x="45" y="12" dx="0">u</tspan><tspan x="52" y="12" dx="0">t</tspan><tspan x="56" y="12" dx="0">s</tspan><tspan x="63" y="12" dx="0">o</tspan><tspan x="70" y="12" dx="0">o</tspan><tspan x="77" y="12" dx="0">r</tspan><tspan x="81" y="12" dx="0">t</tspan><tspan x="86" y="12" dx="0">»</tspan></text><text stroke="none" fill="#66413F" transform="translate(77 492)"><tspan x="0" y="12" dx="0">+</tspan></text><text stroke="none" fill="#66413F" transform="translate(98 492)"><tspan x="0" y="12" dx="0">g</tspan><tspan x="6" y="12" dx="0">e</tspan><tspan x="14" y="12" dx="0">o</tspan><tspan x="21" y="12" dx="0">m</tspan><tspan x="31" y="12" dx="0">e</tspan><tspan x="39" y="12" dx="0">t</tspan><tspan x="43" y="12" dx="0">r</tspan><tspan x="47" y="12" dx="0">i</tspan><tspan x="51" y="12" dx="0">e</tspan><tspan x="58" y="12" dx="0">:</tspan><tspan x="62" y="12" dx="0"> </tspan><tspan x="65" y="12" dx="0">V</tspan><tspan x="72" y="12" dx="0">l</tspan><tspan x="76" y="12" dx="0">a</tspan><tspan x="83" y="12" dx="0">k</tspan><tspan x="90" y="12" dx="0">O</tspan><tspan x="98" y="12" dx="0">f</tspan><tspan x="102" y="12" dx="0">M</tspan><tspan x="113" y="12" dx="0">u</tspan><tspan x="120" y="12" dx="0">l</tspan><tspan x="124" y="12" dx="0 0">ti</tspan><tspan x="132" y="12" dx="0">v</tspan><tspan x="138" y="12" dx="0">l</tspan><tspan x="142" y="12" dx="0">a</tspan><tspan x="149" y="12" dx="0">k</tspan></text><rect x="898" y="541" width="185" height="106" stroke="none" fill="#D0D0D0"/><rect x="895" y="538" width="184" height="105" stroke="none" fill="#D8BFD8"/><rect x="895" y="538" width="184" height="106" stroke="#9A8484"/><rect x="895" y="538" width="184" height="105" stroke="#9A8484"/><text stroke="none" fill="#595959" transform="translate(964 544)"><tspan x="0" y="12" dx="0">«Union»</tspan></text><text stroke="none" fill="#595959" font-weight="700" transform="translate(945 559)"><tspan x="0" y="12" dx="0">V</tspan><tspan x="7" y="12" dx="0">l</tspan><tspan x="10" y="12" dx="0">a</tspan><tspan x="17" y="12" dx="0">k</tspan><tspan x="23" y="12" dx="0">O</tspan><tspan x="31" y="12" dx="0">f</tspan><tspan x="35" y="12" dx="0">M</tspan><tspan x="46" y="12" dx="0">u</tspan><tspan x="52" y="12" dx="0">l</tspan><tspan x="55" y="12" dx="0 0">ti</tspan><tspan x="63" y="12" dx="0">v</tspan><tspan x="69" y="12" dx="0">l</tspan><tspan x="72" y="12" dx="0">a</tspan><tspan x="78" y="12" dx="0">k</tspan></text><path d="M895 579 1079 579" stroke="#9A8484"/><text stroke="none" fill="#595959" transform="translate(908 587)"><tspan x="0" y="12" dx="0">«Keuze element, Union ele...</tspan></text><text stroke="none" fill="#66413F" transform="translate(900 602)"><tspan x="0" y="12" dx="0">+</tspan></text><text stroke="none" fill="#66413F" transform="translate(921 602)"><tspan x="0" y="12" dx="0">m</tspan><tspan x="10" y="12" dx="0">u</tspan><tspan x="18" y="12" dx="0">l</tspan><tspan x="22" y="12" dx="0 0">ti</tspan><tspan x="30" y="12" dx="0">v</tspan><tspan x="35" y="12" dx="0">l</tspan><tspan x="40" y="12" dx="0">a</tspan><tspan x="47" y="12" dx="0">k</tspan><tspan x="53" y="12" dx="0">:</tspan><tspan x="56" y="12" dx="0"> </tspan><tspan x="59" y="12" dx="0">G</tspan><tspan x="68" y="12" dx="0">M</tspan><tspan x="78" y="12" dx="0">_</tspan><tspan x="84" y="12" dx="0">M</tspan><tspan x="95" y="12" dx="0">u</tspan><tspan x="102" y="12" dx="0">l</tspan><tspan x="106" y="12" dx="0 0">ti</tspan><tspan x="115" y="12" dx="0">S</tspan><tspan x="121" y="12" dx="0">u</tspan><tspan x="128" y="12" dx="0">r</tspan><tspan x="132" y="12" dx="0">f</tspan><tspan x="137" y="12" dx="0">a</tspan><tspan x="144" y="12" dx="0">c</tspan><tspan x="149" y="12" dx="0">e</tspan></text><text stroke="none" fill="#66413F" transform="translate(900 617)"><tspan x="0" y="12" dx="0">+</tspan></text><text stroke="none" fill="#66413F" transform="translate(921 617)"><tspan x="0" y="12" dx="0">vlak: GM_Surface</tspan></text><rect x="201" y="545" width="245" height="114" stroke="none" fill="#D0D0D0"/><rect x="198" y="542" width="244" height="113" stroke="none" fill="#FFE4E1"/><rect x="198" y="542" width="244" height="114" stroke="#9A8484"/><rect x="198" y="542" width="244" height="113" stroke="#9A8484"/><text stroke="none" fill="#000000" transform="translate(261 548)"><tspan x="0" y="12" dx="0">«Gegevensgroeptype»</tspan></text><text stroke="none" fill="#000000" font-weight="700" transform="translate(241 563)"><tspan x="0" y="12" dx="0">BestuurlijkeGrenzenVerwijzing</tspan></text><path d="M198 583 442 583" stroke="#9A8484"/><text stroke="none" fill="#000000" transform="translate(211 591)"><tspan x="0" y="12" dx="0">«</tspan><tspan x="6" y="12" dx="0">A</tspan><tspan x="14" y="12" dx="0 0">tt</tspan><tspan x="22" y="12" dx="0">r</tspan><tspan x="26" y="12" dx="0">i</tspan><tspan x="30" y="12" dx="0">b</tspan><tspan x="38" y="12" dx="0">u</tspan><tspan x="45" y="12" dx="0">u</tspan><tspan x="52" y="12" dx="0">t</tspan><tspan x="56" y="12" dx="0">s</tspan><tspan x="63" y="12" dx="0">o</tspan><tspan x="70" y="12" dx="0">o</tspan><tspan x="77" y="12" dx="0">r</tspan><tspan x="81" y="12" dx="0">t</tspan><tspan x="86" y="12" dx="0">»</tspan></text><text stroke="none" fill="#66413F" transform="translate(203 606)"><tspan x="0" y="12" dx="0">+</tspan></text><text stroke="none" fill="#66413F" transform="translate(224 606)"><tspan x="0" y="12" dx="0">domein: CharacterString</tspan></text><text stroke="none" fill="#66413F" transform="translate(203 621)"><tspan x="0" y="12" dx="0">+</tspan></text><text stroke="none" fill="#66413F" transform="translate(224 621)"><tspan x="0" y="12" dx="0">bestuurlijkeGrenzenID: Charact</tspan></text><text stroke="none" fill="#66413F" transform="translate(400 621)"><tspan x="0" y="12" dx="0">erString</tspan></text><text stroke="none" fill="#66413F" transform="translate(203 636)"><tspan x="0" y="12" dx="0">+</tspan></text><text stroke="none" fill="#66413F" transform="translate(224 636)"><tspan x="0" y="12" dx="0">geldigOp: Date</tspan></text><path d="M848 297 849 394M849 394 843 379M849 394 855 379" stroke="#69738C" stroke-width="2"/><path d="M787 394 787 215" stroke="#69738C" stroke-width="2"/><path d="M718 215 718 165" stroke="#69738C" stroke-width="2"/><path d="M724 181 712 181 718 165 724 181" stroke="#69738C" stroke-width="2" fill="#FAF1EC"/><path d="M853 226 853 215" stroke="#69738C" stroke-width="2"/><path d="M1094 226 1094 215M1094 215 718 215" stroke="#69738C" stroke-width="2"/><path d="M1008 394 1008 215" stroke="#69738C" stroke-width="2"/><path d="M631 226 631 215" stroke="#69738C" stroke-width="2"/><path d="M280 394 280 215M280 215 718 215" stroke="#69738C" stroke-width="2"/><path d="M534 394 534 215" stroke="#69738C" stroke-width="2"/><path d="M622 297 623 394M623 394 617 379M623 394 629 379" stroke="#69738C" stroke-width="2"/><path d="M1094 297 1097 394M1097 394 1091 379M1097 394 1103 379" stroke="#69738C" stroke-width="2"/><g transform="matrix(1 0 0 -1 775 302)"><rect x="0" y="-13" width="68" height="13" stroke="none" fill="#FFFFFF"/></g><text stroke="none" fill="#595959" font-size="10" transform="translate(775 302)"><tspan x="0" y="10" dx="0">+gegroepeerd in</tspan></text><g transform="matrix(1 0 0 -1 856 302)"><rect x="0" y="-13" width="17" height="13" stroke="none" fill="#FFFFFF"/></g><text stroke="none" fill="#595959" font-size="10" transform="translate(856 302)"><tspan x="0" y="10" dx="0">0..*</tspan></text><g transform="matrix(1 0 0 -1 832 332)"><rect x="0" y="-13" width="27" height="13" stroke="none" fill="#FFFFFF"/></g><text stroke="none" fill="#595959" font-size="10" transform="translate(832 332)"><tspan x="0" y="10" dx="0">omvat</tspan></text><g transform="matrix(1 0 0 -1 859 360)"><rect x="0" y="-13" width="68" height="13" stroke="none" fill="#FFFFFF"/></g><text stroke="none" fill="#595959" font-size="10" transform="translate(859 360)"><tspan x="0" y="10" dx="0">+groepselement</tspan></text><g transform="matrix(1 0 0 -1 867 373)"><rect x="0" y="-13" width="49" height="13" stroke="none" fill="#FFFFFF"/></g><text stroke="none" fill="#595959" font-size="10" transform="translate(867 373)"><tspan x="0" y="10" dx="0">«</tspan><tspan x="5" y="10" dx="0">R</tspan><tspan x="10.3333" y="10" dx="0">e</tspan><tspan x="15.3333" y="10" dx="0">l</tspan><tspan x="17.6667" y="10" dx="0">a</tspan><tspan x="22.3333" y="10" dx="0 0">ti</tspan><tspan x="28" y="10" dx="0">e</tspan><tspan x="33" y="10" dx="0">r</tspan><tspan x="36.3333" y="10" dx="0">o</tspan><tspan x="41.6667" y="10" dx="0">l</tspan><tspan x="44" y="10" dx="0">»</tspan></text><g transform="matrix(1 0 0 -1 822 375)"><rect x="0" y="-13" width="17" height="13" stroke="none" fill="#FFFFFF"/></g><text stroke="none" fill="#595959" font-size="10" transform="translate(822 375)"><tspan x="0" y="10" dx="0">1..*</tspan></text><g transform="matrix(1 0 0 -1 549 302)"><rect x="0" y="-13" width="68" height="13" stroke="none" fill="#FFFFFF"/></g><text stroke="none" fill="#595959" font-size="10" transform="translate(549 302)"><tspan x="0" y="10" dx="0">+gegroepeerd in</tspan></text><g transform="matrix(1 0 0 -1 630 302)"><rect x="0" y="-13" width="17" height="13" stroke="none" fill="#FFFFFF"/></g><text stroke="none" fill="#595959" font-size="10" transform="translate(630 302)"><tspan x="0" y="10" dx="0">0..*</tspan></text><g transform="matrix(1 0 0 -1 630 335)"><rect x="0" y="-13" width="27" height="13" stroke="none" fill="#FFFFFF"/></g><text stroke="none" fill="#595959" font-size="10" transform="translate(630 335)"><tspan x="0" y="10" dx="0">omvat</tspan></text><g transform="matrix(1 0 0 -1 552 362)"><rect x="0" y="-13" width="68" height="13" stroke="none" fill="#FFFFFF"/></g><text stroke="none" fill="#595959" font-size="10" transform="translate(552 362)"><tspan x="0" y="10" dx="0">+groepselement</tspan></text><g transform="matrix(1 0 0 -1 560 375)"><rect x="0" y="-13" width="49" height="13" stroke="none" fill="#FFFFFF"/></g><text stroke="none" fill="#595959" font-size="10" transform="translate(560 375)"><tspan x="0" y="10" dx="0">«</tspan><tspan x="5" y="10" dx="0">R</tspan><tspan x="10.3333" y="10" dx="0">e</tspan><tspan x="15.3333" y="10" dx="0">l</tspan><tspan x="17.6667" y="10" dx="0">a</tspan><tspan x="22.3333" y="10" dx="0 0">ti</tspan><tspan x="28" y="10" dx="0">e</tspan><tspan x="33" y="10" dx="0">r</tspan><tspan x="36.3333" y="10" dx="0">o</tspan><tspan x="41.6667" y="10" dx="0">l</tspan><tspan x="44" y="10" dx="0">»</tspan></text><g transform="matrix(1 0 0 -1 631 372)"><rect x="0" y="-13" width="17" height="13" stroke="none" fill="#FFFFFF"/></g><text stroke="none" fill="#595959" font-size="10" transform="translate(631 372)"><tspan x="0" y="10" dx="0">1..*</tspan></text><g transform="matrix(1 0 0 -1 1022 304)"><rect x="0" y="-13" width="68" height="13" stroke="none" fill="#FFFFFF"/></g><text stroke="none" fill="#595959" font-size="10" transform="translate(1022 304)"><tspan x="0" y="10" dx="0">+gegroepeerd in</tspan></text><g transform="matrix(1 0 0 -1 1102 302)"><rect x="0" y="-13" width="17" height="13" stroke="none" fill="#FFFFFF"/></g><text stroke="none" fill="#595959" font-size="10" transform="translate(1102 302)"><tspan x="0" y="10" dx="0">0..*</tspan></text><g transform="matrix(1 0 0 -1 1081 333)"><rect x="0" y="-13" width="27" height="13" stroke="none" fill="#FFFFFF"/></g><text stroke="none" fill="#595959" font-size="10" transform="translate(1081 333)"><tspan x="0" y="10" dx="0">omvat</tspan></text><g transform="matrix(1 0 0 -1 1122 363)"><rect x="0" y="-13" width="68" height="13" stroke="none" fill="#FFFFFF"/></g><text stroke="none" fill="#595959" font-size="10" transform="translate(1122 363)"><tspan x="0" y="10" dx="0">+groepselement</tspan></text><g transform="matrix(1 0 0 -1 1130 376)"><rect x="0" y="-13" width="49" height="13" stroke="none" fill="#FFFFFF"/></g><text stroke="none" fill="#595959" font-size="10" transform="translate(1130 376)"><tspan x="0" y="10" dx="0">«</tspan><tspan x="5" y="10" dx="0">R</tspan><tspan x="10.3333" y="10" dx="0">e</tspan><tspan x="15.3333" y="10" dx="0">l</tspan><tspan x="17.6667" y="10" dx="0">a</tspan><tspan x="22.3333" y="10" dx="0 0">ti</tspan><tspan x="28" y="10" dx="0">e</tspan><tspan x="33" y="10" dx="0">r</tspan><tspan x="36.3333" y="10" dx="0">o</tspan><tspan x="41.6667" y="10" dx="0">l</tspan><tspan x="44" y="10" dx="0">»</tspan></text><g transform="matrix(1 0 0 -1 1101 369)"><rect x="0" y="-13" width="17" height="13" stroke="none" fill="#FFFFFF"/></g><text stroke="none" fill="#595959" font-size="10" transform="translate(1101 369)"><tspan x="0" y="10" dx="0">1..*</tspan></text></g></g></g></g></svg>