<svg width="745.841" height="553.83" viewBox="106.434 10.0593 559.381 415.372" xmlns="http://www.w3.org/2000/svg" xmlns:xlink="http://www.w3.org/1999/xlink" overflow="hidden"><g transform="matrix(1 0 0 -1 0 841)"><g stroke="#000000" stroke-linecap="round" stroke-linejoin="round" stroke-miterlimit="3" fill="none" fill-rule="evenodd" font-weight="400" baseline-shift="0"><g transform="matrix(0.6 0 0 0.6 0 841.65)"><g font-family="CalibriUnicode" font-size="13" transform="scale(1.19952 -1.19932)"><path d="M162 235C162 230 162 230 167 230L418 230C423 230 423 230 423 235L423 355C423 360 423 360 418 360L167 360C162 360 162 360 162 355L162 235" stroke="none" fill="#DFDFDF"/><path d="M159 232C159 227 159 227 164 227L415 227C420 227 420 227 420 232L420 352C420 357 420 357 415 357L164 357C159 357 159 357 159 352L159 232" stroke="none" stroke-width="2" fill="#CCFFFF"/><path d="M159 232C159 227 159 227 164 227L415 227C420 227 420 227 420 232L420 352C420 357 420 357 415 357L164 357C159 357 159 357 159 352L159 232M159 232C159 227 159 227 164 227L415 227C420 227 420 227 420 232L420 352C420 357 420 357 415 357L164 357C159 357 159 357 159 352L159 232" stroke-width="2"/><text stroke="none" fill="#000000" transform="translate(253 233)"><tspan x="0" y="13" dx="0">«</tspan><tspan x="7" y="13" dx="0">O</tspan><tspan x="16" y="13" dx="0">b</tspan><tspan x="23" y="13" dx="0">j</tspan><tspan x="26" y="13" dx="0">e</tspan><tspan x="33" y="13" dx="0">c</tspan><tspan x="38" y="13" dx="0 0">tt</tspan><tspan x="47" y="13" dx="0">y</tspan><tspan x="53" y="13" dx="0">p</tspan><tspan x="59" y="13" dx="0">e</tspan><tspan x="66" y="13" dx="0">»</tspan></text><text stroke="none" fill="#000000" font-weight="700" transform="translate(263 248)"><tspan x="0" y="13" dx="0">Tekstdeel</tspan></text><path d="M159 268 420 268" stroke-width="2"/><text stroke="none" fill="#000000" transform="translate(172 276)"><tspan x="0" y="13" dx="0">«</tspan><tspan x="7" y="13" dx="0">A</tspan><tspan x="14" y="13" dx="0 0">tt</tspan><tspan x="23" y="13" dx="0">r</tspan><tspan x="27" y="13" dx="0">i</tspan><tspan x="30" y="13" dx="0">b</tspan><tspan x="37" y="13" dx="0">u</tspan><tspan x="43" y="13" dx="0">u</tspan><tspan x="50" y="13" dx="0">t</tspan><tspan x="54" y="13" dx="0">s</tspan><tspan x="60" y="13" dx="0">o</tspan><tspan x="67" y="13" dx="0">o</tspan><tspan x="73" y="13" dx="0">r</tspan><tspan x="78" y="13" dx="0">t</tspan><tspan x="82" y="13" dx="0">»</tspan></text><text stroke="none" fill="#2F4F4F" transform="translate(164 291)"><tspan x="0" y="13" dx="0">+</tspan></text><text stroke="none" fill="#2F4F4F" transform="translate(185 291)"><tspan x="0" y="13" dx="0">i</tspan><tspan x="3" y="13" dx="0">d</tspan><tspan x="10" y="13" dx="0">e</tspan><tspan x="17" y="13" dx="0">n</tspan><tspan x="23" y="13" dx="0 0">ti</tspan><tspan x="31" y="13" dx="0 0">fi</tspan><tspan x="38" y="13" dx="0">c</tspan><tspan x="44" y="13" dx="0">a</tspan><tspan x="51" y="13" dx="0 0">ti</tspan><tspan x="58" y="13" dx="0">e</tspan><tspan x="65" y="13" dx="0">:</tspan><tspan x="68" y="13" dx="0"> </tspan><tspan x="72" y="13" dx="0">I</tspan><tspan x="75" y="13" dx="0">d</tspan><tspan x="82" y="13" dx="0">e</tspan><tspan x="88" y="13" dx="0">n</tspan><tspan x="95" y="13" dx="0 0">ti</tspan><tspan x="103" y="13" dx="0 0">fi</tspan><tspan x="110" y="13" dx="0">c</tspan><tspan x="116" y="13" dx="0">a</tspan><tspan x="123" y="13" dx="0 0">ti</tspan><tspan x="130" y="13" dx="0">e</tspan><tspan x="137" y="13" dx="0"> </tspan><tspan x="140" y="13" dx="0">{</tspan><tspan x="144" y="13" dx="0">i</tspan><tspan x="148" y="13" dx="0">d</tspan><tspan x="154" y="13" dx="0">}</tspan></text><text stroke="none" fill="#2F4F4F" transform="translate(164 306)"><tspan x="0" y="13" dx="0">+</tspan></text><text stroke="none" fill="#2F4F4F" transform="translate(185 306)"><tspan x="0" y="13" dx="0">i</tspan><tspan x="3" y="13" dx="0">d</tspan><tspan x="10" y="13" dx="0">e</tspan><tspan x="17" y="13" dx="0">a</tspan><tspan x="23" y="13" dx="0">l</tspan><tspan x="27" y="13" dx="0">i</tspan><tspan x="30" y="13" dx="0">s</tspan><tspan x="36" y="13" dx="0">a</tspan><tspan x="43" y="13" dx="0 0">ti</tspan><tspan x="50" y="13" dx="0">e</tspan><tspan x="57" y="13" dx="0">:</tspan><tspan x="60" y="13" dx="0"> </tspan><tspan x="63" y="13" dx="0">I</tspan><tspan x="67" y="13" dx="0">d</tspan><tspan x="73" y="13" dx="0">e</tspan><tspan x="80" y="13" dx="0">a</tspan><tspan x="87" y="13" dx="0">l</tspan><tspan x="90" y="13" dx="0">i</tspan><tspan x="93" y="13" dx="0">s</tspan><tspan x="99" y="13" dx="0">a</tspan><tspan x="106" y="13" dx="0 0">ti</tspan><tspan x="113" y="13" dx="0">e</tspan><tspan x="120" y="13" dx="0"> </tspan><tspan x="123" y="13" dx="0">[</tspan><tspan x="128" y="13" dx="0">0</tspan><tspan x="134" y="13" dx="0">.</tspan><tspan x="138" y="13" dx="0">.</tspan><tspan x="141" y="13" dx="0">1</tspan><tspan x="148" y="13" dx="0">]</tspan></text><text stroke="none" fill="#2F4F4F" transform="translate(164 321)"><tspan x="0" y="13" dx="0">+</tspan></text><text stroke="none" fill="#2F4F4F" transform="translate(185 321)"><tspan x="0" y="13" dx="0">omschrijving: CharacterString</tspan></text><text stroke="none" fill="#2F4F4F" transform="translate(164 336)"><tspan x="0" y="13" dx="0">+</tspan></text><text stroke="none" fill="#2F4F4F" transform="translate(185 336)"><tspan x="0" y="13" dx="0">thema: Thema [0..*]</tspan></text><text stroke="none" fill="#FF0000" font-family="ArialUnicode" font-style="italic" font-size="10" transform="translate(412 338)"><tspan x="0" y="8" dx="0">A</tspan></text><path d="M618 236C618 231 618 231 623 231L800 231C805 231 805 231 805 236L805 355C805 360 805 360 800 360L623 360C618 360 618 360 618 355L618 236" stroke="none" fill="#DFDFDF"/><path d="M615 233C615 228 615 228 620 228L797 228C802 228 802 228 802 233L802 352C802 357 802 357 797 357L620 357C615 357 615 357 615 352L615 233" stroke="none" stroke-width="2" fill="#CCFFFF"/><path d="M615 233C615 228 615 228 620 228L797 228C802 228 802 228 802 233L802 352C802 357 802 357 797 357L620 357C615 357 615 357 615 352L615 233M615 233C615 228 615 228 620 228L797 228C802 228 802 228 802 233L802 352C802 357 802 357 797 357L620 357C615 357 615 357 615 352L615 233" stroke-width="2"/><text stroke="none" fill="#000000" transform="translate(672 234)"><tspan x="0" y="13" dx="0">«</tspan><tspan x="7" y="13" dx="0">O</tspan><tspan x="16" y="13" dx="0">b</tspan><tspan x="23" y="13" dx="0">j</tspan><tspan x="26" y="13" dx="0">e</tspan><tspan x="33" y="13" dx="0">c</tspan><tspan x="38" y="13" dx="0 0">tt</tspan><tspan x="47" y="13" dx="0">y</tspan><tspan x="53" y="13" dx="0">p</tspan><tspan x="59" y="13" dx="0">e</tspan><tspan x="66" y="13" dx="0">»</tspan></text><text stroke="none" fill="#000000" font-weight="700" transform="translate(682 249)"><tspan x="0" y="13" dx="0">Hoofdlijn</tspan></text><path d="M615 269 802 269" stroke-width="2"/><text stroke="none" fill="#000000" transform="translate(628 277)"><tspan x="0" y="13" dx="0">«</tspan><tspan x="7" y="13" dx="0">A</tspan><tspan x="14" y="13" dx="0 0">tt</tspan><tspan x="23" y="13" dx="0">r</tspan><tspan x="27" y="13" dx="0">i</tspan><tspan x="30" y="13" dx="0">b</tspan><tspan x="37" y="13" dx="0">u</tspan><tspan x="43" y="13" dx="0">u</tspan><tspan x="50" y="13" dx="0">t</tspan><tspan x="54" y="13" dx="0">s</tspan><tspan x="60" y="13" dx="0">o</tspan><tspan x="67" y="13" dx="0">o</tspan><tspan x="73" y="13" dx="0">r</tspan><tspan x="78" y="13" dx="0">t</tspan><tspan x="82" y="13" dx="0">»</tspan></text><text stroke="none" fill="#2F4F4F" transform="translate(620 292)"><tspan x="0" y="13" dx="0">+</tspan></text><text stroke="none" fill="#2F4F4F" transform="translate(641 292)"><tspan x="0" y="13" dx="0">i</tspan><tspan x="3" y="13" dx="0">d</tspan><tspan x="10" y="13" dx="0">e</tspan><tspan x="17" y="13" dx="0">n</tspan><tspan x="23" y="13" dx="0 0">ti</tspan><tspan x="31" y="13" dx="0 0">fi</tspan><tspan x="38" y="13" dx="0">c</tspan><tspan x="44" y="13" dx="0">a</tspan><tspan x="51" y="13" dx="0 0">ti</tspan><tspan x="58" y="13" dx="0">e</tspan><tspan x="65" y="13" dx="0">:</tspan><tspan x="68" y="13" dx="0"> </tspan><tspan x="72" y="13" dx="0">I</tspan><tspan x="75" y="13" dx="0">d</tspan><tspan x="82" y="13" dx="0">e</tspan><tspan x="88" y="13" dx="0">n</tspan><tspan x="95" y="13" dx="0 0">ti</tspan><tspan x="103" y="13" dx="0 0">fi</tspan><tspan x="110" y="13" dx="0">c</tspan><tspan x="116" y="13" dx="0">a</tspan><tspan x="123" y="13" dx="0 0">ti</tspan><tspan x="130" y="13" dx="0">e</tspan><tspan x="137" y="13" dx="0"> </tspan><tspan x="140" y="13" dx="0">{</tspan><tspan x="144" y="13" dx="0">i</tspan><tspan x="148" y="13" dx="0">d</tspan><tspan x="154" y="13" dx="0">}</tspan></text><text stroke="none" fill="#2F4F4F" transform="translate(620 307)"><tspan x="0" y="13" dx="0">+</tspan></text><text stroke="none" fill="#2F4F4F" transform="translate(641 307)"><tspan x="0" y="13" dx="0">soort: CharacterString</tspan></text><text stroke="none" fill="#2F4F4F" transform="translate(620 322)"><tspan x="0" y="13" dx="0">+</tspan></text><text stroke="none" fill="#2F4F4F" transform="translate(641 322)"><tspan x="0" y="13" dx="0">naam: CharacterString</tspan></text><path d="M162 34C162 29 162 29 167 29L351 29C356 29 356 29 356 34L356 122C356 127 356 127 351 127L167 127C162 127 162 127 162 122L162 34" stroke="none" fill="#DFDFDF"/><path d="M159 31C159 26 159 26 164 26L348 26C353 26 353 26 353 31L353 119C353 124 353 124 348 124L164 124C159 124 159 124 159 119L159 31" stroke="none" stroke-width="2" fill="#00CCFF"/><path d="M159 31C159 26 159 26 164 26L348 26C353 26 353 26 353 31L353 119C353 124 353 124 348 124L164 124C159 124 159 124 159 119L159 31M159 31C159 26 159 26 164 26L348 26C353 26 353 26 353 31L353 119C353 124 353 124 348 124L164 124C159 124 159 124 159 119L159 31" stroke-width="2"/><text stroke="none" fill="#000000" transform="translate(220 32)"><tspan x="0" y="13" dx="0">«</tspan><tspan x="7" y="13" dx="0">O</tspan><tspan x="16" y="13" dx="0">b</tspan><tspan x="23" y="13" dx="0">j</tspan><tspan x="26" y="13" dx="0">e</tspan><tspan x="33" y="13" dx="0">c</tspan><tspan x="38" y="13" dx="0 0">tt</tspan><tspan x="47" y="13" dx="0">y</tspan><tspan x="53" y="13" dx="0">p</tspan><tspan x="59" y="13" dx="0">e</tspan><tspan x="66" y="13" dx="0">»</tspan></text><text stroke="none" fill="#000000" font-weight="700" transform="translate(238 47)"><tspan x="0" y="13" dx="0">Divisie</tspan></text><path d="M159 67 353 67" stroke-width="2"/><text stroke="none" fill="#000000" transform="translate(172 75)"><tspan x="0" y="13" dx="0">«</tspan><tspan x="7" y="13" dx="0">A</tspan><tspan x="14" y="13" dx="0 0">tt</tspan><tspan x="23" y="13" dx="0">r</tspan><tspan x="27" y="13" dx="0">i</tspan><tspan x="30" y="13" dx="0">b</tspan><tspan x="37" y="13" dx="0">u</tspan><tspan x="43" y="13" dx="0">u</tspan><tspan x="50" y="13" dx="0">t</tspan><tspan x="54" y="13" dx="0">s</tspan><tspan x="60" y="13" dx="0">o</tspan><tspan x="67" y="13" dx="0">o</tspan><tspan x="73" y="13" dx="0">r</tspan><tspan x="78" y="13" dx="0">t</tspan><tspan x="82" y="13" dx="0">»</tspan></text><text stroke="none" fill="#2F4F4F" transform="translate(164 90)"><tspan x="0" y="13" dx="0">+</tspan></text><text stroke="none" fill="#2F4F4F" transform="translate(185 90)"><tspan x="0" y="13" dx="0">i</tspan><tspan x="3" y="13" dx="0">d</tspan><tspan x="10" y="13" dx="0">e</tspan><tspan x="17" y="13" dx="0">n</tspan><tspan x="23" y="13" dx="0 0">ti</tspan><tspan x="31" y="13" dx="0 0">fi</tspan><tspan x="38" y="13" dx="0">c</tspan><tspan x="44" y="13" dx="0">a</tspan><tspan x="51" y="13" dx="0 0">ti</tspan><tspan x="58" y="13" dx="0">e</tspan><tspan x="65" y="13" dx="0">:</tspan><tspan x="68" y="13" dx="0"> </tspan><tspan x="72" y="13" dx="0">I</tspan><tspan x="75" y="13" dx="0">d</tspan><tspan x="82" y="13" dx="0">e</tspan><tspan x="88" y="13" dx="0">n</tspan><tspan x="95" y="13" dx="0 0">ti</tspan><tspan x="103" y="13" dx="0 0">fi</tspan><tspan x="110" y="13" dx="0">c</tspan><tspan x="116" y="13" dx="0">a</tspan><tspan x="123" y="13" dx="0 0">ti</tspan><tspan x="130" y="13" dx="0">e</tspan><tspan x="137" y="13" dx="0"> </tspan><tspan x="140" y="13" dx="0">{</tspan><tspan x="144" y="13" dx="0">i</tspan><tspan x="148" y="13" dx="0">d</tspan><tspan x="154" y="13" dx="0">}</tspan></text><text stroke="none" fill="#2F4F4F" transform="translate(164 105)"><tspan x="0" y="13" dx="0">+</tspan></text><text stroke="none" fill="#2F4F4F" transform="translate(185 105)"><tspan x="0" y="13" dx="0">omschrijving: CharacterString</tspan></text><path d="M614 488C614 483 614 483 619 483L803 483C808 483 808 483 808 488L808 576C808 581 808 581 803 581L619 581C614 581 614 581 614 576L614 488" stroke="none" fill="#DFDFDF"/><path d="M611 485C611 480 611 480 616 480L800 480C805 480 805 480 805 485L805 573C805 578 805 578 800 578L616 578C611 578 611 578 611 573L611 485" stroke="none" stroke-width="2" fill="#FFE4E1"/><path d="M611 485C611 480 611 480 616 480L800 480C805 480 805 480 805 485L805 573C805 578 805 578 800 578L616 578C611 578 611 578 611 573L611 485M611 485C611 480 611 480 616 480L800 480C805 480 805 480 805 485L805 573C805 578 805 578 800 578L616 578C611 578 611 578 611 573L611 485" stroke="#C0C0C0" stroke-width="2"/><text stroke="none" fill="#000000" transform="translate(672 486)"><tspan x="0" y="13" dx="0">«</tspan><tspan x="7" y="13" dx="0">O</tspan><tspan x="16" y="13" dx="0">b</tspan><tspan x="23" y="13" dx="0">j</tspan><tspan x="26" y="13" dx="0">e</tspan><tspan x="33" y="13" dx="0">c</tspan><tspan x="38" y="13" dx="0 0">tt</tspan><tspan x="47" y="13" dx="0">y</tspan><tspan x="53" y="13" dx="0">p</tspan><tspan x="59" y="13" dx="0">e</tspan><tspan x="66" y="13" dx="0">»</tspan></text><text stroke="none" fill="#000000" font-style="italic" font-weight="700" transform="translate(665 501)"><tspan x="0" y="13" dx="0">L</tspan><tspan x="6" y="13" dx="0">o</tspan><tspan x="13" y="13" dx="0">c</tspan><tspan x="18" y="13" dx="0">a</tspan><tspan x="25" y="13" dx="0 0">ti</tspan><tspan x="33" y="13" dx="0">e</tspan><tspan x="40" y="13" dx="0">:</tspan><tspan x="43" y="13" dx="0">:</tspan><tspan x="47" y="13" dx="0">L</tspan><tspan x="53" y="13" dx="0">o</tspan><tspan x="59" y="13" dx="0">c</tspan><tspan x="65" y="13" dx="0">a</tspan><tspan x="72" y="13" dx="0 0">ti</tspan><tspan x="80" y="13" dx="0">e</tspan></text><path d="M611 521 805 521" stroke="#C0C0C0" stroke-width="2"/><text stroke="none" fill="#000000" transform="translate(624 529)"><tspan x="0" y="13" dx="0">«</tspan><tspan x="7" y="13" dx="0">A</tspan><tspan x="14" y="13" dx="0 0">tt</tspan><tspan x="23" y="13" dx="0">r</tspan><tspan x="27" y="13" dx="0">i</tspan><tspan x="30" y="13" dx="0">b</tspan><tspan x="37" y="13" dx="0">u</tspan><tspan x="43" y="13" dx="0">u</tspan><tspan x="50" y="13" dx="0">t</tspan><tspan x="54" y="13" dx="0">s</tspan><tspan x="60" y="13" dx="0">o</tspan><tspan x="67" y="13" dx="0">o</tspan><tspan x="73" y="13" dx="0">r</tspan><tspan x="78" y="13" dx="0">t</tspan><tspan x="82" y="13" dx="0">»</tspan></text><text stroke="none" fill="#2F4F4F" transform="translate(616 544)"><tspan x="0" y="13" dx="0">+</tspan></text><text stroke="none" fill="#2F4F4F" transform="translate(637 544)"><tspan x="0" y="13" dx="0">i</tspan><tspan x="3" y="13" dx="0">d</tspan><tspan x="10" y="13" dx="0">e</tspan><tspan x="17" y="13" dx="0">n</tspan><tspan x="23" y="13" dx="0 0">ti</tspan><tspan x="31" y="13" dx="0 0">fi</tspan><tspan x="38" y="13" dx="0">c</tspan><tspan x="44" y="13" dx="0">a</tspan><tspan x="51" y="13" dx="0 0">ti</tspan><tspan x="58" y="13" dx="0">e</tspan><tspan x="65" y="13" dx="0">:</tspan><tspan x="68" y="13" dx="0"> </tspan><tspan x="72" y="13" dx="0">I</tspan><tspan x="75" y="13" dx="0">d</tspan><tspan x="82" y="13" dx="0">e</tspan><tspan x="88" y="13" dx="0">n</tspan><tspan x="95" y="13" dx="0 0">ti</tspan><tspan x="103" y="13" dx="0 0">fi</tspan><tspan x="110" y="13" dx="0">c</tspan><tspan x="116" y="13" dx="0">a</tspan><tspan x="123" y="13" dx="0 0">ti</tspan><tspan x="130" y="13" dx="0">e</tspan><tspan x="137" y="13" dx="0"> </tspan><tspan x="140" y="13" dx="0">{</tspan><tspan x="144" y="13" dx="0">i</tspan><tspan x="148" y="13" dx="0">d</tspan><tspan x="154" y="13" dx="0">}</tspan></text><text stroke="none" fill="#2F4F4F" transform="translate(616 559)"><tspan x="0" y="13" dx="0">+</tspan></text><text stroke="none" fill="#2F4F4F" transform="translate(637 559)"><tspan x="0" y="13" dx="0">noemer: Characterstring [0..1]</tspan></text><path d="M162 488C162 483 162 483 167 483L344 483C349 483 349 483 349 488L349 576C349 581 349 581 344 581L167 581C162 581 162 581 162 576L162 488" stroke="none" fill="#DFDFDF"/><path d="M159 485C159 480 159 480 164 480L341 480C346 480 346 480 346 485L346 573C346 578 346 578 341 578L164 578C159 578 159 578 159 573L159 485" stroke="none" stroke-width="2" fill="#CCFFCC"/><path d="M159 485C159 480 159 480 164 480L341 480C346 480 346 480 346 485L346 573C346 578 346 578 341 578L164 578C159 578 159 578 159 573L159 485M159 485C159 480 159 480 164 480L341 480C346 480 346 480 346 485L346 573C346 578 346 578 341 578L164 578C159 578 159 578 159 573L159 485" stroke="#C0C0C0" stroke-width="2"/><text stroke="none" fill="#000000" transform="translate(216 486)"><tspan x="0" y="13" dx="0">«</tspan><tspan x="7" y="13" dx="0">O</tspan><tspan x="16" y="13" dx="0">b</tspan><tspan x="23" y="13" dx="0">j</tspan><tspan x="26" y="13" dx="0">e</tspan><tspan x="33" y="13" dx="0">c</tspan><tspan x="38" y="13" dx="0 0">tt</tspan><tspan x="47" y="13" dx="0">y</tspan><tspan x="53" y="13" dx="0">p</tspan><tspan x="59" y="13" dx="0">e</tspan><tspan x="66" y="13" dx="0">»</tspan></text><text stroke="none" fill="#000000" font-style="italic" font-weight="700" transform="translate(198 501)"><tspan x="0" y="13" dx="0">GebiedsAanwijzing::</tspan><tspan x="4" y="28" dx="0">Gebiedsaanwijzing</tspan></text><path d="M159 536 346 536" stroke="#C0C0C0" stroke-width="2"/><text stroke="none" fill="#000000" transform="translate(172 544)"><tspan x="0" y="13" dx="0">«</tspan><tspan x="7" y="13" dx="0">A</tspan><tspan x="14" y="13" dx="0 0">tt</tspan><tspan x="23" y="13" dx="0">r</tspan><tspan x="27" y="13" dx="0">i</tspan><tspan x="30" y="13" dx="0">b</tspan><tspan x="37" y="13" dx="0">u</tspan><tspan x="43" y="13" dx="0">u</tspan><tspan x="50" y="13" dx="0">t</tspan><tspan x="54" y="13" dx="0">s</tspan><tspan x="60" y="13" dx="0">o</tspan><tspan x="67" y="13" dx="0">o</tspan><tspan x="73" y="13" dx="0">r</tspan><tspan x="78" y="13" dx="0">t</tspan><tspan x="82" y="13" dx="0">»</tspan></text><text stroke="none" fill="#2F4F4F" transform="translate(164 559)"><tspan x="0" y="13" dx="0">+</tspan></text><text stroke="none" fill="#2F4F4F" transform="translate(185 559)"><tspan x="0" y="13" dx="0">i</tspan><tspan x="3" y="13" dx="0">d</tspan><tspan x="10" y="13" dx="0">e</tspan><tspan x="17" y="13" dx="0">n</tspan><tspan x="23" y="13" dx="0 0">ti</tspan><tspan x="31" y="13" dx="0 0">fi</tspan><tspan x="38" y="13" dx="0">c</tspan><tspan x="44" y="13" dx="0">a</tspan><tspan x="51" y="13" dx="0 0">ti</tspan><tspan x="58" y="13" dx="0">e</tspan><tspan x="65" y="13" dx="0">:</tspan><tspan x="68" y="13" dx="0"> </tspan><tspan x="72" y="13" dx="0">I</tspan><tspan x="75" y="13" dx="0">d</tspan><tspan x="82" y="13" dx="0">e</tspan><tspan x="88" y="13" dx="0">n</tspan><tspan x="95" y="13" dx="0 0">ti</tspan><tspan x="103" y="13" dx="0 0">fi</tspan><tspan x="110" y="13" dx="0">c</tspan><tspan x="116" y="13" dx="0">a</tspan><tspan x="123" y="13" dx="0 0">ti</tspan><tspan x="130" y="13" dx="0">e</tspan><tspan x="137" y="13" dx="0"> </tspan><tspan x="140" y="13" dx="0">{</tspan><tspan x="144" y="13" dx="0">i</tspan><tspan x="148" y="13" dx="0">d</tspan><tspan x="154" y="13" dx="0">}</tspan></text><path d="M422 296 614 296M614 296 599 302M614 296 599 290" stroke-width="2"/><path d="M748 228 748 172M748 172 692 172M692 172 692 228M692 228 686 213M692 228 698 213" stroke-width="2"/><path d="M266 226 267 126M267 126 273 141M267 126 261 141" stroke-width="2"/><path d="M253 359 253 479M253 479 247 464M253 479 259 464" stroke-width="2"/><path d="M348 529 610 529M610 529 595 535M610 529 595 523" stroke-width="2"/><path d="M340 358 340 417M340 417 722 417M722 417 722 480M722 480 716 465M722 480 728 465" stroke-width="2"/><path d="M354 71 888 71M888 71 888 526M888 526 806 526M806 526 821 520M806 526 821 532" stroke-width="2"/><g transform="matrix(1 0 0 -1 425 301)"><rect x="0" y="-10" width="13" height="10" stroke="none" fill="#FFFFFF"/></g><text stroke="none" fill="#000000" font-size="8" transform="translate(425 301)"><tspan x="0" y="8" dx="0">1..*</tspan></text><g transform="matrix(1 0 0 -1 508 286)"><rect x="0" y="-10" width="19" height="10" stroke="none" fill="#FFFFFF"/></g><text stroke="none" fill="#000000" font-size="8" transform="translate(508 286)"><tspan x="0" y="8" dx="0">bevat</tspan></text><g transform="matrix(1 0 0 -1 494 298)"><rect x="0" y="-10" width="48" height="10" stroke="none" fill="#FFFFFF"/></g><text stroke="none" fill="#000000" font-size="8" transform="translate(494 298)"><tspan x="0" y="8" dx="0">«</tspan><tspan x="4" y="8" dx="0">R</tspan><tspan x="8.25" y="8" dx="0">e</tspan><tspan x="12" y="8" dx="0">l</tspan><tspan x="14" y="8" dx="0">a</tspan><tspan x="17.75" y="8" dx="0 0">ti</tspan><tspan x="22.5" y="8" dx="0">e</tspan><tspan x="26.5" y="8" dx="0">s</tspan><tspan x="29.75" y="8" dx="0">o</tspan><tspan x="34" y="8" dx="0">o</tspan><tspan x="38.25" y="8" dx="0">r</tspan><tspan x="41" y="8" dx="0">t</tspan><tspan x="43.75" y="8" dx="0">»</tspan></text><g transform="matrix(1 0 0 -1 553 326)"><rect x="0" y="-10" width="69" height="10" stroke="none" fill="#FFFFFF"/></g><text stroke="none" fill="#000000" font-size="8" transform="translate(553 326)"><tspan x="0" y="8" dx="0">+hoofdlijnaanduiding</tspan></text><g transform="matrix(1 0 0 -1 583 336)"><rect x="0" y="-10" width="39" height="10" stroke="none" fill="#FFFFFF"/></g><text stroke="none" fill="#000000" font-size="8" transform="translate(583 336)"><tspan x="0" y="8" dx="0">«</tspan><tspan x="4" y="8" dx="0">R</tspan><tspan x="8.25" y="8" dx="0">e</tspan><tspan x="12" y="8" dx="0">l</tspan><tspan x="14" y="8" dx="0">a</tspan><tspan x="17.5" y="8" dx="0 0">ti</tspan><tspan x="22.25" y="8" dx="0">e</tspan><tspan x="26" y="8" dx="0">r</tspan><tspan x="28.75" y="8" dx="0">o</tspan><tspan x="32.75" y="8" dx="0">l</tspan><tspan x="34.75" y="8" dx="0">»</tspan></text><g transform="matrix(1 0 0 -1 589 301)"><rect x="0" y="-10" width="13" height="10" stroke="none" fill="#FFFFFF"/></g><text stroke="none" fill="#000000" font-size="8" transform="translate(589 301)"><tspan x="0" y="8" dx="0">0..*</tspan></text><g transform="matrix(1 0 0 -1 348 363)"><rect x="0" y="-10" width="13" height="10" stroke="none" fill="#FFFFFF"/></g><text stroke="none" fill="#000000" font-size="8" transform="translate(348 363)"><tspan x="0" y="8" dx="0">0..*</tspan></text><g transform="matrix(1 0 0 -1 515 406)"><rect x="0" y="-10" width="32" height="10" stroke="none" fill="#FFFFFF"/></g><text stroke="none" fill="#000000" font-size="8" transform="translate(515 406)"><tspan x="0" y="8" dx="0">d</tspan><tspan x="4" y="8" dx="0">e</tspan><tspan x="7.75" y="8" dx="0 0">fi</tspan><tspan x="12.25" y="8" dx="0">n</tspan><tspan x="16.5" y="8" dx="0">i</tspan><tspan x="18.5" y="8" dx="0">e</tspan><tspan x="22.5" y="8" dx="0">e</tspan><tspan x="26.5" y="8" dx="0">r</tspan><tspan x="29.25" y="8" dx="0">t</tspan></text><g transform="matrix(1 0 0 -1 507 419)"><rect x="0" y="-10" width="48" height="10" stroke="none" fill="#FFFFFF"/></g><text stroke="none" fill="#000000" font-size="8" transform="translate(507 419)"><tspan x="0" y="8" dx="0">«</tspan><tspan x="4" y="8" dx="0">R</tspan><tspan x="8.25" y="8" dx="0">e</tspan><tspan x="12" y="8" dx="0">l</tspan><tspan x="14" y="8" dx="0">a</tspan><tspan x="17.75" y="8" dx="0 0">ti</tspan><tspan x="22.5" y="8" dx="0">e</tspan><tspan x="26.5" y="8" dx="0">s</tspan><tspan x="29.75" y="8" dx="0">o</tspan><tspan x="34" y="8" dx="0">o</tspan><tspan x="38.25" y="8" dx="0">r</tspan><tspan x="41" y="8" dx="0">t</tspan><tspan x="43.75" y="8" dx="0">»</tspan></text><g transform="matrix(1 0 0 -1 656 448)"><rect x="0" y="-10" width="63" height="10" stroke="none" fill="#FFFFFF"/></g><text stroke="none" fill="#000000" font-size="8" transform="translate(656 448)"><tspan x="0" y="8" dx="0">+</tspan><tspan x="4.25" y="8" dx="0">l</tspan><tspan x="6.25" y="8" dx="0">o</tspan><tspan x="10.75" y="8" dx="0">c</tspan><tspan x="14" y="8" dx="0">a</tspan><tspan x="17.75" y="8" dx="0 0">ti</tspan><tspan x="22.5" y="8" dx="0">e</tspan><tspan x="26.5" y="8" dx="0">a</tspan><tspan x="30.25" y="8" dx="0">a</tspan><tspan x="34" y="8" dx="0">n</tspan><tspan x="38.25" y="8" dx="0">d</tspan><tspan x="42.5" y="8" dx="0">u</tspan><tspan x="46.75" y="8" dx="0">i</tspan><tspan x="48.75" y="8" dx="0">d</tspan><tspan x="53" y="8" dx="0">i</tspan><tspan x="55" y="8" dx="0">n</tspan><tspan x="59.25" y="8" dx="0">g</tspan></text><g transform="matrix(1 0 0 -1 667 458)"><rect x="0" y="-10" width="39" height="10" stroke="none" fill="#FFFFFF"/></g><text stroke="none" fill="#000000" font-size="8" transform="translate(667 458)"><tspan x="0" y="8" dx="0">«</tspan><tspan x="4" y="8" dx="0">R</tspan><tspan x="8.25" y="8" dx="0">e</tspan><tspan x="12" y="8" dx="0">l</tspan><tspan x="14" y="8" dx="0">a</tspan><tspan x="17.5" y="8" dx="0 0">ti</tspan><tspan x="22.25" y="8" dx="0">e</tspan><tspan x="26" y="8" dx="0">r</tspan><tspan x="28.75" y="8" dx="0">o</tspan><tspan x="32.75" y="8" dx="0">l</tspan><tspan x="34.75" y="8" dx="0">»</tspan></text><g transform="matrix(1 0 0 -1 730 465)"><rect x="0" y="-10" width="13" height="10" stroke="none" fill="#FFFFFF"/></g><text stroke="none" fill="#000000" font-size="8" transform="translate(730 465)"><tspan x="0" y="8" dx="0">0..*</tspan></text><g transform="matrix(1 0 0 -1 357 76)"><rect x="0" y="-10" width="13" height="10" stroke="none" fill="#FFFFFF"/></g><text stroke="none" fill="#000000" font-size="8" transform="translate(357 76)"><tspan x="0" y="8" dx="0">0..*</tspan></text><g transform="matrix(1 0 0 -1 861 287)"><rect x="0" y="-10" width="53" height="10" stroke="none" fill="#FFFFFF"/></g><text stroke="none" fill="#000000" font-size="8" transform="translate(861 287)"><tspan x="0" y="8" dx="0">h</tspan><tspan x="4" y="8" dx="0">e</tspan><tspan x="7.75" y="8" dx="0">e</tspan><tspan x="11.5" y="8" dx="0 0">ft</tspan><tspan x="16.75" y="8" dx="0"> </tspan><tspan x="18.75" y="8" dx="0">w</tspan><tspan x="24.5" y="8" dx="0">e</tspan><tspan x="28.5" y="8" dx="0">r</tspan><tspan x="31.25" y="8" dx="0">k</tspan><tspan x="34.75" y="8" dx="0">i</tspan><tspan x="36.75" y="8" dx="0">n</tspan><tspan x="41" y="8" dx="0">g</tspan><tspan x="44.75" y="8" dx="0"> </tspan><tspan x="46.75" y="8" dx="0">i</tspan><tspan x="48.75" y="8" dx="0">n</tspan></text><g transform="matrix(1 0 0 -1 864 300)"><rect x="0" y="-10" width="48" height="10" stroke="none" fill="#FFFFFF"/></g><text stroke="none" fill="#000000" font-size="8" transform="translate(864 300)"><tspan x="0" y="8" dx="0">«</tspan><tspan x="4" y="8" dx="0">R</tspan><tspan x="8.25" y="8" dx="0">e</tspan><tspan x="12" y="8" dx="0">l</tspan><tspan x="14" y="8" dx="0">a</tspan><tspan x="17.75" y="8" dx="0 0">ti</tspan><tspan x="22.5" y="8" dx="0">e</tspan><tspan x="26.5" y="8" dx="0">s</tspan><tspan x="29.75" y="8" dx="0">o</tspan><tspan x="34" y="8" dx="0">o</tspan><tspan x="38.25" y="8" dx="0">r</tspan><tspan x="41" y="8" dx="0">t</tspan><tspan x="43.75" y="8" dx="0">»</tspan></text><g transform="matrix(1 0 0 -1 809 511)"><rect x="0" y="-10" width="57" height="10" stroke="none" fill="#FFFFFF"/></g><text stroke="none" fill="#000000" font-size="8" transform="translate(809 511)"><tspan x="0" y="8" dx="0">+werkingsgebied</tspan></text><g transform="matrix(1 0 0 -1 809 531)"><rect x="0" y="-10" width="13" height="10" stroke="none" fill="#FFFFFF"/></g><text stroke="none" fill="#000000" font-size="8" transform="translate(809 531)"><tspan x="0" y="8" dx="0">0..*</tspan></text><g transform="matrix(1 0 0 -1 351 534)"><rect x="0" y="-10" width="13" height="10" stroke="none" fill="#FFFFFF"/></g><text stroke="none" fill="#000000" font-size="8" transform="translate(351 534)"><tspan x="0" y="8" dx="0">0..*</tspan></text><g transform="matrix(1 0 0 -1 464 518)"><rect x="0" y="-10" width="29" height="10" stroke="none" fill="#FFFFFF"/></g><text stroke="none" fill="#000000" font-size="8" transform="translate(464 518)"><tspan x="0" y="8" dx="0">wijst aan</tspan></text><g transform="matrix(1 0 0 -1 455 531)"><rect x="0" y="-10" width="48" height="10" stroke="none" fill="#FFFFFF"/></g><text stroke="none" fill="#000000" font-size="8" transform="translate(455 531)"><tspan x="0" y="8" dx="0">«</tspan><tspan x="4" y="8" dx="0">R</tspan><tspan x="8.25" y="8" dx="0">e</tspan><tspan x="12" y="8" dx="0">l</tspan><tspan x="14" y="8" dx="0">a</tspan><tspan x="17.75" y="8" dx="0 0">ti</tspan><tspan x="22.5" y="8" dx="0">e</tspan><tspan x="26.5" y="8" dx="0">s</tspan><tspan x="29.75" y="8" dx="0">o</tspan><tspan x="34" y="8" dx="0">o</tspan><tspan x="38.25" y="8" dx="0">r</tspan><tspan x="41" y="8" dx="0">t</tspan><tspan x="43.75" y="8" dx="0">»</tspan></text><g transform="matrix(1 0 0 -1 549 557)"><rect x="0" y="-10" width="63" height="10" stroke="none" fill="#FFFFFF"/></g><text stroke="none" fill="#000000" font-size="8" transform="translate(549 557)"><tspan x="0" y="8" dx="0">+</tspan><tspan x="4.25" y="8" dx="0">l</tspan><tspan x="6.25" y="8" dx="0">o</tspan><tspan x="10.75" y="8" dx="0">c</tspan><tspan x="14" y="8" dx="0">a</tspan><tspan x="17.75" y="8" dx="0 0">ti</tspan><tspan x="22.5" y="8" dx="0">e</tspan><tspan x="26.5" y="8" dx="0">a</tspan><tspan x="30.25" y="8" dx="0">a</tspan><tspan x="34" y="8" dx="0">n</tspan><tspan x="38.25" y="8" dx="0">d</tspan><tspan x="42.5" y="8" dx="0">u</tspan><tspan x="46.75" y="8" dx="0">i</tspan><tspan x="48.75" y="8" dx="0">d</tspan><tspan x="53" y="8" dx="0">i</tspan><tspan x="55" y="8" dx="0">n</tspan><tspan x="59.25" y="8" dx="0">g</tspan></text><g transform="matrix(1 0 0 -1 573 567)"><rect x="0" y="-10" width="39" height="10" stroke="none" fill="#FFFFFF"/></g><text stroke="none" fill="#000000" font-size="8" transform="translate(573 567)"><tspan x="0" y="8" dx="0">«</tspan><tspan x="4" y="8" dx="0">R</tspan><tspan x="8.25" y="8" dx="0">e</tspan><tspan x="12" y="8" dx="0">l</tspan><tspan x="14" y="8" dx="0">a</tspan><tspan x="17.5" y="8" dx="0 0">ti</tspan><tspan x="22.25" y="8" dx="0">e</tspan><tspan x="26" y="8" dx="0">r</tspan><tspan x="28.75" y="8" dx="0">o</tspan><tspan x="32.75" y="8" dx="0">l</tspan><tspan x="34.75" y="8" dx="0">»</tspan></text><g transform="matrix(1 0 0 -1 595 534)"><rect x="0" y="-10" width="13" height="10" stroke="none" fill="#FFFFFF"/></g><text stroke="none" fill="#000000" font-size="8" transform="translate(595 534)"><tspan x="0" y="8" dx="0">1..*</tspan></text><g transform="matrix(1 0 0 -1 700 140)"><rect x="0" y="-10" width="48" height="10" stroke="none" fill="#FFFFFF"/></g><text stroke="none" fill="#000000" font-size="8" transform="translate(700 140)"><tspan x="0" y="8" dx="0">«</tspan><tspan x="4" y="8" dx="0">R</tspan><tspan x="8.25" y="8" dx="0">e</tspan><tspan x="12" y="8" dx="0">l</tspan><tspan x="14" y="8" dx="0">a</tspan><tspan x="17.75" y="8" dx="0 0">ti</tspan><tspan x="22.5" y="8" dx="0">e</tspan><tspan x="26.5" y="8" dx="0">s</tspan><tspan x="29.75" y="8" dx="0">o</tspan><tspan x="34" y="8" dx="0">o</tspan><tspan x="38.25" y="8" dx="0">r</tspan><tspan x="41" y="8" dx="0">t</tspan><tspan x="43.75" y="8" dx="0">»</tspan></text><g transform="matrix(1 0 0 -1 710 150)"><rect x="0" y="-10" width="28" height="10" stroke="none" fill="#FFFFFF"/></g><text stroke="none" fill="#000000" font-size="8" transform="translate(710 150)"><tspan x="0" y="8" dx="0">relateert</tspan></text><g transform="matrix(1 0 0 -1 606 188)"><rect x="0" y="-10" width="76" height="10" stroke="none" fill="#FFFFFF"/></g><text stroke="none" fill="#000000" font-size="8" transform="translate(606 188)"><tspan x="0" y="8" dx="0">+gerelateerdeHoofdlijn</tspan></text><g transform="matrix(1 0 0 -1 617 198)"><rect x="0" y="-10" width="54" height="10" stroke="none" fill="#FFFFFF"/></g><text stroke="none" fill="#000000" font-size="8" transform="translate(617 198)"><tspan x="0" y="8" dx="0">«</tspan><tspan x="4" y="8" dx="0">R</tspan><tspan x="8.25" y="8" dx="0">e</tspan><tspan x="12.25" y="8" dx="0">l</tspan><tspan x="14.25" y="8" dx="0">a</tspan><tspan x="18" y="8" dx="0 0">ti</tspan><tspan x="22.75" y="8" dx="0">e</tspan><tspan x="26.75" y="8" dx="0">r</tspan><tspan x="29.5" y="8" dx="0">o</tspan><tspan x="33.75" y="8" dx="0">l</tspan><tspan x="35.75" y="8" dx="0">»</tspan><tspan x="40" y="8" dx="0"> </tspan><tspan x="42" y="8" dx="0">0</tspan><tspan x="46" y="8" dx="0">.</tspan><tspan x="48" y="8" dx="0">.</tspan><tspan x="50" y="8" dx="0">*</tspan></text><g transform="matrix(1 0 0 -1 269 212)"><rect x="0" y="-10" width="13" height="10" stroke="none" fill="#FFFFFF"/></g><text stroke="none" fill="#000000" font-size="8" transform="translate(269 212)"><tspan x="0" y="8" dx="0">1..*</tspan></text><g transform="matrix(1 0 0 -1 243 171)"><rect x="0" y="-10" width="54" height="10" stroke="none" fill="#FFFFFF"/></g><text stroke="none" fill="#000000" font-size="8" transform="translate(243 171)"><tspan x="0" y="8" dx="0">is opgenomen in</tspan></text><g transform="matrix(1 0 0 -1 242 178)"><rect x="0" y="-10" width="48" height="10" stroke="none" fill="#FFFFFF"/></g><text stroke="none" fill="#000000" font-size="8" transform="translate(242 178)"><tspan x="0" y="8" dx="0">«</tspan><tspan x="4" y="8" dx="0">R</tspan><tspan x="8.25" y="8" dx="0">e</tspan><tspan x="12" y="8" dx="0">l</tspan><tspan x="14" y="8" dx="0">a</tspan><tspan x="17.75" y="8" dx="0 0">ti</tspan><tspan x="22.5" y="8" dx="0">e</tspan><tspan x="26.5" y="8" dx="0">s</tspan><tspan x="29.75" y="8" dx="0">o</tspan><tspan x="34" y="8" dx="0">o</tspan><tspan x="38.25" y="8" dx="0">r</tspan><tspan x="41" y="8" dx="0">t</tspan><tspan x="43.75" y="8" dx="0">»</tspan></text><g transform="matrix(1 0 0 -1 279 131)"><rect x="0" y="-10" width="4" height="10" stroke="none" fill="#FFFFFF"/></g><text stroke="none" fill="#000000" font-size="8" transform="translate(279 131)"><tspan x="0" y="8" dx="0">1</tspan></text><g transform="matrix(1 0 0 -1 261 364)"><rect x="0" y="-10" width="13" height="10" stroke="none" fill="#FFFFFF"/></g><text stroke="none" fill="#000000" font-size="8" transform="translate(261 364)"><tspan x="0" y="8" dx="0">0..*</tspan></text><g transform="matrix(1 0 0 -1 226 408)"><rect x="0" y="-10" width="53" height="10" stroke="none" fill="#FFFFFF"/></g><text stroke="none" fill="#000000" font-size="8" transform="translate(226 408)"><tspan x="0" y="8" dx="0">wijst gebied aan</tspan></text><g transform="matrix(1 0 0 -1 229 421)"><rect x="0" y="-10" width="48" height="10" stroke="none" fill="#FFFFFF"/></g><text stroke="none" fill="#000000" font-size="8" transform="translate(229 421)"><tspan x="0" y="8" dx="0">«</tspan><tspan x="4" y="8" dx="0">R</tspan><tspan x="8.25" y="8" dx="0">e</tspan><tspan x="12" y="8" dx="0">l</tspan><tspan x="14" y="8" dx="0">a</tspan><tspan x="17.75" y="8" dx="0 0">ti</tspan><tspan x="22.5" y="8" dx="0">e</tspan><tspan x="26.5" y="8" dx="0">s</tspan><tspan x="29.75" y="8" dx="0">o</tspan><tspan x="34" y="8" dx="0">o</tspan><tspan x="38.25" y="8" dx="0">r</tspan><tspan x="41" y="8" dx="0">t</tspan><tspan x="43.75" y="8" dx="0">»</tspan></text><g transform="matrix(1 0 0 -1 181 449)"><rect x="0" y="-10" width="65" height="10" stroke="none" fill="#FFFFFF"/></g><text stroke="none" fill="#000000" font-size="8" transform="translate(181 449)"><tspan x="0" y="8" dx="0">+gebiedsaanwijzing</tspan></text><g transform="matrix(1 0 0 -1 193 459)"><rect x="0" y="-10" width="39" height="10" stroke="none" fill="#FFFFFF"/></g><text stroke="none" fill="#000000" font-size="8" transform="translate(193 459)"><tspan x="0" y="8" dx="0">«</tspan><tspan x="4" y="8" dx="0">R</tspan><tspan x="8.25" y="8" dx="0">e</tspan><tspan x="12" y="8" dx="0">l</tspan><tspan x="14" y="8" dx="0">a</tspan><tspan x="17.5" y="8" dx="0 0">ti</tspan><tspan x="22.25" y="8" dx="0">e</tspan><tspan x="26" y="8" dx="0">r</tspan><tspan x="28.75" y="8" dx="0">o</tspan><tspan x="32.75" y="8" dx="0">l</tspan><tspan x="34.75" y="8" dx="0">»</tspan></text><g transform="matrix(1 0 0 -1 261 464)"><rect x="0" y="-10" width="13" height="10" stroke="none" fill="#FFFFFF"/></g><text stroke="none" fill="#000000" font-size="8" transform="translate(261 464)"><tspan x="0" y="8" dx="0">0..*</tspan></text></g></g></g></g></svg>