<svg width="815.971" height="624.985" viewBox="89.8901 122.079 611.978 468.738" xmlns="http://www.w3.org/2000/svg" xmlns:xlink="http://www.w3.org/1999/xlink" overflow="hidden"><g transform="matrix(1 0 0 -1 0 768)"><g stroke="#000000" stroke-linecap="round" stroke-linejoin="round" stroke-miterlimit="3" fill="none" fill-rule="evenodd" font-weight="400" baseline-shift="0"><g transform="matrix(0.75 0 0 0.75 0 768.2)"><g font-family="CalibriUnicode" font-size="10" transform="scale(0.959707 -0.9597)"><path d="M484 203C484 198 484 198 489 198L676 198C681 198 681 198 681 203L681 369C681 374 681 374 676 374L489 374C484 374 484 374 484 369L484 203" stroke="none" fill="#FFFE99"/><path d="M484 203C484 198 484 198 489 198L676 198C681 198 681 198 681 203L681 369C681 374 681 374 676 374L489 374C484 374 484 374 484 369L484 203M484 203C484 198 484 198 489 198L676 198C681 198 681 198 681 203L681 369C681 374 681 374 676 374L489 374C484 374 484 374 484 369L484 203"/><text stroke="none" fill="#000000" font-size="13" transform="translate(547 204)"><tspan x="0" y="13" dx="0">«</tspan><tspan x="6" y="13" dx="0">O</tspan><tspan x="15" y="13" dx="0">b</tspan><tspan x="22" y="13" dx="0">j</tspan><tspan x="25" y="13" dx="0">e</tspan><tspan x="32" y="13" dx="0">c</tspan><tspan x="38" y="13" dx="0 0">tt</tspan><tspan x="46" y="13" dx="0">y</tspan><tspan x="51" y="13" dx="0">p</tspan><tspan x="58" y="13" dx="0">e</tspan><tspan x="66" y="13" dx="0">»</tspan></text><text stroke="none" fill="#000000" font-weight="700" font-size="13" transform="translate(569 219)"><tspan x="0" y="13" dx="0">Kaart</tspan></text><path d="M484 239 681 239"/><text stroke="none" fill="#000000" font-size="13" transform="translate(497 247)"><tspan x="0" y="13" dx="0">«</tspan><tspan x="6" y="13" dx="0">A</tspan><tspan x="14" y="13" dx="0 0">tt</tspan><tspan x="22" y="13" dx="0">r</tspan><tspan x="26" y="13" dx="0">i</tspan><tspan x="30" y="13" dx="0">b</tspan><tspan x="38" y="13" dx="0">u</tspan><tspan x="45" y="13" dx="0">u</tspan><tspan x="52" y="13" dx="0">t</tspan><tspan x="56" y="13" dx="0">s</tspan><tspan x="63" y="13" dx="0">o</tspan><tspan x="70" y="13" dx="0">o</tspan><tspan x="77" y="13" dx="0">r</tspan><tspan x="81" y="13" dx="0">t</tspan><tspan x="85" y="13" dx="0">»</tspan></text><text stroke="none" fill="#2F4F4F" font-size="13" transform="translate(489 262)"><tspan x="0" y="13" dx="0">+</tspan></text><text stroke="none" fill="#2F4F4F" font-size="13" transform="translate(510 262)"><tspan x="0" y="13" dx="0">i</tspan><tspan x="4" y="13" dx="0">d</tspan><tspan x="11" y="13" dx="0">e</tspan><tspan x="19" y="13" dx="0">n</tspan><tspan x="26" y="13" dx="0 0">ti</tspan><tspan x="34" y="13" dx="0 0">fi</tspan><tspan x="43" y="13" dx="0">c</tspan><tspan x="48" y="13" dx="0">a</tspan><tspan x="55" y="13" dx="0 0">ti</tspan><tspan x="64" y="13" dx="0">e</tspan><tspan x="71" y="13" dx="0">:</tspan><tspan x="74" y="13" dx="0"> </tspan><tspan x="77" y="13" dx="0">I</tspan><tspan x="81" y="13" dx="0">d</tspan><tspan x="89" y="13" dx="0">e</tspan><tspan x="96" y="13" dx="0">n</tspan><tspan x="103" y="13" dx="0 0">ti</tspan><tspan x="111" y="13" dx="0 0">fi</tspan><tspan x="120" y="13" dx="0">c</tspan><tspan x="125" y="13" dx="0">a</tspan><tspan x="132" y="13" dx="0 0">ti</tspan><tspan x="141" y="13" dx="0">e</tspan><tspan x="148" y="13" dx="0"> </tspan><tspan x="151" y="13" dx="0">{</tspan><tspan x="155" y="13" dx="0">i</tspan><tspan x="159" y="13" dx="0">d</tspan><tspan x="167" y="13" dx="0">}</tspan></text><text stroke="none" fill="#2F4F4F" font-size="13" transform="translate(489 277)"><tspan x="0" y="13" dx="0">+</tspan></text><text stroke="none" fill="#2F4F4F" font-size="13" transform="translate(510 277)"><tspan x="0" y="13" dx="0">naam: CharacterString</tspan></text><text stroke="none" fill="#2F4F4F" font-size="13" transform="translate(489 292)"><tspan x="0" y="13" dx="0">+</tspan></text><text stroke="none" fill="#2F4F4F" font-size="13" transform="translate(510 292)"><tspan x="0" y="13" dx="0">nummer: CharacterString [0..1]</tspan></text><text stroke="none" fill="#2F4F4F" font-size="13" transform="translate(489 307)"><tspan x="0" y="13" dx="0">+</tspan></text><text stroke="none" fill="#2F4F4F" font-size="13" transform="translate(510 307)"><tspan x="0" y="13" dx="0">uitsnede: Kaartextent</tspan></text><path d="M709 203C709 198 709 198 714 198L826 198C831 198 831 198 831 203L831 306C831 311 831 311 826 311L714 311C709 311 709 311 709 306L709 203" stroke="none" fill="#FFFFE0"/><path d="M709 203C709 198 709 198 714 198L826 198C831 198 831 198 831 203L831 306C831 311 831 311 826 311L714 311C709 311 709 311 709 306L709 203M709 203C709 198 709 198 714 198L826 198C831 198 831 198 831 203L831 306C831 311 831 311 826 311L714 311C709 311 709 311 709 306L709 203"/><text stroke="none" fill="#000000" transform="translate(725 204)"><tspan x="0" y="9" dx="0">«Gegevensgroeptype»</tspan></text><text stroke="none" fill="#000000" font-weight="700" transform="translate(745 217)"><tspan x="0" y="9" dx="0">Kaartextent</tspan></text><path d="M709 235 831 235"/><text stroke="none" fill="#000000" transform="translate(721 243)"><tspan x="0" y="9" dx="0">«</tspan><tspan x="5" y="9" dx="0">A</tspan><tspan x="10.6667" y="9" dx="0 0">tt</tspan><tspan x="17.3333" y="9" dx="0">r</tspan><tspan x="20.6667" y="9" dx="0">i</tspan><tspan x="23" y="9" dx="0">b</tspan><tspan x="28" y="9" dx="0">u</tspan><tspan x="33" y="9" dx="0">u</tspan><tspan x="38.3333" y="9" dx="0">t</tspan><tspan x="41.6667" y="9" dx="0">s</tspan><tspan x="45.3333" y="9" dx="0">o</tspan><tspan x="50.6667" y="9" dx="0">o</tspan><tspan x="56" y="9" dx="0">r</tspan><tspan x="59.3333" y="9" dx="0">t</tspan><tspan x="62.6667" y="9" dx="0">»</tspan></text><text stroke="none" fill="#2F4F4F" transform="translate(714 256)"><tspan x="0" y="9" dx="0">+</tspan></text><text stroke="none" fill="#2F4F4F" transform="translate(731 256)"><tspan x="0" y="9" dx="0">minX: Real</tspan></text><text stroke="none" fill="#2F4F4F" transform="translate(714 269)"><tspan x="0" y="9" dx="0">+</tspan></text><text stroke="none" fill="#2F4F4F" transform="translate(731 269)"><tspan x="0" y="9" dx="0">minY: Real</tspan></text><text stroke="none" fill="#2F4F4F" transform="translate(714 282)"><tspan x="0" y="9" dx="0">+</tspan></text><text stroke="none" fill="#2F4F4F" transform="translate(731 282)"><tspan x="0" y="9" dx="0">maxX: Real</tspan></text><text stroke="none" fill="#2F4F4F" transform="translate(714 295)"><tspan x="0" y="9" dx="0">+</tspan></text><text stroke="none" fill="#2F4F4F" transform="translate(731 295)"><tspan x="0" y="9" dx="0">maxY: Real</tspan></text><path d="M486 671C486 666 486 666 491 666L674 666C679 666 679 666 679 671L679 749C679 754 679 754 674 754L491 754C486 754 486 754 486 749L486 671" stroke="none" fill="#CCFFCC"/><path d="M486 671C486 666 486 666 491 666L674 666C679 666 679 666 679 671L679 749C679 754 679 754 674 754L491 754C486 754 486 754 486 749L486 671M486 671C486 666 486 666 491 666L674 666C679 666 679 666 679 671L679 749C679 754 679 754 674 754L491 754C486 754 486 754 486 749L486 671" stroke="#C0C0C0"/><text stroke="none" fill="#000000" transform="translate(556 672)"><tspan x="0" y="9" dx="0">«</tspan><tspan x="5.33333" y="9" dx="0">O</tspan><tspan x="12" y="9" dx="0">b</tspan><tspan x="17.3333" y="9" dx="0">j</tspan><tspan x="19.6667" y="9" dx="0">e</tspan><tspan x="24.6667" y="9" dx="0">c</tspan><tspan x="29" y="9" dx="0 0">tt</tspan><tspan x="35.6667" y="9" dx="0">y</tspan><tspan x="40.3333" y="9" dx="0">p</tspan><tspan x="45.6667" y="9" dx="0">e</tspan><tspan x="50.6667" y="9" dx="0">»</tspan></text><text stroke="none" fill="#000000" font-style="italic" font-weight="700" transform="translate(521 685)"><tspan x="0" y="9" dx="0">Datatype gebiedsaanwijzing::</tspan><tspan x="23" y="22" dx="0">Gebiedsaanwijzing</tspan></text><path d="M486 716 679 716" stroke="#C0C0C0"/><text stroke="none" fill="#000000" transform="translate(498 724)"><tspan x="0" y="9" dx="0">«</tspan><tspan x="5" y="9" dx="0">A</tspan><tspan x="10.6667" y="9" dx="0 0">tt</tspan><tspan x="17.3333" y="9" dx="0">r</tspan><tspan x="20.6667" y="9" dx="0">i</tspan><tspan x="23" y="9" dx="0">b</tspan><tspan x="28" y="9" dx="0">u</tspan><tspan x="33" y="9" dx="0">u</tspan><tspan x="38.3333" y="9" dx="0">t</tspan><tspan x="41.6667" y="9" dx="0">s</tspan><tspan x="45.3333" y="9" dx="0">o</tspan><tspan x="50.6667" y="9" dx="0">o</tspan><tspan x="56" y="9" dx="0">r</tspan><tspan x="59.3333" y="9" dx="0">t</tspan><tspan x="62.6667" y="9" dx="0">»</tspan></text><text stroke="none" fill="#2F4F4F" transform="translate(491 737)"><tspan x="0" y="9" dx="0">+</tspan></text><text stroke="none" fill="#2F4F4F" transform="translate(508 737)"><tspan x="0" y="9" dx="0">i</tspan><tspan x="2.33333" y="9" dx="0">d</tspan><tspan x="7.33333" y="9" dx="0">e</tspan><tspan x="12" y="9" dx="0">n</tspan><tspan x="17" y="9" dx="0 0">ti</tspan><tspan x="22.6667" y="9" dx="0 0">fi</tspan><tspan x="28" y="9" dx="0">c</tspan><tspan x="32.3333" y="9" dx="0">a</tspan><tspan x="37.3333" y="9" dx="0 0">ti</tspan><tspan x="43" y="9" dx="0">e</tspan><tspan x="48" y="9" dx="0">:</tspan><tspan x="50.6667" y="9" dx="0"> </tspan><tspan x="53" y="9" dx="0">I</tspan><tspan x="55.3333" y="9" dx="0">d</tspan><tspan x="60.6667" y="9" dx="0">e</tspan><tspan x="65.6667" y="9" dx="0">n</tspan><tspan x="71" y="9" dx="0 0">ti</tspan><tspan x="76.6667" y="9" dx="0 0">fi</tspan><tspan x="82" y="9" dx="0">c</tspan><tspan x="86.3333" y="9" dx="0">a</tspan><tspan x="91.3333" y="9" dx="0 0">ti</tspan><tspan x="97" y="9" dx="0">e</tspan><tspan x="102" y="9" dx="0"> </tspan><tspan x="104.333" y="9" dx="0">{</tspan><tspan x="107.333" y="9" dx="0">i</tspan><tspan x="109.667" y="9" dx="0">d</tspan><tspan x="115" y="9" dx="0">}</tspan></text><path d="M216 671C216 666 216 666 221 666L406 666C411 666 411 666 411 671L411 805C411 810 411 810 406 810L221 810C216 810 216 810 216 805L216 671" stroke="none" fill="#CCFFCC"/><path d="M216 671C216 666 216 666 221 666L406 666C411 666 411 666 411 671L411 805C411 810 411 810 406 810L221 810C216 810 216 810 216 805L216 671M216 671C216 666 216 666 221 666L406 666C411 666 411 666 411 671L411 805C411 810 411 810 406 810L221 810C216 810 216 810 216 805L216 671" stroke="#C0C0C0"/><text stroke="none" fill="#000000" transform="translate(287 672)"><tspan x="0" y="9" dx="0">«</tspan><tspan x="5.33333" y="9" dx="0">O</tspan><tspan x="12" y="9" dx="0">b</tspan><tspan x="17.3333" y="9" dx="0">j</tspan><tspan x="19.6667" y="9" dx="0">e</tspan><tspan x="24.6667" y="9" dx="0">c</tspan><tspan x="29" y="9" dx="0 0">tt</tspan><tspan x="35.6667" y="9" dx="0">y</tspan><tspan x="40.3333" y="9" dx="0">p</tspan><tspan x="45.6667" y="9" dx="0">e</tspan><tspan x="50.6667" y="9" dx="0">»</tspan></text><text stroke="none" fill="#000000" font-style="italic" font-weight="700" transform="translate(263 685)"><tspan x="0" y="9" dx="0">R</tspan><tspan x="6" y="9" dx="0">e</tspan><tspan x="11.3333" y="9" dx="0">g</tspan><tspan x="17" y="9" dx="0">e</tspan><tspan x="22.3333" y="9" dx="0">l</tspan><tspan x="24.6667" y="9" dx="0">s</tspan><tspan x="28.3333" y="9" dx="0">O</tspan><tspan x="35.3333" y="9" dx="0">p</tspan><tspan x="41" y="9" dx="0">L</tspan><tspan x="45.3333" y="9" dx="0">o</tspan><tspan x="51" y="9" dx="0">c</tspan><tspan x="55.3333" y="9" dx="0">a</tspan><tspan x="61" y="9" dx="0 0">ti</tspan><tspan x="66.6667" y="9" dx="0">e</tspan><tspan x="72" y="9" dx="0">:</tspan><tspan x="74.6667" y="9" dx="0">:</tspan><tspan x="77.3333" y="9" dx="0">N</tspan><tspan x="84.3333" y="9" dx="0">o</tspan><tspan x="89.6667" y="9" dx="0">r</tspan><tspan x="93" y="9" dx="0">m</tspan></text><path d="M216 703 411 703" stroke="#C0C0C0"/><text stroke="none" fill="#000000" transform="translate(228 711)"><tspan x="0" y="9" dx="0">«</tspan><tspan x="5" y="9" dx="0">A</tspan><tspan x="10.6667" y="9" dx="0 0">tt</tspan><tspan x="17.3333" y="9" dx="0">r</tspan><tspan x="20.6667" y="9" dx="0">i</tspan><tspan x="23" y="9" dx="0">b</tspan><tspan x="28" y="9" dx="0">u</tspan><tspan x="33" y="9" dx="0">u</tspan><tspan x="38.3333" y="9" dx="0">t</tspan><tspan x="41.6667" y="9" dx="0">s</tspan><tspan x="45.3333" y="9" dx="0">o</tspan><tspan x="50.6667" y="9" dx="0">o</tspan><tspan x="56" y="9" dx="0">r</tspan><tspan x="59.3333" y="9" dx="0">t</tspan><tspan x="62.6667" y="9" dx="0">»</tspan></text><text stroke="none" fill="#2F4F4F" transform="translate(221 724)"><tspan x="0" y="9" dx="0">+</tspan></text><text stroke="none" fill="#2F4F4F" transform="translate(238 724)"><tspan x="0" y="9" dx="0">i</tspan><tspan x="2.33333" y="9" dx="0">d</tspan><tspan x="7.33333" y="9" dx="0">e</tspan><tspan x="12" y="9" dx="0">n</tspan><tspan x="17" y="9" dx="0 0">ti</tspan><tspan x="22.6667" y="9" dx="0 0">fi</tspan><tspan x="28" y="9" dx="0">c</tspan><tspan x="32.3333" y="9" dx="0">a</tspan><tspan x="37.3333" y="9" dx="0 0">ti</tspan><tspan x="43" y="9" dx="0">e</tspan><tspan x="48" y="9" dx="0">:</tspan><tspan x="50.6667" y="9" dx="0"> </tspan><tspan x="53" y="9" dx="0">I</tspan><tspan x="55.3333" y="9" dx="0">d</tspan><tspan x="60.6667" y="9" dx="0">e</tspan><tspan x="65.6667" y="9" dx="0">n</tspan><tspan x="71" y="9" dx="0 0">ti</tspan><tspan x="76.6667" y="9" dx="0 0">fi</tspan><tspan x="82" y="9" dx="0">c</tspan><tspan x="86.3333" y="9" dx="0">a</tspan><tspan x="91.3333" y="9" dx="0 0">ti</tspan><tspan x="97" y="9" dx="0">e</tspan><tspan x="102" y="9" dx="0"> </tspan><tspan x="104.333" y="9" dx="0">{</tspan><tspan x="107.333" y="9" dx="0">i</tspan><tspan x="109.667" y="9" dx="0">d</tspan><tspan x="115" y="9" dx="0">}</tspan></text><text stroke="none" fill="#2F4F4F" transform="translate(221 737)"><tspan x="0" y="9" dx="0">+</tspan></text><text stroke="none" fill="#2F4F4F" transform="translate(238 737)"><tspan x="0" y="9" dx="0">naam: CharacterString</tspan></text><text stroke="none" fill="#2F4F4F" transform="translate(221 750)"><tspan x="0" y="9" dx="0">+</tspan></text><text stroke="none" fill="#2F4F4F" transform="translate(238 750)"><tspan x="0" y="9" dx="0">eenheid: Eenheid [0..1]</tspan></text><text stroke="none" fill="#2F4F4F" transform="translate(221 763)"><tspan x="0" y="9" dx="0">+</tspan></text><text stroke="none" fill="#2F4F4F" transform="translate(238 763)"><tspan x="0" y="9" dx="0">type: Typenorm</tspan></text><text stroke="none" fill="#000000" transform="translate(228 780)"><tspan x="0" y="9" dx="0">«Gegevensgroep»</tspan></text><text stroke="none" fill="#2F4F4F" transform="translate(221 793)"><tspan x="0" y="9" dx="0">+</tspan></text><text stroke="none" fill="#2F4F4F" transform="translate(238 793)"><tspan x="0" y="9" dx="0">normwaarde: Normwaarde [1..*]</tspan></text><path d="M136 186C136 181 136 181 141 181L270 181C275 181 275 181 275 186L275 307C275 312 275 312 270 312L141 312C136 312 136 312 136 307L136 186" stroke="none" fill="#CCFFFF"/><path d="M136 186C136 181 136 181 141 181L270 181C275 181 275 181 275 186L275 307C275 312 275 312 270 312L141 312C136 312 136 312 136 307L136 186M136 186C136 181 136 181 141 181L270 181C275 181 275 181 275 186L275 307C275 312 275 312 270 312L141 312C136 312 136 312 136 307L136 186"/><text stroke="none" fill="#000000" transform="translate(179 187)"><tspan x="0" y="9" dx="0">«</tspan><tspan x="5.33333" y="9" dx="0">O</tspan><tspan x="12" y="9" dx="0">b</tspan><tspan x="17.3333" y="9" dx="0">j</tspan><tspan x="19.6667" y="9" dx="0">e</tspan><tspan x="24.6667" y="9" dx="0">c</tspan><tspan x="29" y="9" dx="0 0">tt</tspan><tspan x="35.6667" y="9" dx="0">y</tspan><tspan x="40.3333" y="9" dx="0">p</tspan><tspan x="45.6667" y="9" dx="0">e</tspan><tspan x="50.6667" y="9" dx="0">»</tspan></text><text stroke="none" fill="#000000" font-weight="700" transform="translate(160 200)"><tspan x="0" y="9" dx="0">VrijeTekst::Tekstdeel</tspan></text><path d="M136 218 275 218"/><text stroke="none" fill="#000000" transform="translate(148 226)"><tspan x="0" y="9" dx="0">«</tspan><tspan x="5" y="9" dx="0">A</tspan><tspan x="10.6667" y="9" dx="0 0">tt</tspan><tspan x="17.3333" y="9" dx="0">r</tspan><tspan x="20.6667" y="9" dx="0">i</tspan><tspan x="23" y="9" dx="0">b</tspan><tspan x="28" y="9" dx="0">u</tspan><tspan x="33" y="9" dx="0">u</tspan><tspan x="38.3333" y="9" dx="0">t</tspan><tspan x="41.6667" y="9" dx="0">s</tspan><tspan x="45.3333" y="9" dx="0">o</tspan><tspan x="50.6667" y="9" dx="0">o</tspan><tspan x="56" y="9" dx="0">r</tspan><tspan x="59.3333" y="9" dx="0">t</tspan><tspan x="62.6667" y="9" dx="0">»</tspan></text><text stroke="none" fill="#2F4F4F" transform="translate(141 239)"><tspan x="0" y="9" dx="0">+</tspan></text><text stroke="none" fill="#2F4F4F" transform="translate(158 239)"><tspan x="0" y="9" dx="0">i</tspan><tspan x="2.33333" y="9" dx="0">d</tspan><tspan x="7.33333" y="9" dx="0">e</tspan><tspan x="12" y="9" dx="0">n</tspan><tspan x="17" y="9" dx="0 0">ti</tspan><tspan x="22.6667" y="9" dx="0 0">fi</tspan><tspan x="28" y="9" dx="0">c</tspan><tspan x="32.3333" y="9" dx="0">a</tspan><tspan x="37.3333" y="9" dx="0 0">ti</tspan><tspan x="43" y="9" dx="0">e</tspan><tspan x="48" y="9" dx="0">:</tspan><tspan x="50.6667" y="9" dx="0"> </tspan><tspan x="53" y="9" dx="0">I</tspan><tspan x="55.3333" y="9" dx="0">d</tspan><tspan x="60.6667" y="9" dx="0">e</tspan><tspan x="65.6667" y="9" dx="0">n</tspan><tspan x="71" y="9" dx="0 0">ti</tspan><tspan x="76.6667" y="9" dx="0 0">fi</tspan><tspan x="82" y="9" dx="0">c</tspan><tspan x="86.3333" y="9" dx="0">a</tspan><tspan x="91.3333" y="9" dx="0 0">ti</tspan><tspan x="97" y="9" dx="0">e</tspan><tspan x="102" y="9" dx="0"> </tspan><tspan x="104.333" y="9" dx="0">{</tspan><tspan x="107.333" y="9" dx="0">i</tspan><tspan x="109.667" y="9" dx="0">d</tspan><tspan x="115" y="9" dx="0">}</tspan></text><text stroke="none" fill="#2F4F4F" transform="translate(141 252)"><tspan x="0" y="9" dx="0">+</tspan></text><text stroke="none" fill="#2F4F4F" transform="translate(158 252)"><tspan x="0" y="9" dx="0">i</tspan><tspan x="2.33333" y="9" dx="0">d</tspan><tspan x="8" y="9" dx="0">e</tspan><tspan x="13.3333" y="9" dx="0">a</tspan><tspan x="18.6667" y="9" dx="0">l</tspan><tspan x="21" y="9" dx="0">i</tspan><tspan x="23.3333" y="9" dx="0">s</tspan><tspan x="27.3333" y="9" dx="0">a</tspan><tspan x="32.6667" y="9" dx="0 0">ti</tspan><tspan x="38.3333" y="9" dx="0">e</tspan><tspan x="43.6667" y="9" dx="0">:</tspan><tspan x="46.3333" y="9" dx="0"> </tspan><tspan x="49" y="9" dx="0">I</tspan><tspan x="51.3333" y="9" dx="0">d</tspan><tspan x="57" y="9" dx="0">e</tspan><tspan x="62.3333" y="9" dx="0">a</tspan><tspan x="67.3333" y="9" dx="0">l</tspan><tspan x="69.6667" y="9" dx="0">i</tspan><tspan x="72" y="9" dx="0">s</tspan><tspan x="75.6667" y="9" dx="0">a</tspan><tspan x="80.6667" y="9" dx="0 0">ti</tspan><tspan x="86.3333" y="9" dx="0">e</tspan><tspan x="91.3333" y="9" dx="0"> </tspan><tspan x="93.6667" y="9" dx="0">[</tspan><tspan x="96.6667" y="9" dx="0">0</tspan><tspan x="102" y="9" dx="0">.</tspan><tspan x="104.333" y="9" dx="0">.</tspan><tspan x="106.667" y="9" dx="0">1</tspan><tspan x="112" y="9" dx="0">]</tspan></text><text stroke="none" fill="#2F4F4F" transform="translate(141 265)"><tspan x="0" y="9" dx="0">+</tspan></text><text stroke="none" fill="#2F4F4F" transform="translate(158 265)"><tspan x="0" y="9" dx="0">omschrijving: CharacterString</tspan></text><text stroke="none" fill="#2F4F4F" transform="translate(141 278)"><tspan x="0" y="9" dx="0">+</tspan></text><text stroke="none" fill="#2F4F4F" transform="translate(158 278)"><tspan x="0" y="9" dx="0">thema: Thema [0..*]</tspan></text><text stroke="none" fill="#FF0000" font-family="ArialUnicode" font-style="italic" transform="translate(267 293)"><tspan x="0" y="8" dx="0">A</tspan></text><path d="M439 449C439 444 439 444 444 444L748 444C753 444 753 444 753 449L753 586C753 591 753 591 748 591L444 591C439 591 439 591 439 586L439 449" stroke="none" fill="#FFFE99"/><path d="M439 449C439 444 439 444 444 444L748 444C753 444 753 444 753 449L753 586C753 591 753 591 748 591L444 591C439 591 439 591 439 586L439 449M439 449C439 444 439 444 444 444L748 444C753 444 753 444 753 449L753 586C753 591 753 591 748 591L444 591C439 591 439 591 439 586L439 449"/><text stroke="none" fill="#000000" font-size="13" transform="translate(560 450)"><tspan x="0" y="13" dx="0">«</tspan><tspan x="6" y="13" dx="0">O</tspan><tspan x="15" y="13" dx="0">b</tspan><tspan x="22" y="13" dx="0">j</tspan><tspan x="25" y="13" dx="0">e</tspan><tspan x="32" y="13" dx="0">c</tspan><tspan x="38" y="13" dx="0 0">tt</tspan><tspan x="46" y="13" dx="0">y</tspan><tspan x="51" y="13" dx="0">p</tspan><tspan x="58" y="13" dx="0">e</tspan><tspan x="66" y="13" dx="0">»</tspan></text><text stroke="none" fill="#000000" font-weight="700" font-size="13" transform="translate(571 465)"><tspan x="0" y="13" dx="0">Kaartlaag</tspan></text><path d="M439 485 753 485"/><text stroke="none" fill="#000000" font-size="13" transform="translate(452 493)"><tspan x="0" y="13" dx="0">«</tspan><tspan x="6" y="13" dx="0">A</tspan><tspan x="14" y="13" dx="0 0">tt</tspan><tspan x="22" y="13" dx="0">r</tspan><tspan x="26" y="13" dx="0">i</tspan><tspan x="30" y="13" dx="0">b</tspan><tspan x="38" y="13" dx="0">u</tspan><tspan x="45" y="13" dx="0">u</tspan><tspan x="52" y="13" dx="0">t</tspan><tspan x="56" y="13" dx="0">s</tspan><tspan x="63" y="13" dx="0">o</tspan><tspan x="70" y="13" dx="0">o</tspan><tspan x="77" y="13" dx="0">r</tspan><tspan x="81" y="13" dx="0">t</tspan><tspan x="85" y="13" dx="0">»</tspan></text><text stroke="none" fill="#2F4F4F" font-size="13" transform="translate(444 508)"><tspan x="0" y="13" dx="0">+</tspan></text><text stroke="none" fill="#2F4F4F" font-size="13" transform="translate(465 508)"><tspan x="0" y="13" dx="0">i</tspan><tspan x="4" y="13" dx="0">d</tspan><tspan x="11" y="13" dx="0">e</tspan><tspan x="19" y="13" dx="0">n</tspan><tspan x="26" y="13" dx="0 0">ti</tspan><tspan x="34" y="13" dx="0 0">fi</tspan><tspan x="43" y="13" dx="0">c</tspan><tspan x="48" y="13" dx="0">a</tspan><tspan x="55" y="13" dx="0 0">ti</tspan><tspan x="64" y="13" dx="0">e</tspan><tspan x="71" y="13" dx="0">:</tspan><tspan x="74" y="13" dx="0"> </tspan><tspan x="77" y="13" dx="0">I</tspan><tspan x="81" y="13" dx="0">d</tspan><tspan x="89" y="13" dx="0">e</tspan><tspan x="96" y="13" dx="0">n</tspan><tspan x="103" y="13" dx="0 0">ti</tspan><tspan x="111" y="13" dx="0 0">fi</tspan><tspan x="120" y="13" dx="0">c</tspan><tspan x="125" y="13" dx="0">a</tspan><tspan x="132" y="13" dx="0 0">ti</tspan><tspan x="141" y="13" dx="0">e</tspan></text><text stroke="none" fill="#2F4F4F" font-size="13" transform="translate(444 523)"><tspan x="0" y="13" dx="0">+</tspan></text><text stroke="none" fill="#2F4F4F" font-size="13" transform="translate(465 523)"><tspan x="0" y="13" dx="0">naam: CharacterString [0..1]</tspan></text><text stroke="none" fill="#2F4F4F" font-size="13" transform="translate(444 538)"><tspan x="0" y="13" dx="0">+</tspan></text><text stroke="none" fill="#2F4F4F" font-size="13" transform="translate(465 538)"><tspan x="0" y="13" dx="0">niveau: Integer</tspan></text><text stroke="none" fill="#000000" font-size="13" transform="translate(452 557)"><tspan x="0" y="13" dx="0">«Gegevensgroep»</tspan></text><text stroke="none" fill="#2F4F4F" font-size="13" transform="translate(444 572)"><tspan x="0" y="13" dx="0">+</tspan></text><text stroke="none" fill="#2F4F4F" font-size="13" transform="translate(465 572)"><tspan x="0" y="13" dx="0">t</tspan><tspan x="4" y="13" dx="0">o</tspan><tspan x="11" y="13" dx="0">o</tspan><tspan x="19" y="13" dx="0">n</tspan><tspan x="26" y="13" dx="0">t</tspan><tspan x="30" y="13" dx="0">E</tspan><tspan x="36" y="13" dx="0">e</tspan><tspan x="44" y="13" dx="0">n</tspan><tspan x="51" y="13" dx="0">A</tspan><tspan x="58" y="13" dx="0">c</tspan><tspan x="64" y="13" dx="0 0">ti</tspan><tspan x="72" y="13" dx="0">v</tspan><tspan x="77" y="13" dx="0">i</tspan><tspan x="81" y="13" dx="0">t</tspan><tspan x="85" y="13" dx="0">e</tspan><tspan x="93" y="13" dx="0">i</tspan><tspan x="97" y="13" dx="0">t</tspan><tspan x="101" y="13" dx="0">:</tspan><tspan x="104" y="13" dx="0"> </tspan><tspan x="107" y="13" dx="0">A</tspan><tspan x="115" y="13" dx="0">c</tspan><tspan x="120" y="13" dx="0 0">ti</tspan><tspan x="128" y="13" dx="0">v</tspan><tspan x="133" y="13" dx="0">i</tspan><tspan x="138" y="13" dx="0">t</tspan><tspan x="142" y="13" dx="0">e</tspan><tspan x="149" y="13" dx="0">i</tspan><tspan x="153" y="13" dx="0">t</tspan><tspan x="157" y="13" dx="0">L</tspan><tspan x="163" y="13" dx="0">o</tspan><tspan x="170" y="13" dx="0">c</tspan><tspan x="175" y="13" dx="0">a</tspan><tspan x="182" y="13" dx="0 0">ti</tspan><tspan x="191" y="13" dx="0">e</tspan><tspan x="198" y="13" dx="0">a</tspan><tspan x="205" y="13" dx="0">a</tspan><tspan x="213" y="13" dx="0">n</tspan><tspan x="220" y="13" dx="0">d</tspan><tspan x="227" y="13" dx="0">u</tspan><tspan x="234" y="13" dx="0">i</tspan><tspan x="239" y="13" dx="0">d</tspan><tspan x="246" y="13" dx="0">i</tspan><tspan x="250" y="13" dx="0">n</tspan><tspan x="257" y="13" dx="0">g</tspan><tspan x="264" y="13" dx="0"> </tspan><tspan x="267" y="13" dx="0">[</tspan><tspan x="271" y="13" dx="0">0</tspan><tspan x="277" y="13" dx="0">.</tspan><tspan x="280" y="13" dx="0">.</tspan><tspan x="283" y="13" dx="0">*</tspan><tspan x="290" y="13" dx="0">]</tspan></text><path d="M136 356C136 351 136 351 141 351L273 351C278 351 278 351 278 356L278 477C278 482 278 482 273 482L141 482C136 482 136 482 136 477L136 356" stroke="none" fill="#CCFFFF"/><path d="M136 356C136 351 136 351 141 351L273 351C278 351 278 351 278 356L278 477C278 482 278 482 273 482L141 482C136 482 136 482 136 477L136 356M136 356C136 351 136 351 141 351L273 351C278 351 278 351 278 356L278 477C278 482 278 482 273 482L141 482C136 482 136 482 136 477L136 356"/><text stroke="none" fill="#000000" transform="translate(180 357)"><tspan x="0" y="9" dx="0">«</tspan><tspan x="5.33333" y="9" dx="0">O</tspan><tspan x="12" y="9" dx="0">b</tspan><tspan x="17.3333" y="9" dx="0">j</tspan><tspan x="19.6667" y="9" dx="0">e</tspan><tspan x="24.6667" y="9" dx="0">c</tspan><tspan x="29" y="9" dx="0 0">tt</tspan><tspan x="35.6667" y="9" dx="0">y</tspan><tspan x="40.3333" y="9" dx="0">p</tspan><tspan x="45.6667" y="9" dx="0">e</tspan><tspan x="50.6667" y="9" dx="0">»</tspan></text><text stroke="none" fill="#000000" font-weight="700" transform="translate(160 370)"><tspan x="0" y="9" dx="0">Regel::Juridische regel</tspan></text><path d="M136 388 278 388"/><text stroke="none" fill="#000000" transform="translate(148 396)"><tspan x="0" y="9" dx="0">«</tspan><tspan x="5" y="9" dx="0">A</tspan><tspan x="10.6667" y="9" dx="0 0">tt</tspan><tspan x="17.3333" y="9" dx="0">r</tspan><tspan x="20.6667" y="9" dx="0">i</tspan><tspan x="23" y="9" dx="0">b</tspan><tspan x="28" y="9" dx="0">u</tspan><tspan x="33" y="9" dx="0">u</tspan><tspan x="38.3333" y="9" dx="0">t</tspan><tspan x="41.6667" y="9" dx="0">s</tspan><tspan x="45.3333" y="9" dx="0">o</tspan><tspan x="50.6667" y="9" dx="0">o</tspan><tspan x="56" y="9" dx="0">r</tspan><tspan x="59.3333" y="9" dx="0">t</tspan><tspan x="62.6667" y="9" dx="0">»</tspan></text><text stroke="none" fill="#2F4F4F" transform="translate(141 409)"><tspan x="0" y="9" dx="0">+</tspan></text><text stroke="none" fill="#2F4F4F" transform="translate(158 409)"><tspan x="0" y="9" dx="0">i</tspan><tspan x="2.33333" y="9" dx="0">d</tspan><tspan x="7.33333" y="9" dx="0">e</tspan><tspan x="12" y="9" dx="0">n</tspan><tspan x="17" y="9" dx="0 0">ti</tspan><tspan x="22.6667" y="9" dx="0 0">fi</tspan><tspan x="28" y="9" dx="0">c</tspan><tspan x="32.3333" y="9" dx="0">a</tspan><tspan x="37.3333" y="9" dx="0 0">ti</tspan><tspan x="43" y="9" dx="0">e</tspan><tspan x="48" y="9" dx="0">:</tspan><tspan x="50.6667" y="9" dx="0"> </tspan><tspan x="53" y="9" dx="0">I</tspan><tspan x="55.3333" y="9" dx="0">d</tspan><tspan x="60.6667" y="9" dx="0">e</tspan><tspan x="65.6667" y="9" dx="0">n</tspan><tspan x="71" y="9" dx="0 0">ti</tspan><tspan x="76.6667" y="9" dx="0 0">fi</tspan><tspan x="82" y="9" dx="0">c</tspan><tspan x="86.3333" y="9" dx="0">a</tspan><tspan x="91.3333" y="9" dx="0 0">ti</tspan><tspan x="97" y="9" dx="0">e</tspan></text><text stroke="none" fill="#2F4F4F" transform="translate(141 422)"><tspan x="0" y="9" dx="0">+</tspan></text><text stroke="none" fill="#2F4F4F" transform="translate(158 422)"><tspan x="0" y="9" dx="0">i</tspan><tspan x="2.33333" y="9" dx="0">d</tspan><tspan x="8" y="9" dx="0">e</tspan><tspan x="13.3333" y="9" dx="0">a</tspan><tspan x="18.6667" y="9" dx="0">l</tspan><tspan x="21" y="9" dx="0">i</tspan><tspan x="23.3333" y="9" dx="0">s</tspan><tspan x="27" y="9" dx="0">a</tspan><tspan x="32.3333" y="9" dx="0 0">ti</tspan><tspan x="38" y="9" dx="0">e</tspan><tspan x="43.3333" y="9" dx="0">:</tspan><tspan x="46" y="9" dx="0"> </tspan><tspan x="48.3333" y="9" dx="0">I</tspan><tspan x="50.6667" y="9" dx="0">d</tspan><tspan x="56" y="9" dx="0">e</tspan><tspan x="61" y="9" dx="0">a</tspan><tspan x="66" y="9" dx="0">l</tspan><tspan x="68.3333" y="9" dx="0">i</tspan><tspan x="70.6667" y="9" dx="0">s</tspan><tspan x="74.3333" y="9" dx="0">a</tspan><tspan x="79.3333" y="9" dx="0 0">ti</tspan><tspan x="85" y="9" dx="0">e</tspan></text><text stroke="none" fill="#2F4F4F" transform="translate(141 435)"><tspan x="0" y="9" dx="0">+</tspan></text><text stroke="none" fill="#2F4F4F" transform="translate(158 435)"><tspan x="0" y="9" dx="0">omschrijving: CharacterString</tspan></text><text stroke="none" fill="#2F4F4F" transform="translate(141 448)"><tspan x="0" y="9" dx="0">+</tspan></text><text stroke="none" fill="#2F4F4F" transform="translate(158 448)"><tspan x="0" y="9" dx="0">thema: Thema [0..*]</tspan></text><path d="M729 671C729 666 729 666 734 666L954 666C959 666 959 666 959 671L959 766C959 771 959 771 954 771L734 771C729 771 729 771 729 766L729 671" stroke="none" fill="#CCFFCC"/><path d="M729 671C729 666 729 666 734 666L954 666C959 666 959 666 959 671L959 766C959 771 959 771 954 771L734 771C729 771 729 771 729 766L729 671M729 671C729 666 729 666 734 666L954 666C959 666 959 666 959 671L959 766C959 771 959 771 954 771L734 771C729 771 729 771 729 766L729 671"/><text stroke="none" fill="#000000" transform="translate(799 672)"><tspan x="0" y="9" dx="0">«Gegevensgroeptype»</tspan></text><text stroke="none" fill="#000000" font-weight="700" transform="translate(773 685)"><tspan x="0" y="9" dx="0">R</tspan><tspan x="6" y="9" dx="0">e</tspan><tspan x="11" y="9" dx="0">g</tspan><tspan x="16" y="9" dx="0">e</tspan><tspan x="21" y="9" dx="0">l</tspan><tspan x="23.3333" y="9" dx="0">:</tspan><tspan x="26" y="9" dx="0">:</tspan><tspan x="28.6667" y="9" dx="0">A</tspan><tspan x="34.6667" y="9" dx="0">c</tspan><tspan x="39" y="9" dx="0 0">ti</tspan><tspan x="44.6667" y="9" dx="0">v</tspan><tspan x="49.6667" y="9" dx="0">i</tspan><tspan x="52" y="9" dx="0">t</tspan><tspan x="55.3333" y="9" dx="0">e</tspan><tspan x="60.3333" y="9" dx="0">i</tspan><tspan x="62.6667" y="9" dx="0">t</tspan><tspan x="66" y="9" dx="0">L</tspan><tspan x="70.3333" y="9" dx="0">o</tspan><tspan x="75.6667" y="9" dx="0">c</tspan><tspan x="80" y="9" dx="0">a</tspan><tspan x="85" y="9" dx="0 0">ti</tspan><tspan x="90.6667" y="9" dx="0">e</tspan><tspan x="95.6667" y="9" dx="0">a</tspan><tspan x="100.667" y="9" dx="0">a</tspan><tspan x="105.667" y="9" dx="0">n</tspan><tspan x="111" y="9" dx="0">d</tspan><tspan x="116.333" y="9" dx="0">u</tspan><tspan x="121.667" y="9" dx="0">i</tspan><tspan x="124" y="9" dx="0">d</tspan><tspan x="129.333" y="9" dx="0">i</tspan><tspan x="131.667" y="9" dx="0">n</tspan><tspan x="137" y="9" dx="0">g</tspan></text><path d="M729 703 959 703"/><text stroke="none" fill="#000000" transform="translate(741 711)"><tspan x="0" y="9" dx="0">«</tspan><tspan x="5" y="9" dx="0">A</tspan><tspan x="10.6667" y="9" dx="0 0">tt</tspan><tspan x="17.3333" y="9" dx="0">r</tspan><tspan x="20.6667" y="9" dx="0">i</tspan><tspan x="23" y="9" dx="0">b</tspan><tspan x="28" y="9" dx="0">u</tspan><tspan x="33" y="9" dx="0">u</tspan><tspan x="38.3333" y="9" dx="0">t</tspan><tspan x="41.6667" y="9" dx="0">s</tspan><tspan x="45.3333" y="9" dx="0">o</tspan><tspan x="50.6667" y="9" dx="0">o</tspan><tspan x="56" y="9" dx="0">r</tspan><tspan x="59.3333" y="9" dx="0">t</tspan><tspan x="62.6667" y="9" dx="0">»</tspan></text><text stroke="none" fill="#2F4F4F" transform="translate(734 724)"><tspan x="0" y="9" dx="0">+</tspan></text><text stroke="none" fill="#2F4F4F" transform="translate(751 724)"><tspan x="0" y="9" dx="0">i</tspan><tspan x="2.33333" y="9" dx="0">d</tspan><tspan x="7.33333" y="9" dx="0">e</tspan><tspan x="12" y="9" dx="0">n</tspan><tspan x="17" y="9" dx="0 0">ti</tspan><tspan x="22.6667" y="9" dx="0 0">fi</tspan><tspan x="28" y="9" dx="0">c</tspan><tspan x="32.3333" y="9" dx="0">a</tspan><tspan x="37.3333" y="9" dx="0 0">ti</tspan><tspan x="43" y="9" dx="0">e</tspan><tspan x="48" y="9" dx="0">:</tspan><tspan x="50.6667" y="9" dx="0"> </tspan><tspan x="53" y="9" dx="0">I</tspan><tspan x="55.3333" y="9" dx="0">d</tspan><tspan x="60.6667" y="9" dx="0">e</tspan><tspan x="65.6667" y="9" dx="0">n</tspan><tspan x="71" y="9" dx="0 0">ti</tspan><tspan x="76.6667" y="9" dx="0 0">fi</tspan><tspan x="82" y="9" dx="0">c</tspan><tspan x="86.3333" y="9" dx="0">a</tspan><tspan x="91.3333" y="9" dx="0 0">ti</tspan><tspan x="97" y="9" dx="0">e</tspan></text><text stroke="none" fill="#2F4F4F" transform="translate(734 737)"><tspan x="0" y="9" dx="0">+</tspan></text><text stroke="none" fill="#2F4F4F" transform="translate(751 737)"><tspan x="0" y="9" dx="0">a</tspan><tspan x="4.66667" y="9" dx="0">c</tspan><tspan x="9" y="9" dx="0 0">ti</tspan><tspan x="14.6667" y="9" dx="0">v</tspan><tspan x="19.3333" y="9" dx="0">i</tspan><tspan x="21.6667" y="9" dx="0">t</tspan><tspan x="25" y="9" dx="0">e</tspan><tspan x="30" y="9" dx="0">i</tspan><tspan x="32.3333" y="9" dx="0">t</tspan><tspan x="35.6667" y="9" dx="0">r</tspan><tspan x="39" y="9" dx="0">e</tspan><tspan x="44" y="9" dx="0">g</tspan><tspan x="49" y="9" dx="0">e</tspan><tspan x="54" y="9" dx="0">l</tspan><tspan x="56.3333" y="9" dx="0">k</tspan><tspan x="61" y="9" dx="0">w</tspan><tspan x="68.3333" y="9" dx="0">a</tspan><tspan x="73.3333" y="9" dx="0">l</tspan><tspan x="75.6667" y="9" dx="0">i</tspan><tspan x="78" y="9" dx="0 0">fi</tspan><tspan x="83.3333" y="9" dx="0">c</tspan><tspan x="87.6667" y="9" dx="0">a</tspan><tspan x="92.6667" y="9" dx="0 0">ti</tspan><tspan x="98.3333" y="9" dx="0">e</tspan><tspan x="103.333" y="9" dx="0">:</tspan><tspan x="106" y="9" dx="0"> </tspan><tspan x="108.333" y="9" dx="0">A</tspan><tspan x="114.333" y="9" dx="0">c</tspan><tspan x="118.667" y="9" dx="0 0">ti</tspan><tspan x="124.333" y="9" dx="0">v</tspan><tspan x="129" y="9" dx="0">i</tspan><tspan x="131.333" y="9" dx="0">t</tspan><tspan x="134.667" y="9" dx="0">e</tspan><tspan x="139.667" y="9" dx="0">i</tspan><tspan x="142" y="9" dx="0">t</tspan><tspan x="145.333" y="9" dx="0">r</tspan><tspan x="148.667" y="9" dx="0">e</tspan><tspan x="153.667" y="9" dx="0">g</tspan><tspan x="158.667" y="9" dx="0">e</tspan><tspan x="163.667" y="9" dx="0">l</tspan><tspan x="166" y="9" dx="0">k</tspan><tspan x="170.667" y="9" dx="0">w</tspan><tspan x="178" y="9" dx="0">a</tspan><tspan x="183" y="9" dx="0">l</tspan><tspan x="185.333" y="9" dx="0">i</tspan><tspan x="187.667" y="9" dx="0 0">fi</tspan><tspan x="193" y="9" dx="0">c</tspan><tspan x="197.333" y="9" dx="0">a</tspan><tspan x="202.333" y="9" dx="0 0">ti</tspan><tspan x="208" y="9" dx="0">e</tspan></text><path d="M593 592 593 666M593 666 587 651M593 666 599 651"/><path d="M276 229 484 229M484 229 469 235M484 229 469 223"/><path d="M584 375 584 444M584 444 578 429M584 444 590 429"/><path d="M279 420 330 420M330 420 330 295M330 295 484 295M484 295 469 301M484 295 469 289"/><path d="M496 592 496 616M496 616 334 616M334 616 334 666M334 666 328 651M334 666 340 651"/><g transform="matrix(1 0 0 -1 279 234)"><rect x="0" y="-13" width="17" height="13" stroke="none" fill="#FFFFFF"/></g><text stroke="none" fill="#000000" transform="translate(279 234)"><tspan x="0" y="9" dx="0">0..*</tspan></text><g transform="matrix(1 0 0 -1 362 215)"><rect x="0" y="-13" width="38" height="13" stroke="none" fill="#FFFFFF"/></g><text stroke="none" fill="#000000" transform="translate(362 215)"><tspan x="0" y="9" dx="0">benoemt</tspan></text><g transform="matrix(1 0 0 -1 449 234)"><rect x="0" y="-13" width="17" height="13" stroke="none" fill="#FFFFFF"/></g><text stroke="none" fill="#000000" transform="translate(449 234)"><tspan x="0" y="9" dx="0">0..*</tspan></text><g transform="matrix(1 0 0 -1 592 380)"><rect x="0" y="-13" width="17" height="13" stroke="none" fill="#FFFFFF"/></g><text stroke="none" fill="#000000" transform="translate(592 380)"><tspan x="0" y="9" dx="0">1..*</tspan></text><g transform="matrix(1 0 0 -1 573 395)"><rect x="0" y="-13" width="24" height="13" stroke="none" fill="#FFFFFF"/></g><text stroke="none" fill="#000000" transform="translate(573 395)"><tspan x="0" y="9" dx="0">bevat</tspan></text><g transform="matrix(1 0 0 -1 592 426)"><rect x="0" y="-13" width="17" height="13" stroke="none" fill="#FFFFFF"/></g><text stroke="none" fill="#000000" transform="translate(592 426)"><tspan x="0" y="9" dx="0">1..*</tspan></text><g transform="matrix(1 0 0 -1 504 597)"><rect x="0" y="-13" width="17" height="13" stroke="none" fill="#FFFFFF"/></g><text stroke="none" fill="#000000" transform="translate(504 597)"><tspan x="0" y="9" dx="0">0..*</tspan></text><g transform="matrix(1 0 0 -1 369 609)"><rect x="0" y="-13" width="40" height="13" stroke="none" fill="#FFFFFF"/></g><text stroke="none" fill="#000000" transform="translate(369 609)"><tspan x="0" y="9" dx="0">toont een</tspan></text><g transform="matrix(1 0 0 -1 378 622)"><rect x="0" y="-13" width="22" height="13" stroke="none" fill="#FFFFFF"/></g><text stroke="none" fill="#000000" transform="translate(378 622)"><tspan x="0" y="9" dx="0">norm</tspan></text><g transform="matrix(1 0 0 -1 342 648)"><rect x="0" y="-13" width="17" height="13" stroke="none" fill="#FFFFFF"/></g><text stroke="none" fill="#000000" transform="translate(342 648)"><tspan x="0" y="9" dx="0">0..*</tspan></text><g transform="matrix(1 0 0 -1 282 425)"><rect x="0" y="-13" width="17" height="13" stroke="none" fill="#FFFFFF"/></g><text stroke="none" fill="#000000" transform="translate(282 425)"><tspan x="0" y="9" dx="0">0..*</tspan></text><g transform="matrix(1 0 0 -1 319 343)"><rect x="0" y="-13" width="24" height="13" stroke="none" fill="#FFFFFF"/></g><text stroke="none" fill="#000000" transform="translate(319 343)"><tspan x="0" y="9" dx="0">bevat</tspan></text><g transform="matrix(1 0 0 -1 465 300)"><rect x="0" y="-13" width="17" height="13" stroke="none" fill="#FFFFFF"/></g><text stroke="none" fill="#000000" transform="translate(465 300)"><tspan x="0" y="9" dx="0">0..*</tspan></text><g transform="matrix(1 0 0 -1 601 597)"><rect x="0" y="-13" width="17" height="13" stroke="none" fill="#FFFFFF"/></g><text stroke="none" fill="#000000" transform="translate(601 597)"><tspan x="0" y="9" dx="0">0..*</tspan></text><g transform="matrix(1 0 0 -1 529 618)"><rect x="0" y="-13" width="118" height="13" stroke="none" fill="#FFFFFF"/></g><text stroke="none" fill="#000000" transform="translate(529 618)"><tspan x="0" y="9" dx="0">toont een gebiedsaanwijzing</tspan></text><g transform="matrix(1 0 0 -1 601 648)"><rect x="0" y="-13" width="17" height="13" stroke="none" fill="#FFFFFF"/></g><text stroke="none" fill="#000000" transform="translate(601 648)"><tspan x="0" y="9" dx="0">0..*</tspan></text></g></g></g></g></svg>