<svg width="835.449" height="489.247" viewBox="103.152 288.816 626.587 366.935" xmlns="http://www.w3.org/2000/svg" xmlns:xlink="http://www.w3.org/1999/xlink" overflow="hidden"><g transform="matrix(1 0 0 -1 0 841)"><g stroke="#000000" stroke-linecap="round" stroke-linejoin="round" stroke-miterlimit="3" fill="none" fill-rule="evenodd" font-weight="400" baseline-shift="0"><g transform="matrix(0.75 0 0 0.75 0 841.65)"><g font-family="CalibriUnicode" font-size="13" transform="scale(1.00137 -1.0041)"><rect x="148" y="395" width="813" height="466" stroke="#9A8484"/><rect x="358" y="512" width="193" height="208" stroke="none" fill="#D0D0D0"/><rect x="355" y="509" width="192" height="207" stroke="none" fill="#99CCFF"/><rect x="355" y="509" width="192" height="208"/><rect x="355" y="509" width="192" height="207"/><text stroke="none" fill="#595959" transform="translate(415 515)"><tspan x="0" y="12" dx="0">«</tspan><tspan x="6" y="12" dx="0">O</tspan><tspan x="15" y="12" dx="0">b</tspan><tspan x="22" y="12" dx="0">j</tspan><tspan x="25" y="12" dx="0">e</tspan><tspan x="32" y="12" dx="0">c</tspan><tspan x="38" y="12" dx="0 0">tt</tspan><tspan x="46" y="12" dx="0">y</tspan><tspan x="51" y="12" dx="0">p</tspan><tspan x="58" y="12" dx="0">e</tspan><tspan x="66" y="12" dx="0">»</tspan></text><text stroke="none" fill="#595959" font-weight="700" transform="translate(395 530)"><tspan x="0" y="12" dx="0">DocumentComponent</tspan></text><path d="M355 550 547 550"/><text stroke="none" fill="#595959" transform="translate(368 558)"><tspan x="0" y="12" dx="0">«</tspan><tspan x="6" y="12" dx="0">A</tspan><tspan x="14" y="12" dx="0 0">tt</tspan><tspan x="22" y="12" dx="0">r</tspan><tspan x="26" y="12" dx="0">i</tspan><tspan x="30" y="12" dx="0">b</tspan><tspan x="38" y="12" dx="0">u</tspan><tspan x="45" y="12" dx="0">u</tspan><tspan x="52" y="12" dx="0">t</tspan><tspan x="56" y="12" dx="0">s</tspan><tspan x="63" y="12" dx="0">o</tspan><tspan x="70" y="12" dx="0">o</tspan><tspan x="77" y="12" dx="0">r</tspan><tspan x="81" y="12" dx="0">t</tspan><tspan x="86" y="12" dx="0">»</tspan></text><text stroke="none" fill="#66413F" transform="translate(360 573)"><tspan x="0" y="12" dx="0">+</tspan></text><text stroke="none" fill="#66413F" transform="translate(381 573)"><tspan x="0" y="12" dx="0">i</tspan><tspan x="4" y="12" dx="0">d</tspan><tspan x="11" y="12" dx="0">e</tspan><tspan x="19" y="12" dx="0">n</tspan><tspan x="26" y="12" dx="0 0">ti</tspan><tspan x="34" y="12" dx="0 0">fi</tspan><tspan x="43" y="12" dx="0">c</tspan><tspan x="48" y="12" dx="0">a</tspan><tspan x="55" y="12" dx="0 0">ti</tspan><tspan x="64" y="12" dx="0">e</tspan><tspan x="71" y="12" dx="0">:</tspan><tspan x="74" y="12" dx="0"> </tspan><tspan x="77" y="12" dx="0">w</tspan><tspan x="87" y="12" dx="0">I</tspan><tspan x="91" y="12" dx="0">d</tspan></text><text stroke="none" fill="#66413F" transform="translate(360 588)"><tspan x="0" y="12" dx="0">+</tspan></text><text stroke="none" fill="#66413F" transform="translate(381 588)"><tspan x="0" y="12" dx="0">expressie: eId</tspan></text><text stroke="none" fill="#66413F" transform="translate(360 603)"><tspan x="0" y="12" dx="0">+</tspan></text><text stroke="none" fill="#66413F" transform="translate(381 603)"><tspan x="0" y="12" dx="0">type: CharacterString</tspan></text><text stroke="none" fill="#66413F" transform="translate(360 618)"><tspan x="0" y="12" dx="0">+</tspan></text><text stroke="none" fill="#66413F" transform="translate(381 618)"><tspan x="0" y="12" dx="0">volgordeNummer: Integer</tspan></text><text stroke="none" fill="#66413F" transform="translate(360 633)"><tspan x="0" y="12" dx="0">+</tspan></text><text stroke="none" fill="#66413F" transform="translate(381 633)"><tspan x="0" y="12" dx="0">inhoud: CharacterString [0..1]</tspan></text><text stroke="none" fill="#66413F" transform="translate(360 648)"><tspan x="0" y="12" dx="0">+</tspan></text><text stroke="none" fill="#66413F" transform="translate(381 648)"><tspan x="0" y="12" dx="0">gereserveerd: Boolean [0..1]</tspan></text><text stroke="none" fill="#66413F" transform="translate(360 663)"><tspan x="0" y="12" dx="0">+</tspan></text><text stroke="none" fill="#66413F" transform="translate(381 663)"><tspan x="0" y="12" dx="0">vervallen: Boolean [0..1]</tspan></text><text stroke="none" fill="#595959" transform="translate(368 682)"><tspan x="0" y="12" dx="0">«Gegevensgroep»</tspan></text><text stroke="none" fill="#66413F" transform="translate(360 697)"><tspan x="0" y="12" dx="0">+</tspan></text><text stroke="none" fill="#66413F" transform="translate(381 697)"><tspan x="0" y="12" dx="0">kop: Kop [0..1]</tspan></text><rect x="701" y="708" width="199" height="119" stroke="none" fill="#D0D0D0"/><rect x="698" y="705" width="198" height="118" stroke="none" fill="#99CCFF"/><rect x="698" y="705" width="198" height="119"/><rect x="698" y="705" width="198" height="118"/><text stroke="none" fill="#000000" transform="translate(738 711)"><tspan x="0" y="12" dx="0">«Gegevensgroeptype»</tspan></text><text stroke="none" fill="#000000" font-weight="700" transform="translate(787 726)"><tspan x="0" y="12" dx="0">Kop</tspan></text><path d="M698 746 896 746"/><text stroke="none" fill="#000000" transform="translate(711 754)"><tspan x="0" y="12" dx="0">«</tspan><tspan x="6" y="12" dx="0">A</tspan><tspan x="14" y="12" dx="0 0">tt</tspan><tspan x="22" y="12" dx="0">r</tspan><tspan x="26" y="12" dx="0">i</tspan><tspan x="30" y="12" dx="0">b</tspan><tspan x="38" y="12" dx="0">u</tspan><tspan x="45" y="12" dx="0">u</tspan><tspan x="52" y="12" dx="0">t</tspan><tspan x="56" y="12" dx="0">s</tspan><tspan x="63" y="12" dx="0">o</tspan><tspan x="70" y="12" dx="0">o</tspan><tspan x="77" y="12" dx="0">r</tspan><tspan x="81" y="12" dx="0">t</tspan><tspan x="86" y="12" dx="0">»</tspan></text><text stroke="none" fill="#66413F" transform="translate(703 769)"><tspan x="0" y="12" dx="0">+</tspan></text><text stroke="none" fill="#66413F" transform="translate(724 769)"><tspan x="0" y="12" dx="0">label: CharacterString [0..1]</tspan></text><text stroke="none" fill="#66413F" transform="translate(703 784)"><tspan x="0" y="12" dx="0">+</tspan></text><text stroke="none" fill="#66413F" transform="translate(724 784)"><tspan x="0" y="12" dx="0">nummer: CharacterString [0..1]</tspan></text><text stroke="none" fill="#66413F" transform="translate(703 799)"><tspan x="0" y="12" dx="0">+</tspan></text><text stroke="none" fill="#66413F" transform="translate(724 799)"><tspan x="0" y="12" dx="0">o</tspan><tspan x="7" y="12" dx="0">p</tspan><tspan x="15" y="12" dx="0">s</tspan><tspan x="21" y="12" dx="0">c</tspan><tspan x="26" y="12" dx="0">h</tspan><tspan x="33" y="12" dx="0">r</tspan><tspan x="38" y="12" dx="0">i</tspan><tspan x="42" y="12" dx="0 0">ft</tspan><tspan x="50" y="12" dx="0">:</tspan><tspan x="53" y="12" dx="0"> </tspan><tspan x="56" y="12" dx="0">C</tspan><tspan x="63" y="12" dx="0">h</tspan><tspan x="70" y="12" dx="0">a</tspan><tspan x="77" y="12" dx="0">r</tspan><tspan x="81" y="12" dx="0">a</tspan><tspan x="89" y="12" dx="0">c</tspan><tspan x="94" y="12" dx="0">t</tspan><tspan x="98" y="12" dx="0">e</tspan><tspan x="105" y="12" dx="0">r</tspan><tspan x="110" y="12" dx="0">S</tspan><tspan x="116" y="12" dx="0">t</tspan><tspan x="120" y="12" dx="0">r</tspan><tspan x="124" y="12" dx="0">i</tspan><tspan x="128" y="12" dx="0">n</tspan><tspan x="136" y="12" dx="0">g</tspan><tspan x="142" y="12" dx="0"> </tspan><tspan x="145" y="12" dx="0">[</tspan><tspan x="149" y="12" dx="0">0</tspan><tspan x="155" y="12" dx="0">.</tspan><tspan x="159" y="12" dx="0">.</tspan><tspan x="162" y="12" dx="0">1</tspan><tspan x="168" y="12" dx="0">]</tspan></text><rect x="257" y="795" width="152" height="46" stroke="none" fill="#D0D0D0"/><rect x="254" y="792" width="151" height="45" stroke="none" fill="#99CCFF"/><rect x="254" y="792" width="151" height="46"/><rect x="254" y="792" width="151" height="45"/><text stroke="none" fill="#000000" transform="translate(294 798)"><tspan x="0" y="12" dx="0">«</tspan><tspan x="6" y="12" dx="0">O</tspan><tspan x="15" y="12" dx="0">b</tspan><tspan x="22" y="12" dx="0">j</tspan><tspan x="25" y="12" dx="0">e</tspan><tspan x="32" y="12" dx="0">c</tspan><tspan x="38" y="12" dx="0 0">tt</tspan><tspan x="46" y="12" dx="0">y</tspan><tspan x="51" y="12" dx="0">p</tspan><tspan x="58" y="12" dx="0">e</tspan><tspan x="66" y="12" dx="0">»</tspan></text><text stroke="none" fill="#000000" font-weight="700" transform="translate(284 813)"><tspan x="0" y="12" dx="0">Regel::Regeltekst</tspan></text><rect x="467" y="795" width="149" height="46" stroke="none" fill="#D0D0D0"/><rect x="464" y="792" width="148" height="45" stroke="none" fill="#99CCFF"/><rect x="464" y="792" width="148" height="46"/><rect x="464" y="792" width="148" height="45"/><text stroke="none" fill="#000000" transform="translate(502 798)"><tspan x="0" y="12" dx="0">«</tspan><tspan x="6" y="12" dx="0">O</tspan><tspan x="15" y="12" dx="0">b</tspan><tspan x="22" y="12" dx="0">j</tspan><tspan x="25" y="12" dx="0">e</tspan><tspan x="32" y="12" dx="0">c</tspan><tspan x="38" y="12" dx="0 0">tt</tspan><tspan x="46" y="12" dx="0">y</tspan><tspan x="51" y="12" dx="0">p</tspan><tspan x="58" y="12" dx="0">e</tspan><tspan x="66" y="12" dx="0">»</tspan></text><text stroke="none" fill="#000000" font-weight="700" transform="translate(491 813)"><tspan x="0" y="12" dx="0">VrijeTekst::Divisie</tspan></text><rect x="699" y="481" width="209" height="147" stroke="none" fill="#D0D0D0"/><rect x="696" y="478" width="208" height="146" stroke="none" fill="#99CCFF"/><rect x="696" y="478" width="208" height="147"/><rect x="696" y="478" width="208" height="146"/><text stroke="none" fill="#595959" font-style="italic" transform="translate(794 481)"><tspan x="0" y="12" dx="0">Omgevingsdocument</tspan></text><text stroke="none" fill="#595959" transform="translate(764 502)"><tspan x="0" y="12" dx="0">«</tspan><tspan x="6" y="12" dx="0">O</tspan><tspan x="15" y="12" dx="0">b</tspan><tspan x="22" y="12" dx="0">j</tspan><tspan x="25" y="12" dx="0">e</tspan><tspan x="32" y="12" dx="0">c</tspan><tspan x="38" y="12" dx="0 0">tt</tspan><tspan x="46" y="12" dx="0">y</tspan><tspan x="51" y="12" dx="0">p</tspan><tspan x="58" y="12" dx="0">e</tspan><tspan x="66" y="12" dx="0">»</tspan></text><text stroke="none" fill="#595959" font-weight="700" transform="translate(755 517)"><tspan x="0" y="12" dx="0">Context::Regeling</tspan></text><path d="M696 537 904 537"/><text stroke="none" fill="#595959" transform="translate(709 545)"><tspan x="0" y="12" dx="0">«</tspan><tspan x="6" y="12" dx="0">A</tspan><tspan x="14" y="12" dx="0 0">tt</tspan><tspan x="22" y="12" dx="0">r</tspan><tspan x="26" y="12" dx="0">i</tspan><tspan x="30" y="12" dx="0">b</tspan><tspan x="38" y="12" dx="0">u</tspan><tspan x="45" y="12" dx="0">u</tspan><tspan x="52" y="12" dx="0">t</tspan><tspan x="56" y="12" dx="0">s</tspan><tspan x="63" y="12" dx="0">o</tspan><tspan x="70" y="12" dx="0">o</tspan><tspan x="77" y="12" dx="0">r</tspan><tspan x="81" y="12" dx="0">t</tspan><tspan x="86" y="12" dx="0">»</tspan></text><text stroke="none" fill="#66413F" transform="translate(701 560)"><tspan x="0" y="12" dx="0">+</tspan></text><text stroke="none" fill="#66413F" transform="translate(722 560)"><tspan x="0" y="12" dx="0">type: soortRegeling</tspan></text><text stroke="none" fill="#66413F" transform="translate(701 575)"><tspan x="0" y="12" dx="0">+</tspan></text><text stroke="none" fill="#66413F" transform="translate(722 575)"><tspan x="0" y="12" dx="0">citeerTitel: CharacterString [0..1]</tspan></text><text stroke="none" fill="#66413F" transform="translate(701 590)"><tspan x="0" y="12" dx="0">+</tspan></text><text stroke="none" fill="#66413F" transform="translate(722 590)"><tspan x="0" y="12" dx="0">o</tspan><tspan x="7" y="12" dx="0">p</tspan><tspan x="15" y="12" dx="0">s</tspan><tspan x="21" y="12" dx="0">c</tspan><tspan x="26" y="12" dx="0">h</tspan><tspan x="33" y="12" dx="0">r</tspan><tspan x="38" y="12" dx="0">i</tspan><tspan x="42" y="12" dx="0 0">ft</tspan><tspan x="50" y="12" dx="0">:</tspan><tspan x="53" y="12" dx="0"> </tspan><tspan x="56" y="12" dx="0">C</tspan><tspan x="63" y="12" dx="0">h</tspan><tspan x="70" y="12" dx="0">a</tspan><tspan x="77" y="12" dx="0">r</tspan><tspan x="81" y="12" dx="0">a</tspan><tspan x="89" y="12" dx="0">c</tspan><tspan x="94" y="12" dx="0">t</tspan><tspan x="98" y="12" dx="0">e</tspan><tspan x="105" y="12" dx="0">r</tspan><tspan x="110" y="12" dx="0">S</tspan><tspan x="116" y="12" dx="0">t</tspan><tspan x="120" y="12" dx="0">r</tspan><tspan x="124" y="12" dx="0">i</tspan><tspan x="128" y="12" dx="0">n</tspan><tspan x="136" y="12" dx="0">g</tspan><tspan x="142" y="12" dx="0"> </tspan><tspan x="145" y="12" dx="0">[</tspan><tspan x="149" y="12" dx="0">0</tspan><tspan x="155" y="12" dx="0">.</tspan><tspan x="159" y="12" dx="0">.</tspan><tspan x="162" y="12" dx="0">1</tspan><tspan x="168" y="12" dx="0">]</tspan></text><text stroke="none" fill="#66413F" transform="translate(701 605)"><tspan x="0" y="12" dx="0">+</tspan></text><text stroke="none" fill="#66413F" transform="translate(722 605)"><tspan x="0" y="12" dx="0">c</tspan><tspan x="5" y="12" dx="0">o</tspan><tspan x="13" y="12" dx="0">n</tspan><tspan x="20" y="12" dx="0">d</tspan><tspan x="27" y="12" dx="0">i</tspan><tspan x="31" y="12" dx="0 0">ti</tspan><tspan x="40" y="12" dx="0">e</tspan><tspan x="47" y="12" dx="0">:</tspan><tspan x="50" y="12" dx="0"> </tspan><tspan x="53" y="12" dx="0">C</tspan><tspan x="59" y="12" dx="0">h</tspan><tspan x="67" y="12" dx="0">a</tspan><tspan x="74" y="12" dx="0">r</tspan><tspan x="78" y="12" dx="0">a</tspan><tspan x="86" y="12" dx="0">c</tspan><tspan x="91" y="12" dx="0">t</tspan><tspan x="95" y="12" dx="0">e</tspan><tspan x="102" y="12" dx="0">r</tspan><tspan x="106" y="12" dx="0">S</tspan><tspan x="113" y="12" dx="0">t</tspan><tspan x="117" y="12" dx="0">r</tspan><tspan x="121" y="12" dx="0">i</tspan><tspan x="125" y="12" dx="0">n</tspan><tspan x="132" y="12" dx="0">g</tspan><tspan x="139" y="12" dx="0"> </tspan><tspan x="142" y="12" dx="0">[</tspan><tspan x="146" y="12" dx="0">0</tspan><tspan x="152" y="12" dx="0">.</tspan><tspan x="155" y="12" dx="0">.</tspan><tspan x="159" y="12" dx="0">1</tspan><tspan x="165" y="12" dx="0">]</tspan></text><path d="M548 552 696 552M696 552 681 558M696 552 681 546" stroke="#69738C"/><path d="M343 792 388 717M388 717 385 733M388 717 375 727" stroke="#69738C"/><path d="M528 792 495 717M495 717 507 728M495 717 496 733" stroke="#69738C"/><path d="M355 600 309 600M309 600 309 679M309 679 355 679M355 679 340 685M355 679 340 673" stroke="#69738C"/><path d="M548 694 578 694M578 694 578 679M578 679 548 679M548 679 563 673M548 679 563 685" stroke="#69738C"/><g transform="matrix(1 0 0 -1 346 775)"><rect x="0" y="-13" width="17" height="13" stroke="none" fill="#FFFFFF"/></g><text stroke="none" fill="#595959" font-size="10" transform="translate(346 775)"><tspan x="0" y="10" dx="0">0..1</tspan></text><g transform="matrix(1 0 0 -1 291 740)"><rect x="0" y="-13" width="117" height="13" stroke="none" fill="#FFFFFF"/></g><text stroke="none" fill="#595959" font-size="10" transform="translate(291 740)"><tspan x="0" y="10" dx="0">i</tspan><tspan x="2.3333" y="10" dx="0">s</tspan><tspan x="6" y="10" dx="0"> </tspan><tspan x="8" y="10" dx="0">r</tspan><tspan x="11.3333" y="10" dx="0">e</tspan><tspan x="16" y="10" dx="0">g</tspan><tspan x="20.3333" y="10" dx="0">e</tspan><tspan x="25.3333" y="10" dx="0">l</tspan><tspan x="27.6667" y="10" dx="0">s</tspan><tspan x="31.6667" y="10" dx="0">t</tspan><tspan x="35" y="10" dx="0">r</tspan><tspan x="38.3333" y="10" dx="0">u</tspan><tspan x="43.6667" y="10" dx="0">c</tspan><tspan x="48" y="10" dx="0">t</tspan><tspan x="51.3333" y="10" dx="0">u</tspan><tspan x="56.6667" y="10" dx="0">u</tspan><tspan x="62" y="10" dx="0">r</tspan><tspan x="65.3333" y="10" dx="0">a</tspan><tspan x="70" y="10" dx="0">n</tspan><tspan x="75.3333" y="10" dx="0">n</tspan><tspan x="80.6667" y="10" dx="0">o</tspan><tspan x="86" y="10" dx="0">t</tspan><tspan x="89.3333" y="10" dx="0">a</tspan><tspan x="94" y="10" dx="0 0">ti</tspan><tspan x="99.6667" y="10" dx="0">e</tspan><tspan x="104.667" y="10" dx="0"> </tspan><tspan x="107" y="10" dx="0">b</tspan><tspan x="112.333" y="10" dx="0">i</tspan><tspan x="114.667" y="10" dx="0">j</tspan></text><g transform="matrix(1 0 0 -1 324 757)"><rect x="0" y="-13" width="59" height="13" stroke="none" fill="#FFFFFF"/></g><text stroke="none" fill="#595959" font-size="10" transform="translate(324 757)"><tspan x="0" y="10" dx="0">«</tspan><tspan x="4.6667" y="10" dx="0">R</tspan><tspan x="10" y="10" dx="0">e</tspan><tspan x="15" y="10" dx="0">l</tspan><tspan x="17.3333" y="10" dx="0">a</tspan><tspan x="22" y="10" dx="0 0">ti</tspan><tspan x="27.6667" y="10" dx="0">e</tspan><tspan x="32.6667" y="10" dx="0">s</tspan><tspan x="36.6667" y="10" dx="0">o</tspan><tspan x="42" y="10" dx="0">o</tspan><tspan x="47.3333" y="10" dx="0">r</tspan><tspan x="50.6667" y="10" dx="0">t</tspan><tspan x="54" y="10" dx="0">»</tspan></text><g transform="matrix(1 0 0 -1 400 722)"><rect x="0" y="-13" width="5" height="13" stroke="none" fill="#FFFFFF"/></g><text stroke="none" fill="#595959" font-size="10" transform="translate(400 722)"><tspan x="0" y="10" dx="0">1</tspan></text><g transform="matrix(1 0 0 -1 567 687)"><rect x="0" y="-13" width="82" height="13" stroke="none" fill="#FFFFFF"/></g><text stroke="none" fill="#595959" font-size="10" transform="translate(567 687)"><tspan x="0" y="10" dx="0">+verwijzingVan 0..*</tspan></text><g transform="matrix(1 0 0 -1 561 679)"><rect x="0" y="-13" width="116" height="13" stroke="none" fill="#FFFFFF"/></g><text stroke="none" fill="#595959" font-size="10" transform="translate(561 679)"><tspan x="0" y="10" dx="0">«</tspan><tspan x="5.3333" y="10" dx="0">R</tspan><tspan x="11" y="10" dx="0">e</tspan><tspan x="16.3333" y="10" dx="0">l</tspan><tspan x="18.6667" y="10" dx="0">a</tspan><tspan x="23.3333" y="10" dx="0 0">ti</tspan><tspan x="29" y="10" dx="0">e</tspan><tspan x="34" y="10" dx="0">s</tspan><tspan x="38" y="10" dx="0">o</tspan><tspan x="43.3333" y="10" dx="0">o</tspan><tspan x="48.6667" y="10" dx="0">r</tspan><tspan x="52" y="10" dx="0">t</tspan><tspan x="55.3333" y="10" dx="0">»</tspan><tspan x="60.3333" y="10" dx="0"> </tspan><tspan x="62.6667" y="10" dx="0">V</tspan><tspan x="68.3333" y="10" dx="0">e</tspan><tspan x="73.3333" y="10" dx="0">r</tspan><tspan x="76.6667" y="10" dx="0">w</tspan><tspan x="83.6667" y="10" dx="0">i</tspan><tspan x="86" y="10" dx="0">j</tspan><tspan x="88.3333" y="10" dx="0">s</tspan><tspan x="92.3333" y="10" dx="0">t</tspan><tspan x="95.6667" y="10" dx="0"> </tspan><tspan x="98" y="10" dx="0">n</tspan><tspan x="103.333" y="10" dx="0">a</tspan><tspan x="108" y="10" dx="0">a</tspan><tspan x="112.667" y="10" dx="0">r</tspan></text><g transform="matrix(1 0 0 -1 596 676)"><rect x="0" y="-13" width="67" height="13" stroke="none" fill="#FFFFFF"/></g><text stroke="none" fill="#595959" font-size="10" transform="translate(596 676)"><tspan x="0" y="10" dx="0">+verwijzingNaar</tspan></text><g transform="matrix(1 0 0 -1 595 689)"><rect x="0" y="-13" width="68" height="13" stroke="none" fill="#FFFFFF"/></g><text stroke="none" fill="#595959" font-size="10" transform="translate(595 689)"><tspan x="0" y="10" dx="0">«</tspan><tspan x="5.3333" y="10" dx="0">R</tspan><tspan x="11" y="10" dx="0">e</tspan><tspan x="16.3333" y="10" dx="0">l</tspan><tspan x="18.6667" y="10" dx="0">a</tspan><tspan x="23.6667" y="10" dx="0 0">ti</tspan><tspan x="29.3333" y="10" dx="0">e</tspan><tspan x="34.3333" y="10" dx="0">r</tspan><tspan x="37.6667" y="10" dx="0">o</tspan><tspan x="43" y="10" dx="0">l</tspan><tspan x="45.3333" y="10" dx="0">»</tspan><tspan x="50.3333" y="10" dx="0"> </tspan><tspan x="52.6667" y="10" dx="0">0</tspan><tspan x="57.6667" y="10" dx="0">.</tspan><tspan x="60.3333" y="10" dx="0">.</tspan><tspan x="63" y="10" dx="0">*</tspan></text><g transform="matrix(1 0 0 -1 550 526)"><rect x="0" y="-13" width="71" height="13" stroke="none" fill="#FFFFFF"/></g><text stroke="none" fill="#595959" font-size="10" transform="translate(550 526)"><tspan x="0" y="10" dx="0">+</tspan><tspan x="5.3333" y="10" dx="0">h</tspan><tspan x="11" y="10" dx="0">e</tspan><tspan x="16.3333" y="10" dx="0">e</tspan><tspan x="21.3333" y="10" dx="0 0">ft</tspan><tspan x="27.6667" y="10" dx="0">O</tspan><tspan x="34.3333" y="10" dx="0">n</tspan><tspan x="39.6667" y="10" dx="0">d</tspan><tspan x="45" y="10" dx="0">e</tspan><tspan x="50" y="10" dx="0">r</tspan><tspan x="53.3333" y="10" dx="0">d</tspan><tspan x="58.6667" y="10" dx="0">e</tspan><tspan x="63.6667" y="10" dx="0">e</tspan><tspan x="68.6667" y="10" dx="0">l</tspan></text><g transform="matrix(1 0 0 -1 551 557)"><rect x="0" y="-13" width="17" height="13" stroke="none" fill="#FFFFFF"/></g><text stroke="none" fill="#595959" font-size="10" transform="translate(551 557)"><tspan x="0" y="10" dx="0">0..*</tspan></text><g transform="matrix(1 0 0 -1 589 540)"><rect x="0" y="-13" width="68" height="13" stroke="none" fill="#FFFFFF"/></g><text stroke="none" fill="#595959" font-size="10" transform="translate(589 540)"><tspan x="0" y="10" dx="0">is onderdeel van</tspan></text><g transform="matrix(1 0 0 -1 594 555)"><rect x="0" y="-13" width="59" height="13" stroke="none" fill="#FFFFFF"/></g><text stroke="none" fill="#595959" font-size="10" transform="translate(594 555)"><tspan x="0" y="10" dx="0">«</tspan><tspan x="4.6667" y="10" dx="0">R</tspan><tspan x="10" y="10" dx="0">e</tspan><tspan x="15" y="10" dx="0">l</tspan><tspan x="17.3333" y="10" dx="0">a</tspan><tspan x="22" y="10" dx="0 0">ti</tspan><tspan x="27.6667" y="10" dx="0">e</tspan><tspan x="32.6667" y="10" dx="0">s</tspan><tspan x="36.6667" y="10" dx="0">o</tspan><tspan x="42" y="10" dx="0">o</tspan><tspan x="47.3333" y="10" dx="0">r</tspan><tspan x="50.6667" y="10" dx="0">t</tspan><tspan x="54" y="10" dx="0">»</tspan></text><g transform="matrix(1 0 0 -1 688 557)"><rect x="0" y="-13" width="5" height="13" stroke="none" fill="#FFFFFF"/></g><text stroke="none" fill="#595959" font-size="10" transform="translate(688 557)"><tspan x="0" y="10" dx="0">1</tspan></text><g transform="matrix(1 0 0 -1 200 582)"><rect x="0" y="-13" width="150" height="13" stroke="none" fill="#FFFFFF"/></g><text stroke="none" fill="#595959" font-size="10" transform="translate(200 582)"><tspan x="0" y="10" dx="0">+</tspan><tspan x="5.3333" y="10" dx="0">h</tspan><tspan x="11" y="10" dx="0">e</tspan><tspan x="16.3333" y="10" dx="0">e</tspan><tspan x="21.6667" y="10" dx="0 0">ft</tspan><tspan x="28" y="10" dx="0">O</tspan><tspan x="35" y="10" dx="0">n</tspan><tspan x="40.6667" y="10" dx="0">d</tspan><tspan x="46" y="10" dx="0">e</tspan><tspan x="51" y="10" dx="0">r</tspan><tspan x="54.3333" y="10" dx="0">l</tspan><tspan x="56.6667" y="10" dx="0">i</tspan><tspan x="59" y="10" dx="0">g</tspan><tspan x="63.6667" y="10" dx="0">g</tspan><tspan x="68.3333" y="10" dx="0">e</tspan><tspan x="73.3333" y="10" dx="0">n</tspan><tspan x="78.6667" y="10" dx="0">d</tspan><tspan x="84" y="10" dx="0">C</tspan><tspan x="89.3333" y="10" dx="0">o</tspan><tspan x="94.6667" y="10" dx="0">m</tspan><tspan x="102.667" y="10" dx="0">p</tspan><tspan x="108" y="10" dx="0">o</tspan><tspan x="113.333" y="10" dx="0">n</tspan><tspan x="118.667" y="10" dx="0">e</tspan><tspan x="123.667" y="10" dx="0">n</tspan><tspan x="129" y="10" dx="0">t</tspan><tspan x="132.333" y="10" dx="0"> </tspan><tspan x="134.667" y="10" dx="0">0</tspan><tspan x="139.667" y="10" dx="0">.</tspan><tspan x="142.333" y="10" dx="0">.</tspan><tspan x="145" y="10" dx="0">*</tspan></text><g transform="matrix(1 0 0 -1 207 632)"><rect x="0" y="-13" width="104" height="13" stroke="none" fill="#FFFFFF"/></g><text stroke="none" fill="#595959" font-size="10" transform="translate(207 632)"><tspan x="0" y="10" dx="0">«</tspan><tspan x="4.6667" y="10" dx="0">R</tspan><tspan x="10" y="10" dx="0">e</tspan><tspan x="15" y="10" dx="0">l</tspan><tspan x="17.3333" y="10" dx="0">a</tspan><tspan x="22" y="10" dx="0 0">ti</tspan><tspan x="27.6667" y="10" dx="0">e</tspan><tspan x="32.6667" y="10" dx="0">s</tspan><tspan x="36.6667" y="10" dx="0">o</tspan><tspan x="42" y="10" dx="0">o</tspan><tspan x="47.3333" y="10" dx="0">r</tspan><tspan x="50.6667" y="10" dx="0">t</tspan><tspan x="54" y="10" dx="0">»</tspan><tspan x="59" y="10" dx="0"> </tspan><tspan x="61.3333" y="10" dx="0">V</tspan><tspan x="67" y="10" dx="0">a</tspan><tspan x="71.6667" y="10" dx="0">l</tspan><tspan x="74" y="10" dx="0">t</tspan><tspan x="77.3333" y="10" dx="0"> </tspan><tspan x="79.6667" y="10" dx="0">o</tspan><tspan x="85" y="10" dx="0">n</tspan><tspan x="90.3333" y="10" dx="0">d</tspan><tspan x="95.6667" y="10" dx="0">e</tspan><tspan x="100.667" y="10" dx="0">r</tspan></text><g transform="matrix(1 0 0 -1 203 684)"><rect x="0" y="-13" width="131" height="13" stroke="none" fill="#FFFFFF"/></g><text stroke="none" fill="#595959" font-size="10" transform="translate(203 684)"><tspan x="0" y="10" dx="0">+</tspan><tspan x="5.3333" y="10" dx="0">h</tspan><tspan x="11" y="10" dx="0">e</tspan><tspan x="16" y="10" dx="0">e</tspan><tspan x="21" y="10" dx="0 0">ft</tspan><tspan x="27.3333" y="10" dx="0">B</tspan><tspan x="32.6667" y="10" dx="0">o</tspan><tspan x="38" y="10" dx="0">v</tspan><tspan x="42.6667" y="10" dx="0">e</tspan><tspan x="47.6667" y="10" dx="0">n</tspan><tspan x="53" y="10" dx="0">l</tspan><tspan x="55.3333" y="10" dx="0">i</tspan><tspan x="57.6667" y="10" dx="0">g</tspan><tspan x="62.3333" y="10" dx="0">g</tspan><tspan x="67" y="10" dx="0">e</tspan><tspan x="72" y="10" dx="0">n</tspan><tspan x="77.3333" y="10" dx="0">d</tspan><tspan x="82.6667" y="10" dx="0">C</tspan><tspan x="88" y="10" dx="0">o</tspan><tspan x="93.3333" y="10" dx="0">m</tspan><tspan x="101.333" y="10" dx="0">p</tspan><tspan x="106.667" y="10" dx="0">o</tspan><tspan x="112" y="10" dx="0">n</tspan><tspan x="117.333" y="10" dx="0">e</tspan><tspan x="122.333" y="10" dx="0">n</tspan><tspan x="127.667" y="10" dx="0">t</tspan></text><g transform="matrix(1 0 0 -1 266 697)"><rect x="0" y="-13" width="68" height="13" stroke="none" fill="#FFFFFF"/></g><text stroke="none" fill="#595959" font-size="10" transform="translate(266 697)"><tspan x="0" y="10" dx="0">«</tspan><tspan x="5.3333" y="10" dx="0">R</tspan><tspan x="11" y="10" dx="0">e</tspan><tspan x="16.3333" y="10" dx="0">l</tspan><tspan x="18.6667" y="10" dx="0">a</tspan><tspan x="23.6667" y="10" dx="0 0">ti</tspan><tspan x="29.3333" y="10" dx="0">e</tspan><tspan x="34.3333" y="10" dx="0">r</tspan><tspan x="37.6667" y="10" dx="0">o</tspan><tspan x="43" y="10" dx="0">l</tspan><tspan x="45.3333" y="10" dx="0">»</tspan><tspan x="50.3333" y="10" dx="0"> </tspan><tspan x="52.6667" y="10" dx="0">0</tspan><tspan x="57.6667" y="10" dx="0">.</tspan><tspan x="60.3333" y="10" dx="0">.</tspan><tspan x="63" y="10" dx="0">1</tspan></text><g transform="matrix(1 0 0 -1 531 775)"><rect x="0" y="-13" width="17" height="13" stroke="none" fill="#FFFFFF"/></g><text stroke="none" fill="#595959" font-size="10" transform="translate(531 775)"><tspan x="0" y="10" dx="0">0..1</tspan></text><g transform="matrix(1 0 0 -1 459 742)"><rect x="0" y="-13" width="98" height="13" stroke="none" fill="#FFFFFF"/></g><text stroke="none" fill="#595959" font-size="10" transform="translate(459 742)"><tspan x="0" y="10" dx="0">i</tspan><tspan x="2.3333" y="10" dx="0">s</tspan><tspan x="6" y="10" dx="0"> </tspan><tspan x="8.3333" y="10" dx="0">v</tspan><tspan x="13" y="10" dx="0">r</tspan><tspan x="16.3333" y="10" dx="0">i</tspan><tspan x="18.6667" y="10" dx="0">j</tspan><tspan x="21" y="10" dx="0">e</tspan><tspan x="26" y="10" dx="0">t</tspan><tspan x="29.3333" y="10" dx="0">e</tspan><tspan x="34.3333" y="10" dx="0">k</tspan><tspan x="39" y="10" dx="0">s</tspan><tspan x="43" y="10" dx="0">t</tspan><tspan x="46.3333" y="10" dx="0">a</tspan><tspan x="51" y="10" dx="0">n</tspan><tspan x="56.3333" y="10" dx="0">n</tspan><tspan x="61.6667" y="10" dx="0">o</tspan><tspan x="67" y="10" dx="0">t</tspan><tspan x="70.3333" y="10" dx="0">a</tspan><tspan x="75" y="10" dx="0 0">ti</tspan><tspan x="80.6667" y="10" dx="0">e</tspan><tspan x="85.6667" y="10" dx="0"> </tspan><tspan x="88" y="10" dx="0">b</tspan><tspan x="93.3333" y="10" dx="0">i</tspan><tspan x="95.6667" y="10" dx="0">j</tspan></text><g transform="matrix(1 0 0 -1 483 757)"><rect x="0" y="-13" width="59" height="13" stroke="none" fill="#FFFFFF"/></g><text stroke="none" fill="#595959" font-size="10" transform="translate(483 757)"><tspan x="0" y="10" dx="0">«</tspan><tspan x="4.6667" y="10" dx="0">R</tspan><tspan x="10" y="10" dx="0">e</tspan><tspan x="15" y="10" dx="0">l</tspan><tspan x="17.3333" y="10" dx="0">a</tspan><tspan x="22" y="10" dx="0 0">ti</tspan><tspan x="27.6667" y="10" dx="0">e</tspan><tspan x="32.6667" y="10" dx="0">s</tspan><tspan x="36.6667" y="10" dx="0">o</tspan><tspan x="42" y="10" dx="0">o</tspan><tspan x="47.3333" y="10" dx="0">r</tspan><tspan x="50.6667" y="10" dx="0">t</tspan><tspan x="54" y="10" dx="0">»</tspan></text><g transform="matrix(1 0 0 -1 507 722)"><rect x="0" y="-13" width="5" height="13" stroke="none" fill="#FFFFFF"/></g><text stroke="none" fill="#595959" font-size="10" transform="translate(507 722)"><tspan x="0" y="10" dx="0">1</tspan></text></g></g></g></g></svg>